<svg width="40" height="39" viewBox="0 0 40 39" fill="none" xmlns="http://www.w3.org/2000/svg">
<path d="M28.5878 16.9743C29.5022 16.2594 30.3002 14.6848 28.2981 13.7918C26.3624 12.9297 25.4861 14.319 25.6286 14.965C25.8186 15.8201 25.3293 16.9981 24.1632 16.4138C22.9994 15.8295 20.0853 14.3713 20.0853 14.3713L19.9309 14.2905L19.9547 14.2454C19.9547 14.2454 21.4153 11.3337 21.9972 10.1675C22.5814 9.00378 21.4034 8.51452 20.5484 8.70215C19.9024 8.84465 18.513 7.96827 19.3752 6.03264C20.2682 4.03051 21.8428 4.83089 22.5577 5.74289C23.4554 6.89002 24.2273 5.84977 24.2273 5.84977L26.657 1L38.3349 6.85202C38.9714 7.17027 39.2302 7.9469 38.9096 8.5834L32.7868 20.8004L28.4762 18.6392C28.481 18.6439 27.4407 17.8721 28.5878 16.9743Z" fill="#FDFFFA" stroke="#FDFFFA" stroke-width="0.950003" stroke-miterlimit="10"/>
<path d="M13.6469 15.026C12.5995 14.5296 10.8325 14.5201 10.9323 16.7098C11.0297 18.826 12.6637 18.9875 13.1767 18.5695C13.8559 18.0185 15.1289 17.9282 15.1289 19.2297C15.1289 20.5336 15.1289 23.7897 15.1289 23.7897L15.1265 23.8396H15.1052C15.1052 23.8396 11.8467 23.8396 10.5452 23.8396C9.24128 23.8396 9.3339 25.1126 9.8849 25.7919C10.3029 26.3049 10.1414 27.9412 8.02527 28.0362C5.83552 28.136 5.84502 26.369 6.34139 25.3216C6.96602 24.0059 5.69064 23.7826 5.69064 23.7826H1V10.2403C1 9.52781 1.57713 8.95068 2.28963 8.95068H15.1859V14.3752C15.1859 14.3728 14.9627 15.6482 13.6469 15.026Z" stroke="#FDFFFA" stroke-width="0.950003" stroke-miterlimit="10"/>
<path d="M5.68827 23.7832C5.68827 23.7832 6.96364 24.0065 6.33902 25.3222C5.84264 26.3696 5.83314 28.1366 8.0229 28.0368C10.139 27.9395 10.3005 26.3055 9.88253 25.7925C9.33153 25.1132 9.24128 23.8402 10.5428 23.8402C11.8467 23.8402 15.1028 23.8402 15.1028 23.8402H15.1242L15.1218 23.9162C15.1218 23.9162 15.1218 27.1747 15.1218 28.4762C15.1218 29.7801 16.3948 29.6875 17.0741 29.1365C17.5871 28.7185 19.2234 28.88 19.3184 30.9961C19.4182 33.1859 17.6512 33.1764 16.6038 32.68C15.288 32.0554 15.0648 33.3307 15.0648 33.3307V38.4845H2.28963C1.57713 38.4845 1 37.9074 1 37.1949V23.7832H5.68827Z" stroke="#FDFFFA" stroke-width="0.950003" stroke-miterlimit="10"/>
<path d="M16.6044 32.6826C17.6518 33.179 19.4188 33.1885 19.3191 30.9987C19.2217 28.8826 17.5877 28.7211 17.0747 29.1391C16.3954 29.6901 15.1224 29.7804 15.1224 28.4789C15.1224 27.175 15.1224 23.9188 15.1224 23.9188L15.1248 23.8428L15.2982 23.8452C15.2982 23.8452 18.5567 23.8452 19.8582 23.8452C21.1621 23.8452 21.0694 22.5722 20.5184 21.893C20.1004 21.38 20.2619 19.7436 22.3781 19.6486C24.5678 19.5488 24.5583 21.3158 24.062 22.3632C23.4373 23.679 24.7127 23.9022 24.7127 23.9022H29.534V37.1928C29.534 37.9053 28.9568 38.4824 28.2443 38.4824H15.0654V33.331C15.0654 33.3357 15.2887 32.0604 16.6044 32.6826Z" stroke="#FDFFFA" stroke-width="0.950003" stroke-miterlimit="10"/>
</svg>
