<svg width="97" height="143" viewBox="0 0 97 143" fill="none" xmlns="http://www.w3.org/2000/svg">
<path d="M50.8095 98.9492V83.1429H46.1904V78.5238H73.9047V83.1429H69.2857V98.9492C77.6392 102.596 83.1428 110.896 83.1428 120.095C83.1428 132.83 72.7823 143.19 60.0476 143.19C47.3129 143.19 36.9523 132.83 36.9523 120.095C36.9523 110.896 42.4559 102.596 50.8095 98.9492ZM55.4285 83.1429V87.7619H64.6666V83.1429H55.4285ZM66.2071 102.695C65.2833 102.37 64.6666 101.497 64.6666 100.517V92.381H55.4285V100.517C55.4285 101.497 54.8119 102.37 53.8881 102.693C48.0127 104.774 43.7239 109.656 42.2088 115.497C43.9664 115.557 45.6154 116.252 46.8671 117.504L48.7794 119.416C49.2159 119.855 49.7979 120.095 50.4146 120.095H51.2067C51.8234 120.095 52.4054 119.855 52.8419 119.419L54.7542 117.506C56.059 116.197 57.8004 115.476 59.6527 115.476H60.4448C62.2948 115.476 64.0361 116.197 65.3456 117.506L67.2579 119.419C67.6921 119.855 68.2741 120.095 68.8908 120.095H69.6829C70.2996 120.095 70.8816 119.855 71.3181 119.419L73.2303 117.506C74.4798 116.257 76.1288 115.562 77.8887 115.499C76.369 109.658 72.0802 104.776 66.2071 102.695ZM60.0476 138.571C70.2349 138.571 78.5238 130.283 78.5238 120.095H78.1288C77.5122 120.095 76.9302 120.335 76.4937 120.772L74.5814 122.684C73.2742 123.994 71.5328 124.714 69.6806 124.714H68.8884C67.0385 124.714 65.2971 123.994 63.9876 122.684L62.0753 120.772C61.6412 120.335 61.0592 120.095 60.4425 120.095H59.6503C59.0337 120.095 58.4517 120.335 58.0152 120.772L56.1029 122.684C54.798 123.994 53.0567 124.714 51.2044 124.714H50.4123C48.5623 124.714 46.8209 123.994 45.5114 122.684L43.5992 120.772C43.165 120.335 42.583 120.095 41.9663 120.095H41.5714C41.5714 130.283 49.8603 138.571 60.0476 138.571Z" fill="#3D4966"/>
<path d="M2.30954 32.3333H34.6429C35.9177 32.3333 36.9524 33.3657 36.9524 34.6429V43.881C36.9524 45.1581 35.9177 46.1905 34.6429 46.1905H32.3333V129.333C32.3333 136.976 26.1184 143.19 18.4762 143.19C10.834 143.19 4.61906 136.976 4.61906 129.333V46.1905H2.30954C1.03468 46.1905 1.14441e-05 45.1581 1.14441e-05 43.881V34.6429C1.14441e-05 33.3657 1.03468 32.3333 2.30954 32.3333ZM18.4762 138.571C23.571 138.571 27.7143 134.428 27.7143 129.333V78.5238H9.23811V129.333C9.23811 134.428 13.3814 138.571 18.4762 138.571ZM9.23811 73.9048H27.7143V46.1905H9.23811V73.9048ZM4.61906 41.5714H6.92858H30.0238H32.3333V36.9524H4.61906V41.5714Z" fill="#3D4966"/>
<path d="M18.4762 127.024H23.0952V131.643H18.4762V127.024Z" fill="#3D4966"/>
<path d="M13.8571 117.786H18.4762V122.405H13.8571V117.786Z" fill="#3D4966"/>
<path d="M18.4762 108.548H23.0952V113.167H18.4762V108.548Z" fill="#3D4966"/>
<path d="M13.8571 99.3095H18.4762V103.929H13.8571V99.3095Z" fill="#3D4966"/>
<path d="M18.4762 90.0714H23.0952V94.6905H18.4762V90.0714Z" fill="#3D4966"/>
<path d="M57.7381 6.92857C57.7381 5.65371 56.7012 4.61905 55.4286 4.61905H23.0953C21.8227 4.61905 20.7857 5.65371 20.7857 6.92857V27.7143H16.1667V6.92857C16.1667 3.10862 19.2753 0 23.0953 0H55.4286C59.2486 0 62.3572 3.10862 62.3572 6.92857V73.9048H57.7381V6.92857Z" fill="#3D4966"/>
<path d="M80.8334 34.6429C80.8334 38.4628 77.7248 41.5714 73.9048 41.5714C70.0849 41.5714 66.9762 38.4628 66.9762 34.6429C66.9762 30.8229 70.0849 27.7143 73.9048 27.7143C77.7248 27.7143 80.8334 30.8229 80.8334 34.6429ZM71.5953 34.6429C71.5953 35.9177 72.6323 36.9524 73.9048 36.9524C75.1774 36.9524 76.2143 35.9177 76.2143 34.6429C76.2143 33.368 75.1774 32.3333 73.9048 32.3333C72.6323 32.3333 71.5953 33.368 71.5953 34.6429Z" fill="#3D4966"/>
<path d="M85.4524 23.0952C79.085 23.0952 73.9048 17.915 73.9048 11.5476C73.9048 5.18026 79.085 0 85.4524 0C91.8197 0 97 5.18026 97 11.5476C97 17.915 91.8197 23.0952 85.4524 23.0952ZM85.4524 4.61905C81.6324 4.61905 78.5238 7.72767 78.5238 11.5476C78.5238 15.3676 81.6324 18.4762 85.4524 18.4762C89.2723 18.4762 92.381 15.3676 92.381 11.5476C92.381 7.72767 89.2723 4.61905 85.4524 4.61905Z" fill="#3D4966"/>
<path d="M76.2142 55.4286C76.2142 50.3338 80.3575 46.1905 85.4523 46.1905C90.5471 46.1905 94.6904 50.3338 94.6904 55.4286C94.6904 60.5234 90.5471 64.6667 85.4523 64.6667C80.3575 64.6667 76.2142 60.5234 76.2142 55.4286ZM85.4523 60.0476C87.9997 60.0476 90.0714 57.976 90.0714 55.4286C90.0714 52.8812 87.9997 50.8095 85.4523 50.8095C82.9049 50.8095 80.8333 52.8812 80.8333 55.4286C80.8333 57.976 82.9049 60.0476 85.4523 60.0476Z" fill="#3D4966"/>
</svg>
