<svg width="41" height="43" viewBox="0 0 41 43" fill="none" xmlns="http://www.w3.org/2000/svg">
<path d="M10.0948 20.5447L8.86216 24.33L12.1348 26.6754L13.2911 30.3626L9.24397 40.0714L14.4802 38.6423L17.5783 42.635L20.6545 35.5552L23.7417 42.6459L26.7853 38.5878L32.0651 39.9296L27.7998 30.2099L28.9561 26.6427L32.2288 24.2973L30.9524 20.5447L32.1851 16.7593L28.9125 14.4139L27.6798 10.6286H23.7417L20.4691 8.2832L17.1965 10.6286H13.3129L12.0803 14.4139L8.80762 16.7593L10.0948 20.5447ZM17.0437 38.4242L15.3202 36.2424L12.9748 36.886L15.6256 30.5153H17.2728L18.931 31.7153L19.4546 32.8498L17.0437 38.4242ZM25.9126 36.1442L24.2435 38.326L21.5163 32.0425L23.6981 30.4171H25.4653L28.2252 36.7006L25.9126 36.1442Z" fill="#FDFFFA"/>
<path d="M20.5448 27.09C21.8393 27.09 23.1048 26.7062 24.1811 25.987C25.2575 25.2678 26.0964 24.2455 26.5918 23.0495C27.0872 21.8536 27.2168 20.5375 26.9643 19.2679C26.7117 17.9982 26.0884 16.832 25.173 15.9166C24.2576 15.0012 23.0914 14.3778 21.8217 14.1253C20.552 13.8727 19.236 14.0023 18.04 14.4977C16.844 14.9931 15.8218 15.8321 15.1026 16.9084C14.3834 17.9848 13.9995 19.2503 13.9995 20.5448C13.9995 22.2807 14.6891 23.9455 15.9166 25.173C17.1441 26.4005 18.8089 27.09 20.5448 27.09ZM20.5448 16.1813C21.4078 16.1813 22.2514 16.4372 22.969 16.9167C23.6866 17.3961 24.2459 18.0776 24.5761 18.8749C24.9064 19.6723 24.9928 20.5496 24.8244 21.3961C24.6561 22.2425 24.2405 23.02 23.6302 23.6302C23.02 24.2405 22.2425 24.6561 21.3961 24.8245C20.5496 24.9928 19.6723 24.9064 18.8749 24.5761C18.0776 24.2459 17.3961 23.6866 16.9167 22.969C16.4372 22.2514 16.1813 21.4078 16.1813 20.5448C16.1813 19.3875 16.641 18.2776 17.4593 17.4593C18.2776 16.641 19.3875 16.1813 20.5448 16.1813Z" fill="#5D6A85"/>
<path d="M40.7268 19.4536H36.3633V21.6354H40.7268V19.4536Z" fill="#FDFFFA"/>
<path d="M4.36351 19.4536H0V21.6354H4.36351V19.4536Z" fill="#FDFFFA"/>
<path d="M21.4542 4.54454L21.4542 0.18103L19.2725 0.18103L19.2725 4.54454L21.4542 4.54454Z" fill="#FDFFFA"/>
<path d="M35.5338 34.1721L32.4484 31.0867L30.9056 32.6294L33.9911 35.7149L35.5338 34.1721Z" fill="#FDFFFA"/>
<path d="M9.82119 8.45949L6.73572 5.37402L5.19298 6.91676L8.27845 10.0022L9.82119 8.45949Z" fill="#FDFFFA"/>
<path d="M6.73558 35.7149L9.82104 32.6294L8.27831 31.0867L5.19284 34.1721L6.73558 35.7149Z" fill="#FDFFFA"/>
<path d="M32.4485 10.0025L35.5339 6.91699L33.9912 5.37426L30.9057 8.45973L32.4485 10.0025Z" fill="#FDFFFA"/>
</svg>
