<svg width="38" height="44" viewBox="0 0 38 44" fill="none" xmlns="http://www.w3.org/2000/svg">
<path d="M6.68957 38.5047L20.1282 43.7673C20.5159 43.9193 20.9295 43.9983 21.3472 44.0002C21.9422 44.0014 22.527 43.8482 23.0419 43.5562L35.0757 38.7304C35.8197 38.4368 36.4356 37.8978 36.817 37.2067C37.1983 36.5157 37.3212 35.7158 37.1643 34.9454C37.0586 34.4804 36.8506 34.0435 36.5547 33.6653C36.2589 33.287 35.8824 32.9766 35.4514 32.7555C35.0204 32.5344 34.5454 32.4081 34.0594 32.3853C33.5735 32.3625 33.0883 32.4438 32.6377 32.6235L29.5084 33.6571C29.5351 33.2196 29.423 32.7848 29.1874 32.4121C28.9519 32.0395 28.6045 31.7472 28.1928 31.5754L13.7582 24.566C12.8835 24.143 11.8913 24.0126 10.9337 24.1947L6.68957 24.9954V23.6925H0V39.7057H6.68957V38.5047ZM11.2088 25.6214C11.8496 25.5011 12.513 25.5906 13.0967 25.8761L27.5908 32.9001C27.7596 32.9753 27.8936 33.1096 27.9665 33.2766C28.0394 33.4436 28.0459 33.6312 27.9847 33.8027C27.7543 34.3631 26.8029 34.7999 25.4501 34.9673C24.217 35.1279 22.9629 35.0185 21.7783 34.647L14.3454 32.3542L13.8994 33.7444L21.3323 36.0154C22.304 36.3479 23.3284 36.5081 24.3575 36.4885C24.8021 36.4901 25.2463 36.4658 25.688 36.4157C26.5681 36.3292 27.4206 36.0666 28.1928 35.6442L33.1951 33.9846C33.4473 33.8813 33.7192 33.8323 33.9924 33.8411C34.2656 33.8499 34.5337 33.9162 34.7783 34.0356C35.0093 34.1658 35.209 34.343 35.3642 34.5552C35.5193 34.7674 35.6262 35.0097 35.6777 35.2657C35.7536 35.7021 35.6739 36.1508 35.4519 36.5365C35.23 36.9222 34.8793 37.2214 34.4587 37.3838L22.4175 42.2169L22.2986 42.2751C22.0561 42.4219 21.7818 42.5109 21.4978 42.5349C21.2138 42.5589 20.9279 42.5173 20.6633 42.4134L6.68957 36.9325V26.4803L11.2088 25.6214ZM5.203 38.25H1.48657V25.1483H5.203V38.25Z" fill="#FDFFFA"/>
<path d="M27.0772 0L16.9233 3.55385V10.7682C16.9233 16.7505 21.2514 22.33 27.0772 23.6923C32.903 22.33 37.231 16.7505 37.231 10.7682V3.55385L27.0772 0Z" fill="#FDFFFA"/>
<path d="M31.6079 5.92334L25.1024 12.4348L22.5456 9.88553L21.1537 11.2787L25.1024 15.231L32.9998 7.32641L31.6079 5.92334Z" fill="#5D6A85"/>
</svg>
