<svg width="26" height="25" viewBox="0 0 26 40" fill="none" xmlns="http://www.w3.org/2000/svg">
<path d="M13 0.677429C6.32981 0.677429 0.903198 6.10404 0.903198 12.7742C0.903198 16.6452 2.74836 20.5186 5.71771 22.8831C6.8782 23.8065 7.66691 25.0669 7.99271 26.4839H10.5806V22.2968C10.5806 21.9371 10.2887 21.6452 9.92981 21.6452C7.89352 21.6452 6.11771 20.2073 5.79917 18.3016C5.67739 17.5726 5.75159 16.8395 6.00804 16.1694C4.85723 15.4419 4.129 14.1678 4.129 12.7742C4.129 11.371 4.8653 10.0992 6.01852 9.37178C5.84675 8.9242 5.74191 8.44275 5.74191 7.93549C5.74191 5.71211 7.55078 3.90324 9.77417 3.90324C11.0919 3.90324 12.2637 4.53872 13 5.51856C13.7363 4.53872 14.908 3.90324 16.2258 3.90324C18.4492 3.90324 20.258 5.71211 20.258 7.93549C20.258 8.43388 20.1669 8.92178 19.9911 9.37904C21.1427 10.1065 21.8709 11.3807 21.8709 12.7742C21.8709 14.179 21.133 15.4524 19.9774 16.1798C20.1976 16.7565 20.2992 17.3782 20.2395 18.0065C20.0443 20.0468 18.2209 21.6452 16.0871 21.6452C15.7113 21.6452 15.4193 21.9371 15.4193 22.2968V26.4839H18.0072C18.333 25.0678 19.1217 23.8073 20.2822 22.8831C23.2516 20.5186 25.0967 16.6452 25.0967 12.7742C25.0967 6.10404 19.6701 0.677429 13 0.677429Z" fill="white"/>
<path d="M7.39021 18.0348C7.58053 19.1744 8.67166 20.0324 9.92973 20.0324C11.1781 20.0324 12.1934 21.0486 12.1934 22.2969V26.484H13.8063V22.2969C13.8063 21.0486 14.8217 20.0324 16.07 20.0324C17.3983 20.0324 18.5168 19.0744 18.6338 17.8534C18.6999 17.1598 18.4805 16.4969 18.016 15.9865C17.558 15.4824 16.9055 15.1937 16.2257 15.1937V13.5808C17.3176 13.5808 18.3604 14.0365 19.1184 14.8195C19.8136 14.384 20.258 13.6187 20.258 12.7744C20.258 11.7558 19.6047 10.8429 18.6321 10.5026L17.6434 10.1566L18.2305 9.28888C18.5015 8.88888 18.645 8.42113 18.645 7.93565C18.645 6.60178 17.5596 5.5163 16.2257 5.5163C14.8918 5.5163 13.8063 6.60178 13.8063 7.93565H12.1934C12.1934 6.60178 11.108 5.5163 9.77408 5.5163C8.44021 5.5163 7.35472 6.60178 7.35472 7.93565C7.35472 9.26952 8.44021 10.355 9.77408 10.355V11.9679C8.63698 11.9679 7.61279 11.4905 6.87892 10.7308C6.18537 11.1663 5.74182 11.9308 5.74182 12.7744C5.74182 13.7929 6.39505 14.7058 7.36763 15.0461L8.35634 15.3921L7.76924 16.2598C7.41924 16.7752 7.28537 17.4058 7.39021 18.0348Z" fill="white"/>
<path d="M20.2579 28.097H5.74175C5.2974 28.097 4.9353 28.4583 4.9353 28.9034C4.9353 29.3486 5.2974 29.7099 5.74175 29.7099H20.2579C20.7022 29.7099 21.0643 29.3486 21.0643 28.9034C21.0643 28.4583 20.7022 28.097 20.2579 28.097Z" fill="white"/>
<path d="M20.2579 31.3228H5.74175C5.2974 31.3228 4.9353 31.684 4.9353 32.1292C4.9353 32.5744 5.2974 32.9357 5.74175 32.9357H20.2579C20.7022 32.9357 21.0643 32.5744 21.0643 32.1292C21.0643 31.684 20.7022 31.3228 20.2579 31.3228Z" fill="white"/>
<mask id="path-5-inside-1_176_2432" fill="white">
<path d="M12.9998 39.3873C15.6684 39.3873 17.8386 37.2171 17.8386 34.5486H8.16113C8.16113 37.2171 10.3313 39.3873 12.9998 39.3873Z"/>
</mask>
<path d="M17.8386 34.5486H29.9353V22.4518H17.8386V34.5486ZM8.16113 34.5486V22.4518H-3.93564V34.5486H8.16113ZM12.9998 51.4841C22.3493 51.4841 29.9353 43.898 29.9353 34.5486H5.74178C5.74178 30.5363 8.98753 27.2905 12.9998 27.2905V51.4841ZM17.8386 22.4518H8.16113V46.6454H17.8386V22.4518ZM-3.93564 34.5486C-3.93564 43.898 3.65043 51.4841 12.9998 51.4841V27.2905C17.0122 27.2905 20.2579 30.5363 20.2579 34.5486H-3.93564Z" fill="white" mask="url(#path-5-inside-1_176_2432)"/>
</svg>
