<svg width="38" height="38" viewBox="0 0 38 38" fill="none" xmlns="http://www.w3.org/2000/svg">
<path d="M12.6667 12.6667C12.6667 9.1689 15.5022 6.33337 19 6.33337C22.4978 6.33337 25.3334 9.1689 25.3334 12.6667C25.3334 16.1645 22.4978 19 19 19C15.5022 19 12.6667 16.1645 12.6667 12.6667Z" fill="#FDFFFA"/>
<path d="M11.8347 23.2347C9.93432 25.1351 8.8667 27.7125 8.8667 30.4H11.4C11.4 30.4 13.3 30.4 13.626 30.4C13.626 30.4 16.9844 30.4 19 30.4C21.0157 30.4 21.5334 30.4 23.4334 30.4C24.7 30.4 25.9667 30.4 26.6 30.4H29.1334C29.1334 27.7125 28.0658 25.1351 26.1654 23.2347C24.265 21.3343 21.6876 20.2667 19 20.2667C16.3125 20.2667 13.7351 21.3343 11.8347 23.2347Z" fill="#FDFFFA"/>
<path fill-rule="evenodd" clip-rule="evenodd" d="M0 0H10.1333V2.53333H2.53333V10.1333H0V0ZM27.8667 0H38V10.1333H35.4667V2.53333H27.8667V0ZM0 27.8667H2.53333V35.4667H10.1333V38H0V27.8667ZM38 27.8667V38H27.8667V35.4667H35.4667V27.8667H38Z" fill="#FDFFFA"/>
</svg>
