<svg width="110" height="110" viewBox="0 0 110 110" fill="none" xmlns="http://www.w3.org/2000/svg">
<circle cx="55" cy="55" r="55" fill="white"/>
<path d="M38.0972 52.7518C44.501 56.0798 52.1056 59.4077 50.5713 68.3676C49.1705 76.9435 38.8309 80.4635 30.159 79.9515C21.754 79.4395 13.4823 75.9835 12.2149 69.9676C11.0142 64.3997 15.0166 60.4957 19.9529 60.9437C24.4222 61.3917 27.0238 64.7837 27.0238 67.2156C24.0887 67.0236 21.0202 68.6236 21.8874 72.8476C22.4877 75.7915 25.7564 77.3915 30.4259 77.6475C36.4295 77.9675 40.1651 75.1516 40.8321 71.7596C41.8327 66.3196 37.1633 64.3357 29.9589 60.8157C23.3549 57.4877 14.9499 53.8398 15.4168 45.3279C16.0172 35.28 26.29 33.68 33.0941 34.128C40.4319 34.704 42.8333 37.648 43.7672 34C44.3676 34 45.1014 34 45.1014 34L46.1687 48.3998H44.1008C42.2997 40.5919 39.4313 37.008 33.0941 36.432C28.9583 36.048 24.8892 37.968 24.6891 41.8079C24.3555 46.9919 33.0274 49.9998 38.0972 52.7518Z" fill="url(#paint0_linear_556_2)"/>
<path d="M82.5234 34.64H99C99 34.64 99 35.664 99 36.432C93.8636 36.432 92.1292 39.8879 90.5282 43.7919L75.9861 79.4395H72.7842L56.7078 43.7919C54.6399 39.6959 53.8395 36.432 48.7697 36.432C48.7697 35.088 48.7697 34.64 48.7697 34.64H71.7836C71.7836 34.64 71.7836 35.664 71.7836 36.432C66.7139 36.432 66.2469 38.7359 68.3148 43.7919L78.521 66.0636L87.6598 43.7919C89.2608 38.416 87.5931 36.432 82.5234 36.432C82.5234 35.088 82.5234 34.64 82.5234 34.64Z" fill="url(#paint1_linear_556_2)"/>
<defs>
<linearGradient id="paint0_linear_556_2" x1="18.0766" y1="36.915" x2="86.2015" y2="83.2239" gradientUnits="userSpaceOnUse">
<stop stop-color="#4A8CFD"/>
<stop offset="1" stop-color="#0345CB"/>
</linearGradient>
<linearGradient id="paint1_linear_556_2" x1="18.0766" y1="36.915" x2="86.2015" y2="83.2239" gradientUnits="userSpaceOnUse">
<stop stop-color="#4A8CFD"/>
<stop offset="1" stop-color="#0345CB"/>
</linearGradient>
</defs>
</svg>
