<svg width="58" height="44" viewBox="0 0 58 44" fill="none" xmlns="http://www.w3.org/2000/svg">
<path d="M17.1787 12.8657C21.3941 15.1491 26.3999 17.4324 25.3899 23.5799C24.4678 29.4639 17.6617 31.8789 11.9533 31.5277C6.42064 31.1764 0.975751 28.8052 0.141454 24.6776C-0.648933 20.8574 1.98569 18.1789 5.23506 18.4863C8.17705 18.7936 9.88956 21.1209 9.88956 22.7895C7.9575 22.6578 5.93762 23.7555 6.50846 26.6536C6.90365 28.6735 9.05526 29.7712 12.129 29.9469C16.0809 30.1664 18.5399 28.2344 18.979 25.9071C19.6377 22.1747 16.5639 20.8135 11.8216 18.3984C7.47449 16.1151 1.94178 13.6122 2.24915 7.77214C2.64435 0.878207 9.40654 -0.219552 13.8854 0.0878222C18.7155 0.483013 20.2963 2.50289 20.9111 0C21.3063 0 21.7893 0 21.7893 0L22.4918 9.87984H21.1306C19.945 4.52277 18.0569 2.06379 13.8854 1.66859C11.163 1.40513 8.48443 2.72244 8.35269 5.35707C8.13314 8.91381 13.8415 10.9776 17.1787 12.8657Z" fill="url(#paint0_linear_292_542)"/>
<path d="M46.4226 0.439103H57.2685C57.2685 0.439103 57.2685 1.14167 57.2685 1.66859C53.8874 1.66859 52.7457 4.03975 51.6919 6.71829L42.1194 31.1764H40.0117L29.4293 6.71829C28.0681 3.90802 27.5412 1.66859 24.204 1.66859C24.204 0.746477 24.204 0.439103 24.204 0.439103H39.3531C39.3531 0.439103 39.3531 1.14167 39.3531 1.66859C36.0159 1.66859 35.7085 3.24937 37.0697 6.71829L43.788 21.9991L49.8037 6.71829C50.8576 3.02982 49.7598 1.66859 46.4226 1.66859C46.4226 0.746477 46.4226 0.439103 46.4226 0.439103Z" fill="url(#paint1_linear_292_542)"/>
<path d="M5.35086 37.0757L4.50087 38.0086C4.221 37.6458 3.66125 37.3763 3.15333 37.3763C2.55212 37.3763 1.85762 37.6665 1.85762 38.3818C1.85762 39.0555 2.42773 39.2525 3.25699 39.5116C4.20026 39.8019 5.40268 40.2061 5.40268 41.6573C5.40268 43.2329 4.16917 44 2.72834 44C1.77469 44 0.789951 43.6475 0.209473 42.953L1.14238 42.0823C1.50518 42.5799 2.16859 42.8908 2.74907 42.8908C3.37101 42.8908 4.07588 42.5902 4.07588 41.8024C4.07588 41.025 3.30881 40.8281 2.38627 40.5275C1.50518 40.2372 0.530809 39.8122 0.530809 38.444C0.530809 36.9617 1.88871 36.2879 3.21552 36.2879C3.96185 36.2879 4.78074 36.547 5.35086 37.0757Z" fill="#242E49"/>
<path d="M10.7951 39.4702L9.94513 40.2165C9.74818 39.9366 9.32318 39.7293 8.91892 39.7293C7.99638 39.7293 7.55065 40.5482 7.55065 41.3256C7.55065 42.1031 8.01711 42.9219 8.96038 42.9219C9.34391 42.9219 9.76891 42.7665 10.0073 42.4762L10.7847 43.264C10.3701 43.7097 9.69635 43.9585 8.95002 43.9585C7.47809 43.9585 6.25494 42.9841 6.25494 41.3256C6.25494 39.7189 7.46773 38.6927 8.91892 38.6927C9.65489 38.6927 10.3909 38.983 10.7951 39.4702Z" fill="#242E49"/>
<path d="M11.3474 37.1483C11.3474 36.744 11.6791 36.4019 12.1352 36.4019C12.5913 36.4019 12.9437 36.7233 12.9437 37.1483C12.9437 37.5732 12.5913 37.8946 12.1352 37.8946C11.6791 37.8946 11.3474 37.5525 11.3474 37.1483ZM11.5236 43.8134V38.8379H12.7675V43.8134H11.5236Z" fill="#242E49"/>
<path d="M18.9204 41.3878C18.9204 41.5018 18.9204 41.6055 18.91 41.7195H15.1265C15.1783 42.4244 15.821 42.9427 16.5466 42.9427C17.1686 42.9427 17.5832 42.7043 17.8631 42.3L18.6923 42.9634C18.2051 43.6268 17.4899 43.9585 16.557 43.9585C15.0229 43.9585 13.8826 42.9738 13.8826 41.3567C13.8826 39.75 15.0229 38.6927 16.5155 38.6927C17.8942 38.6927 18.9204 39.6049 18.9204 41.3878ZM15.1265 40.8281H17.6765C17.6765 40.1958 17.3137 39.6257 16.5051 39.6257C15.7588 39.6257 15.1783 40.1232 15.1265 40.8281Z" fill="#242E49"/>
<path d="M20.0214 43.8134V38.8379H21.2031V39.636H21.2238C21.4415 39.1385 22.022 38.6927 22.7683 38.6927C24.064 38.6927 24.603 39.6775 24.603 40.7037V43.8134H23.3591V41.0561C23.3591 40.4653 23.2244 39.7293 22.4262 39.7293C21.6384 39.7293 21.2653 40.4134 21.2653 41.0769V43.8134H20.0214Z" fill="#242E49"/>
<path d="M26.1064 39.833H25.2357V38.8379H26.1064V37.397H27.3295V38.8379H28.5734V39.833H27.3295V42.1445C27.3295 42.5902 27.4332 42.9116 27.9826 42.9116C28.1484 42.9116 28.3557 42.8805 28.5112 42.8079L28.5527 43.7823C28.335 43.8652 28.0033 43.917 27.7234 43.917C26.407 43.917 26.1064 43.1085 26.1064 42.1549V39.833Z" fill="#242E49"/>
<path d="M29.0323 37.1483C29.0323 36.744 29.364 36.4019 29.82 36.4019C30.2761 36.4019 30.6286 36.7233 30.6286 37.1483C30.6286 37.5732 30.2761 37.8946 29.82 37.8946C29.364 37.8946 29.0323 37.5525 29.0323 37.1483ZM29.2085 43.8134V38.8379H30.4524V43.8134H29.2085Z" fill="#242E49"/>
<path d="M32.0547 43.8134V39.833H31.1114V38.8379H32.0547V38.1019C32.0547 36.8995 32.5315 35.8525 34.0656 35.8525C34.3455 35.8525 34.501 35.8733 34.6979 35.9251L34.615 36.9824C34.4802 36.9409 34.3144 36.9098 34.1382 36.9098C33.4229 36.9098 33.2985 37.5318 33.2985 38.0293V38.8379H34.4491V39.833H33.2985V43.8134H32.0547Z" fill="#242E49"/>
<path d="M34.9593 37.1483C34.9593 36.744 35.291 36.4019 35.7471 36.4019C36.2032 36.4019 36.5556 36.7233 36.5556 37.1483C36.5556 37.5732 36.2032 37.8946 35.7471 37.8946C35.291 37.8946 34.9593 37.5525 34.9593 37.1483ZM35.1355 43.8134V38.8379H36.3794V43.8134H35.1355Z" fill="#242E49"/>
<path d="M42.0347 39.4702L41.1847 40.2165C40.9878 39.9366 40.5628 39.7293 40.1585 39.7293C39.236 39.7293 38.7903 40.5482 38.7903 41.3256C38.7903 42.1031 39.2567 42.9219 40.2 42.9219C40.5835 42.9219 41.0085 42.7665 41.2469 42.4762L42.0243 43.264C41.6097 43.7097 40.936 43.9585 40.1896 43.9585C38.7177 43.9585 37.4945 42.9841 37.4945 41.3256C37.4945 39.7189 38.7073 38.6927 40.1585 38.6927C40.8945 38.6927 41.6305 38.983 42.0347 39.4702Z" fill="#242E49"/>
<path d="M51.4022 37.4074L50.4071 38.1952C50.0236 37.6665 49.3291 37.4385 48.7382 37.4385C47.2145 37.4385 46.1986 38.6098 46.1986 40.1232C46.1986 41.7299 47.173 42.8287 48.6864 42.8287C49.4742 42.8287 50.0961 42.4866 50.4693 41.9787L51.5163 42.7146C50.8632 43.5335 49.9303 44 48.676 44C46.3852 44 44.7578 42.4037 44.7578 40.1232C44.7578 37.7702 46.4785 36.2879 48.7382 36.2879C49.6815 36.2879 50.8321 36.6403 51.4022 37.4074Z" fill="#242E49"/>
<path d="M53.1363 41.3049C53.1363 42.0823 53.5924 42.9219 54.5771 42.9219C55.5619 42.9219 56.0179 42.0823 56.0179 41.3049C56.0179 40.5275 55.5619 39.7086 54.5771 39.7086C53.5924 39.7086 53.1363 40.5275 53.1363 41.3049ZM51.8717 41.3049C51.8717 39.7293 53.0741 38.6927 54.5771 38.6927C56.0801 38.6927 57.2826 39.7293 57.2826 41.3049C57.2826 42.8701 56.0801 43.9585 54.5771 43.9585C53.0741 43.9585 51.8717 42.8701 51.8717 41.3049Z" fill="#242E49"/>
<defs>
<linearGradient id="paint0_linear_292_542" x1="4" y1="2" x2="50" y2="32" gradientUnits="userSpaceOnUse">
<stop stop-color="#4A8CFD"/>
<stop offset="1" stop-color="#0345CB"/>
</linearGradient>
<linearGradient id="paint1_linear_292_542" x1="4" y1="2" x2="50" y2="32" gradientUnits="userSpaceOnUse">
<stop stop-color="#4A8CFD"/>
<stop offset="1" stop-color="#0345CB"/>
</linearGradient>
</defs>
</svg>
