<svg width="98" height="75" viewBox="0 0 98 75" fill="none" xmlns="http://www.w3.org/2000/svg">
<path d="M29.2819 21.9303C36.4672 25.8223 44.9998 29.7144 43.2783 40.193C41.7065 50.2225 30.1052 54.3391 20.375 53.7403C10.9443 53.1416 1.66321 49.0998 0.241115 42.0642C-1.10614 35.5525 3.3847 30.9868 8.9234 31.5107C13.9382 32.0346 16.8572 36.0015 16.8572 38.8457C13.5639 38.6212 10.121 40.4924 11.094 45.4323C11.7676 48.8753 15.4351 50.7465 20.6744 51.0458C27.4107 51.4201 31.6021 48.1268 32.3506 44.1599C33.4733 37.7979 28.234 35.4776 20.1505 31.361C12.7406 27.469 3.30985 23.2027 3.83378 13.248C4.50741 1.49694 16.0339 -0.374236 23.6683 0.149697C31.9015 0.823318 34.596 4.26629 35.6439 0C36.3175 0 37.1408 0 37.1408 0L38.3384 16.8406H36.0181C33.9972 7.70927 30.7788 3.51782 23.6683 2.8442C19.0278 2.39511 14.4621 4.64053 14.2376 9.13137C13.8633 15.194 23.5935 18.7118 29.2819 21.9303Z" fill="white"/>
<path d="M79.1296 0.748472H97.6168C97.6168 0.748472 97.6168 1.94603 97.6168 2.8442C91.8536 2.8442 89.9076 6.88595 88.1112 11.4516L71.7945 53.1416H68.2019L50.1637 11.4516C47.8434 6.66141 46.9452 2.8442 41.2568 2.8442C41.2568 1.27241 41.2568 0.748472 41.2568 0.748472H67.0791C67.0791 0.748472 67.0791 1.94603 67.0791 2.8442C61.3908 2.8442 60.8668 5.5387 63.1871 11.4516L74.6387 37.4985L84.8928 11.4516C86.6891 5.16446 84.8179 2.8442 79.1296 2.8442C79.1296 1.27241 79.1296 0.748472 79.1296 0.748472Z" fill="white"/>
<path d="M9.1209 63.0849L7.67206 64.6751C7.195 64.0567 6.24089 63.5973 5.37512 63.5973C4.35033 63.5973 3.16652 64.092 3.16652 65.3112C3.16652 66.4597 4.1383 66.7954 5.55181 67.2371C7.15967 67.7318 9.20925 68.4209 9.20925 70.8945C9.20925 73.5802 7.10666 74.8877 4.6507 74.8877C3.02517 74.8877 1.34663 74.2869 0.357178 73.1031L1.94737 71.619C2.56578 72.4671 3.69658 72.9971 4.68603 72.9971C5.74616 72.9971 6.94764 72.4847 6.94764 71.1419C6.94764 69.8167 5.64015 69.481 4.06763 68.9686C2.56578 68.4739 0.904911 67.7495 0.904911 65.4172C0.904911 62.8906 3.21952 61.7421 5.48113 61.7421C6.75328 61.7421 8.14912 62.1838 9.1209 63.0849Z" fill="#FDFDFD"/>
<path d="M18.4009 67.1664L16.952 68.4386C16.6163 67.9615 15.8919 67.6081 15.2028 67.6081C13.6303 67.6081 12.8706 69.004 12.8706 70.3291C12.8706 71.6543 13.6657 73.0501 15.2735 73.0501C15.9273 73.0501 16.6517 72.7851 17.0581 72.2904L18.3832 73.6332C17.6765 74.393 16.528 74.817 15.2558 74.817C12.7469 74.817 10.662 73.1561 10.662 70.3291C10.662 67.5905 12.7292 65.8413 15.2028 65.8413C16.4573 65.8413 17.7118 66.336 18.4009 67.1664Z" fill="#FDFDFD"/>
<path d="M19.3423 63.2086C19.3423 62.5195 19.9077 61.9364 20.6851 61.9364C21.4626 61.9364 22.0633 62.4842 22.0633 63.2086C22.0633 63.933 21.4626 64.4808 20.6851 64.4808C19.9077 64.4808 19.3423 63.8977 19.3423 63.2086ZM19.6427 74.5696V66.0886H21.7629V74.5696H19.6427Z" fill="#FDFDFD"/>
<path d="M32.2507 70.4351C32.2507 70.6295 32.2507 70.8062 32.2331 71.0005H25.784C25.8723 72.202 26.9678 73.0855 28.2046 73.0855C29.2647 73.0855 29.9715 72.6791 30.4485 71.99L31.862 73.1208C31.0316 74.2516 29.8125 74.817 28.2223 74.817C25.6073 74.817 23.6637 73.1385 23.6637 70.3821C23.6637 67.6435 25.6073 65.8413 28.1516 65.8413C30.5015 65.8413 32.2507 67.3961 32.2507 70.4351ZM25.784 69.481H30.1305C30.1305 68.4032 29.5121 67.4314 28.1339 67.4314C26.8618 67.4314 25.8723 68.2795 25.784 69.481Z" fill="#FDFDFD"/>
<path d="M34.1275 74.5696V66.0886H36.1417V67.4491H36.1771C36.5481 66.601 37.5376 65.8413 38.8097 65.8413C41.0183 65.8413 41.9371 67.5198 41.9371 69.269V74.5696H39.8169V69.8697C39.8169 68.8626 39.5872 67.6081 38.2267 67.6081C36.8838 67.6081 36.2478 68.7743 36.2478 69.9051V74.5696H34.1275Z" fill="#FDFDFD"/>
<path d="M44.4996 67.7848H43.0155V66.0886H44.4996V63.6327H46.5846V66.0886H48.7048V67.7848H46.5846V71.725C46.5846 72.4847 46.7612 73.0325 47.6977 73.0325C47.9804 73.0325 48.3338 72.9794 48.5988 72.8558L48.6695 74.5166C48.2984 74.658 47.733 74.7463 47.256 74.7463C45.012 74.7463 44.4996 73.3682 44.4996 71.7426V67.7848Z" fill="#FDFDFD"/>
<path d="M49.4869 63.2086C49.4869 62.5195 50.0523 61.9364 50.8298 61.9364C51.6072 61.9364 52.2079 62.4842 52.2079 63.2086C52.2079 63.933 51.6072 64.4808 50.8298 64.4808C50.0523 64.4808 49.4869 63.8977 49.4869 63.2086ZM49.7873 74.5696V66.0886H51.9076V74.5696H49.7873Z" fill="#FDFDFD"/>
<path d="M54.6388 74.5696V67.7848H53.0309V66.0886H54.6388V64.8341C54.6388 62.7845 55.4515 61 58.0665 61C58.5436 61 58.8086 61.0353 59.1443 61.1237L59.003 62.9259C58.7733 62.8552 58.4906 62.8022 58.1902 62.8022C56.9711 62.8022 56.759 63.8623 56.759 64.7104V66.0886H58.7203V67.7848H56.759V74.5696H54.6388Z" fill="#FDFDFD"/>
<path d="M59.5899 63.2086C59.5899 62.5195 60.1553 61.9364 60.9327 61.9364C61.7102 61.9364 62.3109 62.4842 62.3109 63.2086C62.3109 63.933 61.7102 64.4808 60.9327 64.4808C60.1553 64.4808 59.5899 63.8977 59.5899 63.2086ZM59.8903 74.5696V66.0886H62.0105V74.5696H59.8903Z" fill="#FDFDFD"/>
<path d="M71.6502 67.1664L70.2014 68.4386C69.8657 67.9615 69.1413 67.6081 68.4522 67.6081C66.8797 67.6081 66.1199 69.004 66.1199 70.3291C66.1199 71.6543 66.915 73.0501 68.5229 73.0501C69.1766 73.0501 69.901 72.7851 70.3074 72.2904L71.6326 73.6332C70.9258 74.393 69.7773 74.817 68.5052 74.817C65.9962 74.817 63.9113 73.1561 63.9113 70.3291C63.9113 67.5905 65.9786 65.8413 68.4522 65.8413C69.7067 65.8413 70.9612 66.336 71.6502 67.1664Z" fill="#FDFDFD"/>
<path d="M87.6176 63.6503L85.9214 64.9932C85.2676 64.092 84.0838 63.7033 83.0767 63.7033C80.4794 63.7033 78.7479 65.6999 78.7479 68.2796C78.7479 71.0182 80.4087 72.8911 82.9884 72.8911C84.3312 72.8911 85.3913 72.308 86.0274 71.4423L87.812 72.6968C86.6988 74.0926 85.1086 74.8877 82.9707 74.8877C79.0659 74.8877 76.2919 72.1667 76.2919 68.2796C76.2919 64.2687 79.2249 61.7421 83.0767 61.7421C84.6846 61.7421 86.6458 62.3428 87.6176 63.6503Z" fill="#FDFDFD"/>
<path d="M90.5734 70.2938C90.5734 71.619 91.3508 73.0501 93.0294 73.0501C94.7079 73.0501 95.4853 71.619 95.4853 70.2938C95.4853 68.9686 94.7079 67.5728 93.0294 67.5728C91.3508 67.5728 90.5734 68.9686 90.5734 70.2938ZM88.4178 70.2938C88.4178 67.6081 90.4674 65.8413 93.0294 65.8413C95.5913 65.8413 97.6409 67.6081 97.6409 70.2938C97.6409 72.9618 95.5913 74.817 93.0294 74.817C90.4674 74.817 88.4178 72.9618 88.4178 70.2938Z" fill="#FDFDFD"/>
</svg>
