<svg width="150" height="21" viewBox="0 0 150 21" fill="none" xmlns="http://www.w3.org/2000/svg">
<path d="M93.8 17.2C90 19.2 86.9 18.8 84.5 16.1C82.4 13.7 82.2 9.60004 84.2 6.90004C86.2 4.10004 89.6 3.50003 93.6 5.30003C94.4 4.40003 95.5 4.10004 96.8 4.70004C96.8 9.10004 96.8 13.6 96.8 18.2C95.6 18.1 94.5 18.8 93.8 17.2Z" fill="#2D6794"/>
<path d="M63.6 17.6C63 17 62.6 17.5 62.1 17.8C59 19.3 55.7 18.5 53.6 15.9C51.6 13.4 51.6 9.19999 53.7 6.69999C55.8 4.19999 59 3.49999 62.2 4.99999C62.4 5.09999 62.6 5.19999 62.9 5.29999C63.3 5.09999 63.6 4.79999 64 4.59999C65.4 4.49999 65.9 5.29999 65.9 6.59999C65.9 7.79999 65.8 9.09999 66.2 10.3C66.2 10.6 66.2 11 66.2 11.3C65.9 12 65.9 12.6 66.2 13.3C66.2 13.6 66.2 13.9 66.2 14.2C65.5 15.3 66.7 17 65.1 17.9C64.5 18.2 64.1 17.7 63.6 17.6Z" fill="#2B6694"/>
<path d="M139.4 11.5C139.4 15.5 136.1 18.7 132.1 18.6C128.1 18.6 124.9 15.4 124.9 11.4C124.9 7.20001 128.1 4.20001 132.3 4.20001C136.4 4.30001 139.4 7.40001 139.4 11.5Z" fill="#2D6794"/>
<path d="M112.5 18C111.4 18.3 110.6 18.3 109.5 18C109.5 15.6 109.5 13.1 109.5 10.6C109.4 7.90003 108.7 7.00003 106.7 6.90003C104.6 6.80003 103.3 8.10003 103.2 10.6C103.1 13 103.2 15.4 103.2 17.8C102.3 18.3 101.4 18.1 100.4 18C100.4 13.5 100.4 9.10003 100.4 4.50003C101.5 4.10003 102.6 4.00003 103.5 5.10003C108.7 2.60003 112.3 4.70003 112.5 10.4C112.6 13.1 112.5 15.5 112.5 18Z" fill="#2B6594"/>
<path d="M73.7 18.1C71.8 13.6 69.9 9.30004 68 4.80004C69 4.30004 69.9 4.60004 70.9 4.60004C72.2 7.70004 73.6 10.6 75.1 14.2C76.6 10.7 78 7.70004 79.3 4.70004C80.2 4.30004 81.1 4.60004 82.3 4.50004C80.3 9.20004 78.4 13.7 76.5 18.1C75.5 18.3 74.5 18.3 73.7 18.1Z" fill="#2D6794"/>
<path d="M114.4 6.79998C114.8 5.59998 115 4.19998 116.7 4.29998C116.7 3.19998 116.7 2.29998 116.7 1.49998C117.7 0.79998 118.6 1.29998 119.6 1.19998C119.7 2.29998 119.8 3.19998 119.8 4.09998C120.9 4.89998 122.2 4.09998 123.3 4.69998C123.4 5.59998 122.9 6.19998 122.6 6.89998C121.8 7.49998 120.8 6.99998 119.8 7.59998C119.7 9.99998 119.5 12.6 119.9 14.9C120.9 15.9 121.9 15.3 122.7 15.7C123.1 16.4 122.9 17.2 122.8 17.9C118.7 18.9 116.8 17.4 116.8 13.5C116.8 11.7 116.8 9.79998 116.8 7.99998C116.8 7.79998 116.7 7.69998 116.7 7.59998C116 6.79998 115 7.59998 114.4 6.79998Z" fill="#2B6594"/>
<path d="M37.9 5.00002C38.6 2.40002 40.6 1.30002 43.1 1.00002C45.1 0.800018 47.1 1.00002 49.3 1.20002C45.7 2.20002 45.2 5.50002 43.7 8.00002C41.4 8.80002 38.8 7.40002 37.9 5.00002Z" fill="#33C3F9"/>
<path d="M8.9 18.2C9.2 18.3 9.6 18.3 9.9 18.4C10.3 18.5 10.7 18.4 10.8 18.8C10.9 19.7 10.1 19.8 9.8 20.2C9.6 20.3 9.4 20.4 9.1 20.2C8.8 20.2 8.6 20.4 8.3 20.6C4.1 21.4 1.3 19.9 0.5 16.3C2.4 15 5.5 15.4 7.3 17.2C7.9 17.6 8.3 18.1 8.9 18.2Z" fill="#33C3F9"/>
<path d="M142.1 15.7C141.9 13.1 141.9 10.6 142.1 8.00002C142.5 7.10002 142.2 6.10002 142.6 5.30002C143.2 4.60002 143.9 4.50002 144.6 5.20002C144.7 5.40002 144.7 5.50002 144.8 5.70002C145.3 6.10002 146 6.40002 145.8 7.20002C144.3 10 144.9 13 144.8 15.9C144.7 17.6 144.7 17.6 143.1 17.9C142.1 17.4 142.4 16.4 142.1 15.7Z" fill="#2B6694"/>
<path d="M8.90001 18.2C7.20001 19.4 7.30001 17.5 6.70001 17C4.60001 17.3 2.80001 15.1001 0.700007 16.3001C-0.199993 14.4001 0.600007 12.7 1.30001 11C2.30001 10.7 2.70001 11.5 3.30001 12C4.60001 13 5.90001 14.0001 7.30001 14.8001C7.40001 16.1001 7.80001 17.3 8.90001 18.2Z" fill="#31B8F5"/>
<path d="M21.5 2.20001C23.5 2.70001 24 4.40001 24.5 6.00001C22.6 7.00001 20.5 7.70001 18.6 8.60001C17.7 7.20001 17.2 5.70001 16.6 4.20001C18.2 3.40001 20.2 3.70001 21.5 2.20001Z" fill="#16D089"/>
<path d="M37.9 5C39.5 6.6 41.2 8 43.7 8C42.8 9.2 43.1 10.9 42 11.9C41.6 12.1 41.4 11.9 41.1 11.7C40.3 10.5 38.7 10.4 37.9 9.3C38 9.7 37.9 10 37.7 10.4C36.2 10.9 36.3 9.8 36.3 8.9C36.6 7.7 36.9 6.5 37.7 5.5C37.7 5.4 37.8 5.2 37.9 5Z" fill="#29B3F2"/>
<path d="M2.59999 7.90004C2.79999 7.00004 3.29999 6.20004 3.99999 5.60004C5.69999 6.70004 7.99999 6.70004 9.39999 8.50004C8.79999 10 8.09999 11.6 7.49999 13.1C6.49999 12.2 5.69999 11 4.09999 10.7C2.79999 10.3 2.19999 9.30004 2.59999 7.90004Z" fill="#1B95E3"/>
<path d="M21.5 2.19999C20.9 3.89999 19.2 4.59999 16.5 4.19999C15.7 3.59999 15.3 2.49999 14.3 2.29999C13.6 2.19999 13.1 1.99999 13 1.29999C15.1 0.999991 17.2 1.29999 19.3 1.19999C20.3 0.999993 20.7 1.99999 21.5 2.19999Z" fill="#0DD26F"/>
<path d="M25.3 8C26.2 9.5 26.9 11.1 27.3 12.8C26.3 13.6 26 12.2 25 12.3C23.6 12.6 22.2 13.4 21.1 14.6C20.2 13.4 19.8 12 19.3 10.6C21.2 9.5 23.1 8.3 25.3 8Z" fill="#20CDB3"/>
<path d="M2.60001 7.90002C2.90001 8.60002 3.20001 9.20002 3.40001 9.70002C4.40001 10.7 5.60001 10.3 6.50001 10.8C7.10001 11.5 7.20001 12.3 7.50001 13.2C7.40001 13.8 7.40001 14.3 7.30001 14.9C6.70001 14.9 6.20001 14.9 5.50001 14.9C4.60001 13.1 2.30001 12.7 1.20001 11.1C1.40001 9.80002 1.80001 8.70002 2.60001 7.90002Z" fill="#22A6EC"/>
<path d="M28.7 15.9C29.6 16.7 29.7 18.3 31.1 18.7C31.1 20 29.6 19.4 29.2 20.2C26.7 20.7 24.5 20.4 22.9 18.1C23.1 18 23.1 17.9 23 17.7C23 17.7 22.9 17.7 22.8 17.7C22.5 17.2 22.4 16.8 22.7 16.3C23.1 15.8 23.6 16.1 24 16.3C25.1 17.4 26.6 16.3 27.8 17C28.2 16.7 28.2 16.1 28.7 15.9Z" fill="#42C5ED"/>
<path d="M33.6 14.8C33.7 13.9 34.1 13.1 34.6 12.3C36.9 11.6 38.7 13.1 40.8 13.7C41.1 13.8 41 14.2 40.8 14.5C40.6 15.5 40.3 16.4 39.6 17.1C37.6 16.3 35.5 16.3 33.5 16C33.3 15.7 33.3 15.2 33.6 14.8Z" fill="#1B95E3"/>
<path d="M25.3 8C23.6 9.5 21.6 10.4 19.3 10.5C18.9 9.9 18.5 9.3 18.5 8.6C20 6.8 22.1 6.1 24.4 6C25 6.6 25.2 7.3 25.3 8Z" fill="#19CE9F"/>
<path d="M23.9 16.7C23.6 16.5 23.3 16.4 23 16.2C22.4 16.3 21.9 16.1 21.6 15.7C21.3 15.4 21.1 15 21.1 14.5C21.6 13.9 21.3 13.3 21.2 12.7C23 12.8 24.3 11.6 25.9 11.2C26.6 11.5 26.2 12.9 27.4 12.7C27.8 13.1 27.9 13.6 28 14.1C26.5 14.8 24.7 15 23.9 16.7Z" fill="#24CAC5"/>
<path d="M13 1.19999C13.4 1.49999 13.9 1.89999 14.3 2.19999C13.6 3.39999 12.1 3.79999 11.4 5.09999C9.90001 3.99999 7.90001 3.89999 6.20001 2.99999C8.10001 0.899987 10.5 0.899988 13 1.19999Z" fill="#0D6ECA"/>
<path d="M40.8 14.6C38.9 13.5 36.8 13 34.7 12.4C35 11.2 35.5 10 36.2 9C37.2 8.9 36.2 10.7 37.5 10.4C38.8 10.8 40.1 11 41.4 11.4C41.6 11.6 41.8 11.7 42 11.9C41.7 12.9 41.4 13.8 40.8 14.6Z" fill="#1E9CE5"/>
<path d="M142.1 15.7C143.2 15.9 142.5 17.2 143.4 17.6C144.7 17.5 144.3 16.5 144.3 15.8C144.4 13.4 144.3 11 144.7 8.59999C144.9 7.79999 145.2 7.09999 145.7 6.59999C145.8 6.49999 145.9 6.39999 146 6.29999C147 5.89999 148 5.79999 148.8 6.69999C148.7 7.19999 148.3 7.29999 147.9 7.29999C145.7 7.59999 145 8.89999 145 11C145.1 13.3 145 15.7 145 18C144 18.6 143.1 18.4 142.1 18.2C141.8 17.3 141.9 16.5 142.1 15.7Z" fill="#3D7099"/>
<path d="M33.6 14.8C33.6 15.3 33.6 15.7 33.6 16.2C34.4 17.1 35.1 18 35.3 19.2C35.6 19.3 35.1 19.5 35.3 19.2C36.2 17.9 37.3 17.5 38.8 18.1C38.2 19.1 37.2 19.5 36.2 20C36 20.4 35.7 20.3 35.4 20.2C33.3 20.2 31.2 20.2 29.2 20.2C29.5 19.3 30.6 19.4 31.1 18.7C32.4 17.7 32.7 16.1 33.6 14.8Z" fill="#0D6ECA"/>
<path d="M23.9 16.7C23.9 16.2 23.9 15.8 23.9 15.3C25.2 14.4 26.4 13.7 27.9 14.2C28.5 14.6 28.5 15.3 28.7 15.9C28.5 16.5 28.3 17.1 28.1 17.9C27.4 17 26.7 17.3 26 17.5C25.2 17.7 24.2 18.1 23.9 16.7Z" fill="#28C8D9"/>
<path d="M9.4 8.50002C9.2 8.30002 8.9 7.90002 8.7 7.90002C6.5 8.40002 5.4 6.80002 4 5.60002C4.2 4.80002 4.7 4.30002 5.4 3.90002C7 4.50002 8.8 4.80002 10 6.10002C10.1 6.40002 10.1 6.60002 9.8 6.80002C10 6.80002 10.1 6.80002 10.2 6.90002C10.2 7.60002 9.8 8.00002 9.4 8.50002Z" fill="#1689DA"/>
<path d="M38.9 18.1C37.7 18.5 36.5 18.8 35.2 19.2C34.6 18.2 33.7 17.4 33.6 16.1C35.8 15.1 37.8 15.4 39.5 17.1C39.4 17.3 39.3 17.4 39.2 17.6C39.2 17.8 39.1 18 38.9 18.1Z" fill="#0F7FD7"/>
<path d="M9.90002 7.00002C9.80002 6.00002 9.00002 5.80001 8.20002 5.60001C7.20002 5.20001 6.10002 4.90002 5.40002 3.90002C5.40002 3.80002 5.40003 3.70001 5.60003 3.60001C5.70003 3.40001 5.90002 3.30002 6.00002 3.20002C6.10002 3.10002 6.20002 3.00001 6.30002 3.10001C7.90003 2.60001 9.20003 4.20002 10.6 3.70002C11.4 4.10002 11.3 4.70002 11.4 5.20002C11 5.30002 11.1 5.90001 10.8 6.10001C10.8 6.50001 10.5 6.80001 10.2 7.10001C10.2 7.00001 10 7.00002 9.90002 7.00002Z" fill="#0F7FD7"/>
<path d="M66.2 10.4C64.8 9.10004 65.8 7.30003 65.5 6.10003C65.3 5.00003 64.4 5.20004 64 4.70004C64.7 4.40004 65.4 4.40004 66.2 4.70004C66.5 6.50004 66.4 8.40004 66.2 10.4Z" fill="#3D7099"/>
<path d="M144.6 5.10003C144.1 5.10003 143.5 5.00003 143.1 5.30003C142.3 6.10003 143.4 7.50003 142 8.00003C141.9 6.90003 141.9 5.80003 141.8 4.60003C142.9 4.60003 143.9 3.80003 144.6 5.10003Z" fill="#3D7099"/>
<path d="M145.7 6.50005C145.3 6.30005 144.9 6.00005 144.7 5.50005C146.3 5.20005 147.5 3.30005 149.5 4.40005C149.8 5.00005 149.5 5.50005 149.1 6.00005C147.8 5.20005 146.8 5.90005 145.7 6.50005Z" fill="#3D7099"/>
<path d="M64.5 17.7C65.5 17.6 65.4 16.8 65.5 16.1C65.5 15.4 65.2 14.6 66.2 14.3C66.3 15.5 66.3 16.7 66.4 17.8C65.6 18.5 64.8 18.3 64 18.1C64.1 17.8 64.3 17.8 64.5 17.7Z" fill="#3D7099"/>
<path d="M9.90002 20.1C10.1 19.7 10.4 19.3 10.6 18.9C10.4 18.7 10.2 18.5 9.90002 18.3C11.1 18.2 12.2 18.1 13.3 17.6C13.5 17.6 13.7 17.8 13.7 18C12.7 19.1 11.4 19.9 9.90002 20.1Z" fill="#31B8F5"/>
<path d="M145.7 6.50001C146.2 5.20001 147.4 5.00001 148.6 4.70001C149.3 4.90001 149 5.50001 149.1 5.90001C149 6.10001 148.9 6.30001 148.9 6.50001C147.8 6.60001 146.7 6.60001 145.7 6.50001Z" fill="#2B6694"/>
<path d="M21.6 15.7C22.1 15.7 22.7 15.6 23 16.2C23 16.7 22.9 17.2 22.9 17.7C21.9 17.4 21.7 16.6 21.6 15.7Z" fill="#28C8D9"/>
<path d="M66.2 13.3C65.1 12.6 65.1 12 66.2 11.3C66.4 12 66.4 12.7 66.2 13.3Z" fill="#3D7099"/>
<path d="M13.8 18C13.7 17.9 13.5 17.7 13.4 17.6C13.6 17.2 13.9 17 14.4 17C14.7 17.6 14.2 17.8 13.8 18Z" fill="#85A3BA"/>
<path d="M64.5 17.7C64.3 17.9 64.2 18 64 18.2C63.6 18.2 63.5 18.1 63.5 17.7C63.9 17.1 64.2 17.6 64.5 17.7Z" fill="#2B6594"/>
<path d="M10.9 6.00004C10.9 5.60004 11 5.20004 11.5 5.10004C11.4 5.50004 11.2 5.80004 10.9 6.00004Z" fill="#0D6ECA"/>
<path d="M35.5 20.2C35.8 20.1 36 20.1 36.3 20C36.1 20.4 35.8 20.3 35.5 20.2Z" fill="#42C5ED"/>
<path d="M5.99998 3.20001C5.89998 3.30001 5.69998 3.50001 5.59998 3.60001C5.59998 3.30001 5.69998 3.20001 5.99998 3.20001Z" fill="#0D6ECA"/>
<path d="M22.8 17.7C22.9 17.7 23.1 17.8 23.2 17.8C23.1 17.9 23 18 22.9 18.1C22.8 18 22.8 17.9 22.8 17.7Z" fill="#28C8D9"/>
<path d="M38.9 18.1C39 18 39.2 17.8 39.3 17.7C39.3 17.9 39.2 18.1 38.9 18.1Z" fill="#0D6ECA"/>
<path d="M37.9 5C37.8 5.2 37.7 5.4 37.6 5.6C37.5 5.3 37.6 5.1 37.9 5Z" fill="#33C3F9"/>
<path d="M8.5 20.5C8.8 20.4 9 20.2 9.3 20.1C9.1 20.5 8.8 20.5 8.5 20.5Z" fill="#31B8F5"/>
<path d="M89.9 6.90002C92.5 6.90002 94.1 8.70002 94.1 11.4C94.1 13.9 92.4 15.8 90 15.9C87.5 16 85.7 14.2 85.7 11.4C85.7 8.60002 87.2 7.00002 89.9 6.90002Z" fill="#F6F9FA"/>
<path d="M55.1 11.5C55.1 8.60002 56.5 7.00002 59.1 6.90002C61.7 6.90002 63.4 8.50002 63.5 11.2C63.5 13.8 61.7 15.8 59.4 15.9C56.9 16 55.2 14.2 55.1 11.5Z" fill="#F4F8F8"/>
<path d="M132.3 6.90002C135 6.90002 136.5 8.60002 136.5 11.4C136.5 14 134.6 16 132.1 15.9C129.7 15.8 127.9 13.8 127.9 11.2C127.9 8.70002 129.7 6.90002 132.3 6.90002Z" fill="#F4F8F8"/>
<path d="M41.3 11.4001C40.7 11.6001 40.1 11.7001 39.5 11.9001C38.7 11.5001 38 11.1 37.4 10.5C37.4 10.1 37.3 9.70005 37.7 9.30005C39 9.80005 40.6 9.80005 41.3 11.4001Z" fill="#22A6EC"/>
<path d="M9.90001 7C9.90001 7.1 9.80001 7.2 9.90001 7C9.80001 7.1 9.80001 7.1 9.90001 7Z" fill="#0F7FD7"/>
</svg>
