<svg width="200" height="38" viewBox="0 0 200 38" fill="none" xmlns="http://www.w3.org/2000/svg">
<path d="M0 1.30005C5.1 0.300046 10.2 -0.0999553 15.3 0.900045C17.1 1.20004 18.9 1.80005 20.5 2.60005C27.5 6.20005 27.6 12.5 20.9 17.9C21 18 21 18.3 21.2 18.3C25 20.4 27.6 23.2 26.8 27.8C25.9 32.4 22.5 34.8 18.3 36C12.3 37.8 6.1 37 0 36.2C0 24.6 0 12.9 0 1.30005Z" fill="#073968"/>
<path d="M199.8 36.3C192.8 37.2 185.8 36.4 178.9 36.7C177.3 36.8 176.4 36.4 176.4 34.5C176.4 24 176.4 13.5 176.4 3C176.4 1.3 177.1 0.600001 178.8 0.700001C179.5 0.700001 180.1 0.700001 180.8 0.700001C184.9 0.700001 184.9 0.700001 185 4.7C185 11.2 185 17.7 185 24.2C185 29.3 184.4 28.9 189.9 28.9C192.1 28.9 194.2 29.1 196.4 28.8C197.9 28.7 198.9 29.4 199.9 30.2C199.8 32.3 199.8 34.3 199.8 36.3Z" fill="#073968"/>
<path d="M148.3 0.300003C150.7 0.100003 152.8 0.500005 154.9 1.2C158.6 2.5 158.7 2.7 157.5 6.5C156.4 10.2 156.4 10.2 152.8 8.7C151.1 8 149.3 7.40001 147.5 7.60001C146.2 7.80001 144.8 8.2 144.4 9.7C144 11.2 144.8 12.3 146 13C148.2 14.2 150.5 15.1 152.7 16.3C156 18.1 158.7 20.4 159 24.6C159.5 30.9 155.7 35.7 149.1 36.9C143.7 37.9 138.9 36.1 134.3 33.8C133.3 33.3 132.6 32.7 133.6 31.5C133.8 31.2 134 30.9 134.1 30.6C136.3 26.3 136.3 26.4 140.9 28C142.9 28.7 145 29.2 147.3 29C148.8 28.9 149.8 28.2 150.2 26.7C150.5 25.4 150 24.3 149 23.6C147.9 22.8 146.7 22.2 145.6 21.6C144.1 20.8 142.6 20.3 141.1 19.4C136.5 16.6 134.7 12.8 135.7 8.10001C136.7 3.80001 140.5 0.6 145.4 0C146.5 0.2 147.5 0.300003 148.3 0.300003Z" fill="#073968"/>
<path d="M170.9 18.7C170.9 23.5 170.7 28.4 171 33.2C171.2 36.2 170 37 167.3 36.7C166.5 36.6 165.6 36.7 164.8 36.7C163.2 36.8 162.3 36.3 162.3 34.5C162.4 24 162.3 13.5 162.3 3.00004C162.3 1.20004 163.1 0.700041 164.8 0.700041C165.6 0.700041 166.5 0.800041 167.3 0.700041C170 0.400041 171.1 1.30004 171 4.20004C170.7 9.00004 170.9 13.9 170.9 18.7Z" fill="#073968"/>
<path d="M7.99999 24.3C7.69999 22.7 8.09999 20.9 11.6 21.2C15.3 21.5 17.8 23.1 17.8 25.6C17.8 28.1 15 29.8 11.1 30.1C6.89999 30.3 8.29999 27.4 7.99999 24.3Z" fill="#FDFDFD"/>
<path d="M8.00002 10.4C7.90002 9.19996 7.80002 7.29995 10.9 7.49995C14.4 7.59995 16.8 8.89996 17 11.3C17.2 14 14.8 15.4 10.9 15.6C7.30002 15.7 8.20002 13.3 8.00002 10.4Z" fill="#FDFDFD"/>
<path fill-rule="evenodd" clip-rule="evenodd" d="M65.7 18.8C65.7 7.80005 58.3 0.300049 47.3 0.300049C36.2 0.300049 28.7 7.70005 28.7 18.6001C28.6 29.6001 36.1 37.2001 47 37.2001C57.9 37.2001 65.6 29.6 65.7 18.8ZM39.1 12.3C38 14.2 37.6 16.3 37.7 18.2C37.7 24.2 40.2 28.1 44.5 29.3C48.2 30.5 52.2 29 54.4 25.6C56.9 21.7 57 17.5 55.3 13.3C53.9 9.8 51.1 7.7 47.3 7.6C43.8 7.5 40.9 9.2 39.1 12.3Z" fill="#073968"/>
<path fill-rule="evenodd" clip-rule="evenodd" d="M96.9 18.4C96.7 29.4 104.2 37.1001 115 37.2001C125.9 37.3 133.7 29.8001 133.9 19.1001C134 7.90005 126.7 0.300049 115.8 0.300049C104.7 0.300049 97 7.60005 96.9 18.4ZM110 9.39995C107.1 11.8 105.9 14.9 105.9 19.1C105.931 19.3153 105.952 19.5781 105.976 19.8677C106.028 20.5195 106.092 21.3076 106.3 22C107.6 27.2999 112 30.4 116.8 29.5C122.2 28.5 125.5 23.2999 124.7 17C124.1 11.3 119.9 7.19995 115.1 7.49995C113.2 7.69995 111.5 8.19995 110 9.39995Z" fill="#073968"/>
<path fill-rule="evenodd" clip-rule="evenodd" d="M94.866 36.6752C95.6657 36.6871 96.5314 36.7 97.5 36.7C96.7818 35.5328 96.1083 34.4194 95.4608 33.349C93.9449 30.8427 92.5715 28.5723 91.1 26.4C89.6 24.2 89.2 22.9 91.5 20.6C98.4 13.6 95.3 3.8 85.9 1.2C82.265 0.172707 78.6299 0.331881 74.9456 0.493215C73.9675 0.536043 72.986 0.579023 72 0.600001C69.5 0.700001 68.7 1.7 68.7 4.3C68.8501 11.2781 68.8312 18.3125 68.8125 25.3188C68.8062 27.65 68.8 29.9781 68.8 32.3C68.8 36.6 68.8 36.6 73.1 36.6C77.1 36.6 77.2 36.6 77.2 32.5C77.2 32.0703 77.1891 31.6297 77.1781 31.1854C77.1558 30.2854 77.1331 29.3703 77.2 28.5C77.2249 28.2016 77.1941 27.8724 77.163 27.5398C77.0691 26.535 76.9724 25.5005 78.4 25.2C80.3 24.9 82 25.1 82.9 27.3C83.4 28.45 84 29.55 84.6 30.65C85.2 31.75 85.8 32.85 86.3 34C87.2 36.1 88.7 36.9 91 36.7C92.2184 36.6359 93.4367 36.654 94.866 36.6752ZM77.1687 12.1655C77.1842 12.5398 77.2 12.9209 77.2 13.3C77.3385 13.771 77.2775 14.3724 77.2146 14.9917C77.0506 16.6076 76.8744 18.3446 80.2 18.2C83.9 18 86.3 16 86.3 13C86.3 10 84.2 8.40003 80.6 8.10003C76.9898 7.84216 77.0739 9.87478 77.1687 12.1655Z" fill="#073968"/>
</svg>
