<svg width="188" height="69" viewBox="0 0 188 69" fill="none" xmlns="http://www.w3.org/2000/svg">
<path d="M14.1254 54.9709C17.9254 52.8709 21.2254 51.0709 24.5254 49.2709C27.6254 54.0709 27.1254 59.4709 23.1254 63.6709C19.0254 68.0709 12.9254 69.2709 7.62537 66.7709C2.12537 64.1709 -0.874636 58.1709 0.225364 52.3709C0.725364 49.6709 2.02537 47.4709 3.62537 45.2709C10.1254 36.2709 10.1254 31.8709 3.72536 22.9709C-1.37464 15.9709 -1.17463 8.77091 4.12537 3.67091C8.72537 -0.729094 15.8254 -1.22909 21.0254 2.47091C26.2254 6.17091 27.7254 12.4709 24.7254 18.8709C23.0254 17.9709 21.3254 16.9709 19.6254 16.0709C17.9254 15.1709 16.2254 14.1709 14.0254 12.9709C14.1254 27.0709 14.1254 40.6709 14.1254 54.9709Z" fill="#29A8D4"/>
<path d="M39.2253 27.0709C44.6253 19.9709 52.8253 18.8709 58.9253 24.1709C64.7253 29.0709 65.0253 37.7709 59.8253 43.1709C54.2253 48.9709 43.5253 48.4709 39.3253 41.2709C42.3253 38.1709 46.7253 37.1709 50.1253 34.2709C47.2253 30.8709 42.7253 29.9709 39.2253 27.0709Z" fill="#29A8D4"/>
<path d="M79.2254 33.7709C79.2254 32.4709 78.9254 31.0709 79.3254 29.8709C80.1254 27.3709 76.8254 23.0709 81.9254 22.3709C90.7254 21.1709 95.1254 23.3709 96.1254 29.2709C96.5254 31.5709 96.5254 33.8709 96.4254 36.1709C96.0254 43.9709 87.7254 48.7709 80.5254 45.5709C79.0254 44.8709 79.3254 43.7709 79.2254 42.6709C79.1254 39.6709 79.2254 36.6709 79.2254 33.7709ZM83.4254 33.9709C83.4254 35.2709 83.3254 36.6709 83.4254 37.9709C83.6254 39.5709 82.5254 41.8709 85.6254 41.9709C88.4254 41.9709 91.1254 41.9709 91.8254 38.5709C92.4254 35.4709 92.5254 32.2709 91.7254 29.1709C90.8254 26.0709 88.3254 26.0709 85.7254 26.0709C82.6254 26.0709 83.6254 28.3709 83.5254 29.9709C83.3254 31.2709 83.4254 32.6709 83.4254 33.9709Z" fill="#29A8D4"/>
<path d="M183.325 36.3709C183.325 32.7709 183.325 29.1709 183.325 25.4709C183.325 24.0709 182.825 22.1709 185.325 22.2709C187.225 22.3709 187.125 23.7709 187.125 25.1709C187.125 30.9709 187.125 36.7709 187.125 42.5709C187.125 43.6709 187.325 45.0709 185.925 45.4709C184.325 45.8709 183.025 45.3709 182.125 43.8709C179.625 39.5709 177.025 35.3709 173.425 31.2709C173.425 35.0709 173.425 38.8709 173.425 42.6709C173.425 43.9709 173.525 45.4709 171.525 45.4709C169.525 45.5709 169.525 44.1709 169.525 42.7709C169.525 36.9709 169.525 31.1709 169.525 25.3709C169.525 24.1709 169.025 22.5709 171.025 22.2709C172.725 21.9709 173.825 22.6709 174.625 24.1709C177.025 28.3709 179.625 32.5709 182.125 36.7709C182.525 36.6709 182.925 36.5709 183.325 36.3709Z" fill="#29A8D4"/>
<path d="M101.825 31.4709C101.825 29.6709 101.725 27.8709 101.825 25.9709C101.925 24.4709 101.225 22.3709 103.825 22.2709C106.625 22.1709 105.925 24.2709 105.925 25.7709C106.025 29.3709 105.825 33.0709 106.025 36.6709C106.125 39.4709 107.025 42.0709 110.525 42.0709C114.025 42.0709 114.925 39.6709 115.025 36.7709C115.125 32.9709 115.025 29.1709 115.025 25.3709C115.025 23.8709 114.825 22.2709 117.125 22.2709C119.325 22.3709 119.225 23.9709 119.225 25.4709C119.225 29.2709 119.325 33.0709 119.225 36.8709C119.025 42.8709 115.825 45.9709 110.325 45.8709C105.025 45.7709 102.125 42.6709 101.825 36.9709C101.825 35.1709 101.825 33.3709 101.825 31.4709Z" fill="#29A8D4"/>
<path d="M83.4254 33.9709C83.4254 32.6709 83.3254 31.2709 83.4254 29.9709C83.6254 28.3709 82.5254 26.0709 85.6254 26.0709C88.2254 26.0709 90.8254 26.0709 91.6254 29.1709C92.4254 32.2709 92.3254 35.4709 91.7254 38.5709C91.0254 42.0709 88.2254 42.0709 85.5254 41.9709C82.4254 41.8709 83.5254 39.5709 83.3254 37.9709C83.2254 36.5709 83.4254 35.2709 83.4254 33.9709Z" fill="#FEFEFE"/>
<path fill-rule="evenodd" clip-rule="evenodd" d="M136.825 43.0709C137.825 45.5709 139.525 46.0709 142.325 45.1709C141.925 44.0709 141.625 43.2709 141.225 42.5709C141.071 42.2948 140.915 42.0233 140.762 41.7553C139.024 38.7231 137.542 36.138 141.125 32.3709C144.125 29.2709 141.325 23.7709 136.925 22.7709C135.337 22.4179 133.679 22.411 132.014 22.4041C130.848 22.3993 129.678 22.3944 128.525 22.2709C125.925 21.9709 125.125 23.1709 125.225 25.6709C125.34 28.7572 125.323 31.8762 125.307 34.9905C125.295 37.3252 125.283 39.6572 125.325 41.9709C125.325 42.2371 125.293 42.5322 125.259 42.8357C125.117 44.128 124.958 45.5709 127.225 45.5709C129.453 45.6534 129.434 44.307 129.416 42.9349C129.412 42.6436 129.408 42.3511 129.425 42.0709C129.425 41.8078 129.415 41.534 129.404 41.2564C129.381 40.6898 129.358 40.1078 129.425 39.5709C129.425 39.3898 129.416 39.1996 129.407 39.0057C129.355 37.9153 129.297 36.7105 130.825 36.3709C132.525 35.9709 133.725 36.5709 134.425 38.1709C134.775 39.0209 135.2 39.8209 135.625 40.6209C136.05 41.4209 136.475 42.2209 136.825 43.0709ZM131.801 32.8644L131.725 32.8709C130.918 32.9951 130.188 32.7722 129.75 31.9148C129.455 31.3865 129.264 30.6229 129.225 29.5709C129.225 27.0594 129.831 25.9323 132.25 25.9481C132.46 25.9467 132.685 25.9544 132.925 25.9709C133.12 25.9871 133.315 26.0014 133.51 26.0156C135.714 26.1764 137.825 26.3304 137.825 29.2709C137.825 31.7713 136.134 32.3851 133.643 32.6864C133.068 32.7559 132.45 32.8088 131.801 32.8644Z" fill="#29A8D4"/>
<path fill-rule="evenodd" clip-rule="evenodd" d="M160.276 43.0648C161.48 44.7163 162.593 46.2439 165.525 45.0709C163.025 38.0709 160.625 31.1709 158.225 24.2709C157.825 23.0709 157.325 22.1709 155.825 22.1709C154.525 22.1709 153.625 22.4709 153.125 23.8709C150.725 30.9709 148.225 37.9709 145.625 45.1709C148.486 46.0344 149.715 44.5679 151.026 43.0034C152.145 41.6689 153.324 40.263 155.625 40.1709C158.1 40.0775 159.223 41.6187 160.276 43.0648ZM155.425 29.4209C155.6 29.3959 155.775 29.3709 155.925 29.3709C156.325 30.5709 156.75 31.7459 157.175 32.9209C157.6 34.0959 158.025 35.2709 158.425 36.4709C158.416 36.4755 158.406 36.48 158.396 36.4845C158.406 36.5133 158.416 36.5421 158.425 36.5709C156.425 37.4709 154.825 37.2709 152.725 36.8709C152.735 36.8395 152.745 36.808 152.755 36.7766C152.745 36.7747 152.735 36.7728 152.725 36.7709C153.122 35.3533 153.551 33.9678 153.976 32.5963C154.3 31.5491 154.622 30.51 154.925 29.4709C155.075 29.4709 155.25 29.4459 155.425 29.4209Z" fill="#29A8D4"/>
</svg>
