<svg width="259" height="115" viewBox="0 0 259 115" fill="none" xmlns="http://www.w3.org/2000/svg">
<path d="M0 28.0978C1.2 27.3978 0.9 26.0978 1.2 24.9978C5.3 9.29785 19.8 -0.902151 36.2 0.497849C37.4 3.99785 36.4 7.59785 36.7 11.3978C33.3 12.1978 30.1 11.6978 27.1 12.6978C18.7 15.4978 13.6 21.1978 12.2 29.7978C10.8 38.1978 13.2 46.0978 20.7 50.1978C27.8 54.0978 25.8 59.2978 26 64.7978C14.3 63.2978 4 53.2978 1.1 41.1978C0.9 40.0978 1.3 38.7978 0 38.0978C0 34.6978 0 31.3978 0 28.0978Z" fill="#0872B9"/>
<path d="M259 22.0978C258.2 25.2978 256.7 26.6978 252.9 26.3978C246.4 25.8978 242.2 30.3978 242 37.2978C241.8 44.7978 241.6 52.2978 242 59.7978C242.2 64.0978 241.1 65.9978 236.5 65.2978C234.8 64.9978 232.9 65.2978 230.6 65.2978C230.9 53.7978 229.6 42.5978 231.2 31.5978C233.1 18.9978 245.1 13.0978 259 17.0978C259 18.6978 259 20.3978 259 22.0978Z" fill="#212851"/>
<path d="M130.3 64.9978C126.3 64.9978 123 64.9978 119.3 64.9978C119.3 48.9978 119.3 33.0978 119.3 16.7978C123.1 16.9978 127.3 14.4978 130.4 18.9978C136 15.4978 142.2 14.6978 148.6 15.9978C156.2 17.4978 161.9 23.0978 162.9 30.7978C164.4 41.9978 163.1 53.3978 163.6 64.8978C159.6 64.8978 156.2 64.8978 152.1 64.8978C152.1 57.7978 152.1 50.6978 152.1 43.5978C152.1 41.3978 152.1 39.2978 152.1 37.0978C152 29.6978 149.2 26.2978 142.9 26.0978C135.5 25.7978 130.6 29.9978 130.4 37.1978C130.2 44.8978 130.3 52.4978 130.3 60.1978C130.3 61.6978 130.3 63.0978 130.3 64.9978Z" fill="#212851"/>
<path d="M87.4 0.597845C87.5 1.49785 87.5 2.49785 87.6 3.49785C87.7 11.0978 87.7 11.0978 80.1 11.8978C72 12.6978 66 18.6978 65.2 27.1978C70.5 27.1978 75.8 27.2978 81 27.0978C84 26.9978 85.4 27.8978 85 30.9978C84.9 32.0978 84.9 33.2978 85 34.4978C85.3 37.2978 84.3 38.3978 81.4 38.2978C76.1 38.0978 70.8 38.1978 64.9 38.1978C64.9 45.7978 64.7 53.0978 65 60.2978C65.2 64.1978 64 65.7978 60 65.1978C57.7 64.8978 55.4 65.6978 53 64.6978C53 51.0978 52 37.2978 53.3 23.8978C54.7 9.49784 68.9 -2.90215 87.4 0.597845Z" fill="#212851"/>
<path d="M96.2 16.6978C99.8 16.6978 103.1 16.6978 106.8 16.6978C106.8 32.7978 106.8 48.7978 106.8 64.9978C103.3 64.9978 99.9 64.9978 96.2 64.9978C96.2 48.9978 96.2 33.0978 96.2 16.6978Z" fill="#212851"/>
<path d="M251 104.098C250.6 101.698 248.8 101.698 247.2 101.198C245.3 100.598 243.3 100.098 241.6 99.0978C237.6 96.7978 237.7 91.7978 241.6 89.2978C245.3 86.8978 250.8 87.6979 255.4 91.3979C254.3 93.3979 253.5 95.0978 250.6 93.2978C248.5 91.9978 246 91.5978 243.6 93.7978C245.5 96.2978 248.4 96.0978 250.7 97.0978C253.5 98.2978 256.4 99.4978 256.1 103.298C255.8 107.098 253.4 108.698 250.1 109.698C246.4 110.798 243.2 109.598 240.1 107.998C238.9 107.298 237.9 106.398 239.1 104.798C240 103.598 240.7 102.898 242.3 103.898C245.1 105.598 248.1 106.198 251 104.098Z" fill="#212851"/>
<path d="M216 88.2978C211.9 96.6978 207.9 104.698 204 112.698C202.7 115.298 200.6 114.698 198.4 114.198C203.9 106.498 199.6 100.198 196.1 93.6979C195.3 92.0979 194.6 90.3979 193.8 88.6979C198.6 87.5979 198.6 87.5978 200.6 91.5978C201.9 94.0978 203.1 96.5978 204.4 99.0978C209.1 96.4978 206.8 86.8978 216 88.2978Z" fill="#212851"/>
<path d="M176.3 105.498C170.7 111.098 164.4 111.498 159.4 106.598C155.2 102.398 155.1 95.6978 159.2 91.3978C163.9 86.4978 170.3 86.6978 176.1 92.2978C174.5 93.6978 173.7 96.1979 170.8 93.6979C168.1 91.3979 165.1 91.9978 162.8 94.5978C160.4 97.2978 160.5 100.398 162.9 103.198C165.2 105.898 168.3 106.198 170.9 104.298C173.5 102.298 174.8 103.198 176.3 105.498Z" fill="#212851"/>
<path d="M185.4 83.6978C185.5 85.0978 185.7 86.4978 185.9 87.9978C187.8 88.0978 189.4 88.1978 191 88.2978C193.4 94.1978 188.5 92.4978 186 93.0978C185.1 95.6978 185.6 98.1978 185.6 100.598C185.6 103.198 186.4 105.298 189.5 105.198C191.4 105.098 192.3 105.898 192.3 107.798C192.4 110.198 190.4 109.798 189.1 109.898C184.5 110.098 181.3 106.998 180.7 102.498C180.2 98.7978 182.5 94.1978 177.8 91.5978C177.6 91.4978 177.6 90.5979 177.7 90.1979C177.8 89.5979 178.1 88.4978 178.4 88.4978C181.9 88.2978 179.7 80.9978 185.4 83.6978Z" fill="#212851"/>
<path d="M218.3 82.3979C220 82.0979 221.3 81.7978 222.7 82.5978C222.8 82.9978 223.1 83.4979 223.1 83.8979C223.1 88.4979 222.9 93.1978 223.2 97.7978C223.3 100.498 221.6 104.098 225.9 105.598C226.6 105.798 226.3 107.698 225.8 108.998C223.5 108.998 221.1 108.998 218.4 108.998C218.3 100.198 218.3 91.4979 218.3 82.3979Z" fill="#212851"/>
<path d="M36.8 37.9978C32.9 37.9978 29.3 37.9978 25.4 37.9978C25.2 34.3978 23.5 30.0978 26.1 27.7978C28.2 25.8978 33.2 26.0978 35.5 27.6978C38.7 29.8978 36.3 34.2978 36.8 37.9978Z" fill="#212851"/>
<path d="M101.1 11.0978C98.2 10.7978 95.3 9.79785 95 5.79785C94.8 2.39785 97.5 -0.00215452 101.6 0.0978455C105.1 0.197845 107.9 1.29785 108.2 5.29785C108.4 8.69785 105.6 11.0978 101.1 11.0978Z" fill="#212851"/>
<path d="M111.2 113.598C117.2 111.998 116.1 108.598 114.6 104.698C113.2 101.198 111.3 97.6978 111.6 93.5978C115.4 96.4978 114.9 101.498 117.6 104.998C119.8 101.298 119.9 96.7979 122.7 93.1979C124.7 95.0979 123.4 96.4978 123 97.5978C121.5 102.098 119.8 106.598 118 111.098C116.4 114.598 115.6 114.898 111.2 113.598Z" fill="#212851"/>
<path d="M229.8 88.3978C232.9 87.5978 234.6 87.8978 234.5 91.3978C234.3 97.1978 234.5 102.998 234.5 108.598C232.9 109.598 231.5 109.398 229.9 108.898C229.8 102.098 229.8 95.3978 229.8 88.3978Z" fill="#212851"/>
<path d="M235 83.3979C234.7 85.1979 233.4 85.8978 231.8 85.7978C230.4 85.7978 229.2 84.9979 229.2 83.3979C229.2 81.7979 230.4 81.0979 231.8 80.9979C233.5 80.8979 234.6 81.6979 235 83.3979Z" fill="#212851"/>
<path fill-rule="evenodd" clip-rule="evenodd" d="M217.121 16.5474C214.45 16.122 211.638 15.6743 209.8 19.4978C196.6 12.9978 183.8 15.0978 175.8 25.1978C168.3 34.4978 168.3 47.3978 176 56.9978C182.3 64.7978 195.1 70.6978 209.9 62.4978C210.682 65.768 212.778 65.551 214.895 65.3319C215.755 65.2428 216.619 65.1533 217.4 65.2978C221 65.8978 221.9 64.3978 221.9 60.8978C221.786 53.3555 221.802 45.8458 221.818 38.3314C221.831 32.6948 221.843 27.0555 221.8 21.3978C221.8 21.0328 221.86 20.6032 221.922 20.1556C222.151 18.5186 222.413 16.6408 219.9 16.7978C219.026 16.8508 218.083 16.7005 217.121 16.5474ZM195.7 55.8978C203.3 56.0978 210 49.1978 210.1 41.0978C210.2 32.8978 203.8 26.0978 196 26.0978C188 26.0978 181.8 32.3978 181.7 40.7978C181.6 48.9978 187.8 55.6978 195.7 55.8978Z" fill="#212851"/>
<path fill-rule="evenodd" clip-rule="evenodd" d="M149.071 109.373C150.614 109.3 152.157 109.226 153.7 109.098V87.9978C149.9 88.3978 146.5 88.2978 143 87.9978C136.8 87.3978 131.8 92.3978 131.6 98.4978C131.5 104.798 136.7 110.398 142.9 109.798C144.957 109.569 147.014 109.471 149.071 109.373ZM142.6 105.298C146.1 105.298 148.8 102.398 148.8 98.8979C148.8 95.3979 146 92.3979 142.6 92.4979C139.4 92.3979 136.4 95.4979 136.4 98.8979C136.4 102.398 139.3 105.298 142.6 105.298Z" fill="#212851"/>
<path fill-rule="evenodd" clip-rule="evenodd" d="M96.3 87.5978V109.998C97.8862 107.486 99.2976 108.164 100.736 108.854C101.475 109.208 102.22 109.566 103 109.498C105.6 109.198 107.5 108.198 108.6 105.998C109.8 103.698 109.9 101.198 109.2 98.6978C107.9 93.7978 104.8 92.6978 98.3 94.5978C98.0638 93.9229 98.0781 93.191 98.0931 92.4214C98.1227 90.9105 98.1551 89.2542 96.3 87.5978ZM102.6 107.098C106.4 107.198 107 104.298 107.2 101.598C107 98.3979 106.3 95.7979 102.9 95.6979C99.1 95.5979 98.3 98.4978 98.3 101.498C98.3 104.398 99.2 107.098 102.6 107.098Z" fill="#212851"/>
</svg>
