<svg width="229" height="67" viewBox="0 0 229 67" fill="none" xmlns="http://www.w3.org/2000/svg">
<path d="M0 26.9999C3.2 26.4999 5.7 27.5999 7.7 30.1999C8.8 31.5999 10.2 32.8999 11.5 34.2999C13.8 33.2999 15.2 31.3999 16.7 29.6999C18.6 27.5999 20.7 26.2999 23.8 27.2999C23.8 31.1999 23.8 35.2999 23.8 39.6999C22.5 40.4999 20.9 39.6999 19 40.1999C19 37.2999 19 34.6999 19 31.8999C16 33.9999 14.3 36.6999 12.7 38.7999C10.1 36.1999 7.7 33.7999 4.8 30.8999C3.5 34.4999 4.5 37.0999 3.9 39.6999C2.6 40.2999 1.3 39.7999 0 39.9999C0 35.6999 0 31.2999 0 26.9999Z" fill="#393432"/>
<path d="M30 42.4999C30 37.5999 30.2 32.6999 29.9 27.8999C29.8 25.4999 30.9 23.9999 32.6 23.0999C36.6 20.9999 40.6 18.8999 44.3 16.2999C44.9 15.8999 45.4 16.0999 46 16.4999C49.6 18.6999 53.1 21.0999 56.8 22.9999C59.2 24.1999 60.1 25.6999 60 28.2999C59.9 32.5999 59.8 36.9999 60 41.2999C60.1 42.9999 58.9 42.8999 58.1 43.4999C55.2 45.6999 52 47.2999 48.9 49.0999C47.6 49.8999 46.1 51.0999 44.8 50.9999C43.1 50.7999 41.4 49.5999 39.9 48.4999C36.9 46.1999 33.6 44.4999 30 42.4999Z" fill="#D92B21"/>
<path d="M15.1 22.8999C17.6 14.7999 21.7 9.19995 29.1 4.99995C31.3 3.79995 33.3 2.49995 35.7 1.69995C42 -0.200051 46.4 -5.10216e-05 52.6 0.899949C60.8 1.99995 66.5 6.69995 71.8 12.3999C74.1 14.7999 75.3 17.8999 76.9 20.7999C77.2 21.2999 77.7 22.8999 76 23.0999C75.2 23.1999 74 23.5999 73.9 21.8999C73.8 18.9999 71.7 16.9999 70.1 14.9999C67.6 11.7999 64.7 8.89995 61.1 6.79995C59.2 5.69995 57.1 4.69995 55.2 4.19995C43.6 1.49995 34.4 2.79995 24.4 11.9999C21.3 14.7999 19.7 18.3999 18 21.8999C17.2 23.8999 16.2 22.5999 15.1 22.8999Z" fill="#393432"/>
<path d="M14.8 42.9999C16.2 43.2999 17.2 41.9999 18.1 44.1999C19.9 48.6999 22.5 52.5999 26.3 55.7999C31.4 60.1999 37 62.9999 43.8 62.9999C45.1 62.9999 46.5 62.9999 47.8 62.9999C54.9 62.8999 61 60.3999 66.1 55.3999C68.2 53.3999 70.3 51.3999 71.8 48.7999C72.8 47.1999 73.9 45.6999 74 43.6999C74.1 42.5999 75.3 43.0999 76 42.9999C77 42.9999 76.9 43.6999 76.9 44.3999C76.9 45.0999 76.6 45.5999 76.3 46.1999C72 55.0999 65.6 61.7999 55.8 64.5999C43.6 67.9999 32.6 65.7999 23.3 56.7999C21.4 54.9999 19.5 53.2999 18.3 50.8999C17.8 49.9999 17.1 49.0999 16.7 48.0999C16 46.5999 15.5 44.9999 14.8 42.9999Z" fill="#393432"/>
<path d="M128.9 36.8C128.9 36.1 129 35.7 129 35.2C128.9 34 129.7 33.7 130.5 34.1C131.1 34.3 131.4 34.9 132.1 35.1C134.2 35.6 134.5 36.1 133.6 37.8C133.2 38.5 133.3 39.4 132.5 40C127.5 40 122.3 40 117.2 40C114.7 40 114 39.3 114 36.9C113.9 34.4 114.1 31.9 114 29.4C114 28.2 115.2 27.1 115.5 27.2C117.3 27.7 118.4 25.9 120.1 26C122.7 26.2 125.4 25.8 128.1 26.1C130.3 26.3 132.7 26.5 133.7 29.2C134.1 30.2 133.5 31.9 132.6 31.9C131.3 31.8 129.2 33.4 128.9 30.4C128.8 29.8 128.1 30 127.6 30C124.8 30 122 30 119.2 30C119.2 32.4 119.2 34.5 119.2 36.8C122.3 36.8 125.4 36.8 128.9 36.8Z" fill="#393432"/>
<path d="M206.1 40.1C206.1 35.6 206.1 31.5 206.1 27.4C209.1 26.4 211.2 27.3 213 29.6C214.3 31.3 215.9 32.8 217.6 34.6C220 32.9 221.8 30.9 223.5 29C225 27.4 226.5 26.6 228.8 27.3C228.8 31.4 228.8 35.5 228.8 39.7C227.7 40.3 226.5 40.1 224.9 39.8C224.9 37.2 224.9 34.6 224.9 31.3C222.8 33.5 221.2 35.2 219.6 36.9C218 38.5 217.1 38.5 215.5 37C213.8 35.4 212.2 33.7 210.4 31.9C209.5 34.5 210.4 37.2 209.9 39.7C208.8 40.3 207.6 39.9 206.1 40.1Z" fill="#393432"/>
<path d="M189.9 31.8C189.9 33.1 189.9 33.9 189.9 35C188.5 35 187.2 34.8 185.9 35C184.6 35.2 182.1 34 182.2 35.8C182.2 37.9 184.8 36.8 186.2 36.9C189.3 37.1 192.5 37 195.5 37C196.4 37.8 195.7 38.7 196.3 39.8C189.8 40.2 183.6 39.9 177.2 40.1C177.2 35.8 177.2 31.7 177.2 27.1C183.2 27.1 189.3 27.1 195.4 27.1C195.9 27.1 196.1 27.6 196.1 28.2C196 28.8 195.8 29.1 195.2 29.1C192.7 29.1 190.2 29.1 187.7 29.1C185.9 29.1 184.1 29.1 182.2 29.1C182.2 30.2 182.2 31 182.2 31.9C184.6 31.8 187 31.8 189.9 31.8Z" fill="#393432"/>
<path d="M161 31.7999C161 30.1999 161 28.6999 161 27.0999C162.6 27.0999 164.1 27.0999 165.8 27.0999C165.8 31.1999 165.8 35.4999 165.8 39.7999C164.3 39.7999 162.9 39.7999 161.3 39.7999C160.4 38.2999 161.6 36.5999 160.6 34.9999C156.9 34.9999 153.1 34.9999 149.1 34.9999C149.1 36.4999 149.1 37.9999 149.1 39.2999C147.8 40.4999 146.4 39.4999 145.1 40.0999C145.1 35.5999 145.1 31.4999 145.1 27.2999C146.3 26.3999 147.5 27.2999 148.9 26.7999C148.9 28.6999 148.9 30.1999 148.9 31.7999C152.9 31.7999 156.7 31.7999 161 31.7999Z" fill="#393432"/>
<path d="M99.5 39.8999C97.2 39.8999 95.8 39.8999 94.3 39.8999C94.2 39.4999 93.9 39.1999 94 38.8999C94.4 35.0999 93.3 32.3999 89.5 30.7999C87.9 30.0999 86.5 28.3999 85.5 26.2999C88.5 25.5999 90.7 26.0999 92.5 27.9999C93.8 29.4999 95.5 30.2999 97.4 30.9999C100.1 28.6999 102.3 24.8999 107.1 26.2999C106.9 28.2999 105.5 29.0999 104.1 29.9999C103.9 30.1999 103.4 30.0999 103.2 30.2999C100.7 32.7999 97.4 34.9999 99.5 39.8999Z" fill="#393432"/>
<path d="M84.9 36.9999C84.9 38.0999 84.9 38.8999 84.9 39.7999C78.9 39.7999 73.1 39.7999 67 39.7999C67 36.0999 67 32.4999 67 28.7999C67 26.8999 67.9 25.8999 69.5 25.8999C71.1 25.8999 72 26.7999 72 28.6999C72.1 31.2999 72 33.8999 72 36.8999C76.4 36.9999 80.6 36.9999 84.9 36.9999Z" fill="#393432"/>
<path d="M39 33.3C38.9 31.8 38.9 30.3 40.4 29C41.8 27.7 43.6 27.5 45.1 27.2C47.5 26.8 51 31.1 51 33.7C50.9 37.7 48.4 39.9 44.4 40.1C42.6 40.2 41.8 39 40.7 38.2C38.8 37 39 35.2 39 33.3Z" fill="#FCFCFC"/>
<path d="M45.6 38C43.9 38 43.4 37.1 42.5 36.8C40.8 36.2 40.5 33.4 41.6 31.9C43 30 45.4 29.4 47 30.5C49.5 32.2 49.6 33.7 47.5 36C46.9 36.7 46.2 37.4 45.6 38Z" fill="#D92B21"/>
</svg>
