<svg width="207" height="50" viewBox="0 0 207 50" fill="none" xmlns="http://www.w3.org/2000/svg">
<path d="M84.9 30.2C83.7 29.7 83 28.9 83.1 27.5C83.1 26 83.1 24.5 83.1 23C83.3 9.90003 81.1 11.9 95 11.6C97.5 11.6 98.6 12.3 98.5 15C98.4 20.2 98.4 25.3 98.7 30.5C98.9 34.4 97.5 35.7 93.5 35.7C77.7 35.6 61.9 35.7 46 35.7C32.8 35.7 19.7 35.7 6.50004 35.6C0.700036 35.6 0.600036 35.4 0.600036 29.8C0.500036 23.1 0.600036 16.5 0.400036 9.80003C0.300036 6.40003 1.60004 5.00003 5.10004 5.10003C11.4 5.20003 17.8 5.20003 24.1 5.10003C27.5 5.00003 29.4 6.20003 29.2 10C28.9 17 29 24 28.9 31C26.9 31.9 24.9 31.7 22.9 31.2C21.9 26.5 22.7 21.7 22.6 16.9C22.5 13.2 21.3 11.6 17.4 11.5C7.50004 11.3 7.50004 11.2 7.50004 21C7.50004 30.9 6.70004 30.6 16.8 30.6C18.6 30.6 20.5 30.5 22.2 31.1C26.8 31.8 31.4 31.9 36 31C38.5 30.5 40.9 30.4 43.4 31.1C44.4 31.4 45.3 31.7 46.3 31.5C58.5 29.8 70.7 32.1 82.9 31.5C83.6 31.5 84.2 31.5 84.9 31.3C85.4 31.2 85.9 31.1 86.4 31C86 30.5 85.3 30.6 84.9 30.2Z" fill="#1B61AD"/>
<path d="M189.4 0.400025C201.8 4.90002 208.7 17.3 205.8 29.8C203 42 191.7 50 178.6 49C166.8 48.1 156.8 37.5 156.1 24.9C155.6 15.4 162.1 4.90003 170.7 1.30003C171.5 1.00003 172.8 -0.59998 173.5 1.20002C173.9 2.20002 173.9 3.50003 172.6 4.30003C171.6 4.90003 170.6 5.40002 169.6 6.10002C161.7 11.3 158.5 20.3 160.5 29.6C162.3 38 168.2 42.3 175.5 44.6C183.2 47.1 190.1 44.7 196.2 39.2C201.4 34.6 202.9 28.7 202.5 22.3C202 15.1 198.4 9.40002 192 5.70002C189.9 4.40002 187.8 3.40002 189.4 0.400025Z" fill="#1B61AD"/>
<path d="M52.9 30.2C49.3 27.8 48.8 21.9 51.9 17.9C53.3 16.8 54.9 17 56.7 17.3C54.4 16.8 52 17.4 50 16C49.6 13.4 49.9 11.9 53.5 11.8C66.7 11.7 66.8 11.5 66.7 24.8C66.7 26.6 68.3 29.3 65.1 30.3C61 31.5 57 31.5 52.9 30.2Z" fill="#1B61AD"/>
<path d="M109.4 30C100.6 29.9 100.3 31.6 100.4 21.2C100.5 11.7 100.4 11.7 110 11.8C113.2 11.8 117.4 10.3 117.1 16.4C116.7 23.2 117.6 21.6 111.6 22.1C109.7 22.2 106.2 20.1 106.2 24C106.3 27.7 109.8 25.3 111.6 25.9C112.5 26.2 113.6 26 114.6 25.9C116.2 25.8 117.1 26.1 117 28C117 30.1 115.7 29.9 114.3 29.9C112.7 30 111.1 30 109.4 30Z" fill="#1B61AD"/>
<path d="M142.2 16.9C144.5 18.4 147 18 149.4 17.9C152.3 17.8 153.1 19 153.1 21.7C152.9 31.7 153.9 29.9 145.1 30C142.9 30 140.8 30 138.6 30C137.4 30 136.8 29.5 136.8 28.2C136.8 26.9 137 25.9 138.6 25.9C140.8 25.9 142.9 25.9 145.1 25.9C146.6 25.9 147.8 25.5 147.7 23.7C147.6 22.3 146.5 21.9 145.2 22C144.2 22 143.2 21.9 142.2 22C137.8 22.8 136.6 21 136.7 16.6C136.7 12.5 138.1 11.4 141.9 11.8C144.9 12.1 147.9 11.9 150.9 11.8C152.5 11.8 153.3 12.3 153.2 14.1C153.1 15.8 152.3 15.9 151 15.9C147.9 16.1 145 15.5 142.2 16.9Z" fill="#1B61AD"/>
<path d="M127 31.9C134.5 31.9 142 31.9 149.5 31.9C150.8 31.9 152.9 31.1 153 33.5C153.1 35.7 151.3 35.6 149.8 35.6C134.5 35.6 119.1 35.6 103.8 35.6C102.5 35.6 100.9 35.7 100.8 33.8C100.7 31.3 102.7 31.9 104 31.9C111.7 31.9 119.3 31.9 127 31.9Z" fill="#1B61AD"/>
<path d="M34.9 30.2C32.6 30 31.8 28.7 31.9 26.5C32 22.5 32 18.5 31.9 14.5C31.9 12.8 32.2 11.7 34.3 11.7C36.3 11.7 36.9 12.6 36.8 14.4C36.7 17.1 36.8 19.7 36.8 22.4C36.8 24.4 36.7 25.9 39.6 25.9C42.3 25.9 43.1 25 42.9 22.4C42.7 19.7 42.9 17.1 42.8 14.4C42.7 12.6 43.2 11.6 45.2 11.7C47.1 11.7 47.9 12.4 47.8 14.3C47.7 18.1 47.7 22 47.8 25.8C47.8 28.4 46.7 29.9 44 30.1C41 31.4 38 31.4 34.9 30.2Z" fill="#1B61AD"/>
<path d="M119.2 21C119.2 11.6 119.2 11.8 128.7 11.7C132.9 11.7 134.4 13.1 134 17.2C133.7 20.7 133.8 24.2 134 27.7C134.1 29.9 132.8 30 131.2 30C129.4 30 128.9 29.3 128.9 27.7C129 24.5 128.9 21.4 128.9 18.2C128.9 16.4 128.2 15.9 126.5 16C124.9 16 124 16.5 124.1 18.3C124.2 21.1 124.1 24 124.1 26.8C124.1 28.4 124.5 30.1 121.8 30.2C118.9 30.2 119.1 28.5 119.1 26.6C119.3 24.7 119.2 22.9 119.2 21Z" fill="#1B61AD"/>
<path d="M73.9001 30C70.3001 30.7 68.5001 29.8 68.9001 25.6C69.3001 20.4 69.3001 15 68.9001 9.80002C68.6001 5.70002 70.1001 4.60002 73.8001 5.20002C76.5001 7.40002 75.0001 10.6 75.1001 13.1C75.3001 18.6 76.9001 24.5 73.9001 30Z" fill="#1B61AD"/>
<path d="M187 8.30002C187 11.4 184.5 14 181.4 14C178.1 14.1 175.3 11.3 175.3 8.10002C175.3 6.20002 179.9 0.700021 181.4 0.800021C182.8 0.800021 187.1 6.50002 187 8.30002Z" fill="#1B61AD"/>
<path d="M165.9 34.6C172.1 35.1 175.7 40 181.3 40C186.8 40 190.3 34.8 196.1 34.8C188.4 45.4 174.5 45.5 165.9 34.6Z" fill="#1B61AD"/>
<path d="M81 12C81 16.5 80.7 21 81.1 25.4C81.5 29.7 79.7 30.6 76.1 29.9C73.8 24.5 74.9 18.9 75.4 13.4C75.6 10.4 78.8 11.4 81 12Z" fill="#1B61AD"/>
<path d="M174.1 6.90002C173.2 12.1 168.6 13.6 166.9 17.3C165.2 21 167.1 25.7 163.5 28.9C160.6 19.8 164.5 11.4 174.1 6.90002Z" fill="#1B61AD"/>
<path d="M198.7 28.7C195.6 25.3 197.4 20.7 195.5 16.9C193.7 13.5 189.3 12 188.7 7.30002C197.7 10.4 202.6 21.3 198.7 28.7Z" fill="#1B61AD"/>
<path d="M188.8 34.6C183.8 39.2 179.2 39.2 173.8 34.8C178.8 35.8 183.8 36.5 188.8 34.6Z" fill="#1B61AD"/>
<path d="M81 9.00002C77.9 9.50002 75 9.90001 76.2 5.10001C78.9 5.00001 82 4.50002 81 9.00002Z" fill="#1B61AD"/>
<path d="M172.3 14.8C171.1 16.8 169.9 18.8 168.1 21.9C167.8 17.7 169.7 15.9 171.5 14.2C171.7 14.3 172 14.5 172.3 14.8Z" fill="#1B61AD"/>
<path d="M34.9001 30.2C37.9001 30.2 41.0001 30.2 44.0001 30.2C47.0001 31.5 49.9001 31.5 52.9001 30.2C56.9001 30.2 61.0001 30.2 65.0001 30.2C71.6001 31.5 78.2001 31.5 84.9001 30.2C87.6001 30.1 90.3001 29.6 92.9001 30.4C92.9001 30.9 92.9001 31.3 92.9001 31.8C69.3001 31.8 45.6001 31.8 22.0001 31.8C22.0001 31.1 22.3001 30.7 23.1001 31C25.0001 31.4 27.0001 31.3 28.9001 31C30.9001 30.7 33.1001 31.7 34.9001 30.2Z" fill="white"/>
<path d="M81 12C77.4 11.1 75.5 11.8 75.9 16.2C76.3 20.7 76.1 25.3 76.1 29.9C75.4 29.9 74.6 29.9 73.9 29.9C73.9 21.6 73.8 13.3 73.8 5.10004C74.6 5.10004 75.4 5.10004 76.2 5.10004C77.2 7.10004 79.3 7.70004 81 9.00004C79.8 11 77.6 9.50004 76 10.4C77.4 11.8 79.9 9.90004 81 12Z" fill="white"/>
<path d="M50.0001 15.9C53.6001 16.4 57.3001 15.5 60.9001 16.9C58.1001 18.5 54.9001 17.9 51.9001 17.9C51.3001 17.2 50.7001 16.5 50.0001 15.9Z" fill="white"/>
<path d="M88 21.1C88.7 19.3 86.3 15.9 91 16C95.2 16.1 93.6 19.1 93.6 21C93.6 22.9 95.1 25.9 91 26.1C86.9 26.1 88.4 23.1 88 21.1Z" fill="white"/>
<path d="M58.2 26C56.5 26.1 55.2 25.9 55.4 23.7C55.6 21.3 57.4 22 58.8 21.9C60.3 21.8 61.3 22.1 61.3 24C61.2 26.4 59.6 25.9 58.2 26Z" fill="white"/>
<path d="M111.5 16.4C111.4 17.2 111.4 17.4 111.4 17.5C109.8 18.6 108.1 18.5 106.4 17.7C106.2 17.6 106.2 16.6 106.3 16.5C108.1 15.5 109.8 16.1 111.5 16.4Z" fill="white"/>
<path d="M23.1001 31C22.7001 31.3 22.4001 31.5 22.0001 31.8C17.8001 31.9 13.7001 31.9 9.60005 32.1C7.10005 32.2 5.90005 31.5 6.00005 28.8C6.20005 23.5 6.10005 18.2 6.00005 12.8C5.90005 10.5 6.90005 10 8.90005 10.1C12.9001 10.2 16.9001 10.1 20.9001 10.1C22.2001 10.1 23.9001 9.90002 23.9001 11.8C23.6001 18.1 24.9001 24.6 23.1001 31Z" fill="white"/>
</svg>
