<svg width="153" height="20" viewBox="0 0 153 20" fill="none" xmlns="http://www.w3.org/2000/svg">
<path d="M134.382 1.54349C135.22 4.1416 136.03 6.7397 136.896 9.30986C137.036 9.72891 137.399 10.0641 137.679 10.4553C137.958 10.0641 138.321 9.67304 138.461 9.25399C139.439 6.54414 140.36 3.80636 141.282 1.06857C144.076 1.06857 146.842 1.06857 149.635 1.0127C150.809 0.984764 151.395 1.32 151.228 2.43746C150.781 2.63302 150.334 2.82858 149.915 3.02413C149.607 3.52699 149.077 4.02985 149.077 4.56064C148.993 7.6616 148.993 10.7905 149.077 13.8915C149.105 14.5619 149.524 15.2324 149.775 15.9308C149.943 15.9867 150.054 16.0984 150.082 16.2661C150.837 16.4896 151.619 16.7131 152.373 16.9645C152.792 18.4172 152.345 19.0877 150.473 19.0039C148.071 18.8642 145.64 18.9759 143.238 18.9759C142.428 18.9759 141.478 19.1715 141.422 17.9981C141.394 17.2159 141.394 16.4896 142.623 16.4337C143.825 16.3778 144.076 15.5956 144.076 14.6737C144.076 11.88 144.104 9.05843 144.076 6.26477C144.076 5.95747 143.797 5.65017 143.629 5.31493C143.406 5.62223 143.07 5.92954 142.959 6.29271C141.841 9.58923 140.752 12.9137 139.662 16.2381C139.522 16.6292 139.299 17.0204 139.243 17.4115C139.075 19.0597 137.79 18.948 136.421 19.0039C134.969 19.0597 134.298 18.6407 133.935 17.3277C132.845 13.5842 131.56 9.86859 130.331 6.18097C130.247 5.9016 129.996 5.62223 129.828 5.3708C129.689 5.67811 129.465 6.01335 129.465 6.32065C129.437 9.11431 129.465 11.9359 129.465 14.7296C129.465 15.6515 129.661 16.4337 130.89 16.4896C132.203 16.5175 132.035 17.2997 132.035 18.054C132.063 19.0318 131.309 19.0318 130.527 19.0318C128.571 19.0039 126.644 19.0318 124.688 19.0318C123.878 19.0318 122.956 19.1715 122.9 18.0261C122.844 17.0204 123.124 16.4616 124.409 16.4896C124.828 16.4896 125.247 16.2102 125.666 16.0705C126.504 15.9308 127.174 15.7353 126.029 15.0089C126.029 11.4051 126.029 7.80128 126.029 4.16953C126.197 3.94604 126.392 3.69461 126.56 3.47112C126.252 3.35937 125.917 3.24762 125.61 3.13588C125.247 2.94032 124.884 2.74477 124.52 2.54921C124.604 2.07429 124.688 1.20826 124.744 1.20826C127.957 1.18032 131.169 1.34794 134.382 1.54349Z" fill="#E36F1C"/>
<path d="M1.23635 0.286343C5.87382 0.286343 10.4834 0.286343 15.1208 0.286343C15.4002 1.04063 15.7354 1.26412 16.2942 0.453964C19.9539 1.0127 21.1831 1.96254 21.4066 4.36508C21.5742 6.23683 20.8478 7.57779 18.8923 8.33208C18.3894 8.52763 17.2999 8.94668 18.3615 9.44954C20.4847 10.4273 20.317 12.0476 20.317 13.6959C20.317 14.3384 20.317 15.0369 20.5126 15.6515C20.5964 15.9588 21.0993 16.3778 21.4345 16.3778C21.7139 16.3778 22.105 15.9588 22.3005 15.6515C22.6637 15.0369 21.9094 13.64 23.4459 13.8915C24.6751 14.1149 24.1443 15.3442 24.2282 16.1823C24.2561 16.4337 24.1443 16.6572 24.1164 16.9086C23.9209 17.16 23.7253 17.4394 23.5297 17.6908C22.0212 19.3111 20.1774 19.7302 17.6631 19.0597C15.6237 18.501 14.7856 17.5511 14.6459 15.4C14.5621 14.4222 14.6459 13.4165 14.618 12.4388C14.59 11.1816 13.9196 10.5111 12.4389 10.3435C9.28209 9.98033 9.00272 10.148 9.00272 13.0813C9.00272 13.5842 9.00272 14.0591 9.00272 14.5619C9.00272 15.5956 9.39383 16.3778 10.7069 16.3499C12.1037 16.3219 12.1316 17.1321 12.1037 17.9981C12.0757 19.0318 11.2097 18.8642 10.5113 18.8642C7.55002 18.8642 4.58874 18.8642 1.62747 18.8642C0.873178 18.8642 0.0909543 18.8921 0.118891 17.9143C0.146827 17.188 -0.0487284 16.3499 1.26429 16.3778C2.91255 16.4337 3.30366 15.4838 3.30366 14.2826C3.30366 11.0699 3.27572 7.85716 3.3316 4.64445C3.35953 3.19175 2.54937 2.52127 1.06873 2.32571C1.06873 1.65524 1.15254 0.984757 1.23635 0.286343ZM8.94685 5.20318C8.94685 7.82922 9.05859 7.9689 11.0421 7.99684C14.0313 8.05271 15.6237 7.04699 15.5399 5.1473C15.484 3.44317 13.9196 2.49333 11.07 2.4654C8.97478 2.4654 8.94685 2.49333 8.94685 5.20318Z" fill="#E36F1C"/>
<path d="M64.0377 18.6965C63.3672 18.0819 62.5291 17.5791 62.0542 16.8527C59.9869 13.7238 58.0593 10.539 56.0199 7.38221C55.7964 7.01904 55.2936 6.76761 54.9304 6.46031C54.7907 6.87936 54.5393 7.32634 54.5393 7.74539C54.5113 9.8965 54.5393 12.0197 54.5113 14.1708C54.5113 15.3721 54.7628 16.3219 56.439 16.3219C57.724 16.3219 57.5564 17.16 57.5844 17.8864C57.6123 18.8641 56.858 18.8641 56.0758 18.8362C53.0307 18.8083 49.9577 18.7524 46.9126 18.7245C46.9126 17.9702 46.9126 17.2159 46.9126 16.4616C50.9355 16.1543 50.9355 16.1543 50.9355 12.3829C50.9355 9.98032 50.9634 7.60571 50.9634 5.20316C50.9634 3.86221 51.131 2.46538 48.8682 2.38157C48.5609 2.38157 48.0301 1.54347 48.0859 1.15236C48.1139 0.761249 48.7564 0.0907701 49.1475 0.0907701C51.8294 0.00696042 54.5393 -0.0209787 57.2212 0.118704C57.8358 0.146641 58.5621 0.900931 58.9253 1.4876C60.9088 4.56062 62.8085 7.68952 64.7641 10.7625C65.0155 11.1537 65.4625 11.4051 65.8257 11.7403C65.9374 11.2933 66.133 10.8463 66.1609 10.3994C66.1888 8.58349 66.2447 6.76761 66.133 4.95173C66.0771 4.0857 65.6301 3.2476 65.3507 2.40951C65.4904 1.76697 63.9539 1.15236 65.3228 0.509819C67.5298 0.398072 69.7647 0.286326 71.9717 0.230453C72.0555 0.230453 72.1673 0.928866 72.2511 1.31998C71.9438 1.59934 71.6365 1.85078 71.3571 2.13014C70.8542 2.40951 70.3514 2.66093 69.8485 2.9403C68.8149 2.9403 68.7031 3.52697 68.7031 4.25332C68.7311 8.19237 68.6752 12.1594 68.759 16.0984C68.759 16.4895 69.3736 16.8806 69.7088 17.2997C70.072 18.5289 69.625 19.0597 68.1444 18.6965C66.9431 17.5511 65.686 17.5511 64.0377 18.6965Z" fill="#E36F1C"/>
<path d="M87.5882 18.3892C87.5882 18.0819 87.5603 17.7467 87.5603 17.4394C88.2308 16.7969 89.9629 17.3277 89.8232 15.8191C88.8733 14.4223 87.8955 13.0254 86.9736 11.6007C86.2473 10.4832 85.493 10.567 84.5711 11.3492C84.2358 11.6286 83.8727 11.88 83.5374 12.1873C81.8612 13.6959 82.1406 15.5397 84.3755 16.3219C85.5209 16.713 85.4651 17.4115 85.2695 18.054C85.1578 18.4172 84.4035 18.8362 83.9006 18.8362C80.9393 18.92 77.9781 18.92 75.0447 18.8362C74.6257 18.8362 73.9273 18.3054 73.8434 17.9143C73.6479 17.2159 73.6199 16.3499 74.905 16.3499C76.665 16.3778 77.0282 15.428 77.0003 14.087C76.9723 12.8578 77.0562 11.6286 77.112 10.3994C77.3635 10.3435 77.8384 10.2876 77.8384 10.2318C77.9781 8.52764 78.0898 6.79557 78.0898 5.0635C78.0898 4.86795 77.4473 4.67239 77.112 4.4489C76.693 3.83429 76.3019 3.19175 75.8828 2.57715C75.6593 1.54349 75.6034 0.761272 77.3355 0.928891C78.9558 1.09651 80.6041 0.956825 82.2524 0.956825C84.2079 0.984762 84.2079 0.984761 83.1743 2.7727L83.0066 2.88445C82.392 3.05207 81.7216 3.19175 82.5317 3.89016C82.5597 5.17525 82.5317 6.46033 82.6435 7.74541C82.6714 8.10859 83.1463 8.44383 83.4257 8.77906C83.733 8.4997 84.0403 8.1924 84.3476 7.91303C85.912 6.65589 87.5044 5.39874 89.0689 4.11366C89.879 3.47112 90.4936 2.71683 88.8174 2.49334C87.5882 2.35365 87.5882 1.73905 87.6441 0.956825C87.7 0.00698157 88.4822 0.00698329 89.2365 0.00698329C91.7508 0.00698329 94.2371 -0.0209516 96.7235 0.0349216C97.1984 0.0628581 97.9527 0.481905 98.0645 0.84508C98.2879 1.51556 98.2321 2.18604 97.1984 2.66096C95.4105 3.47112 93.6784 4.39302 92.1419 5.51049C90.2701 6.85144 90.354 6.96319 91.5832 8.72319C93.2314 11.0978 94.9076 13.4724 96.5838 15.847C96.9749 16.7969 97.3381 17.7467 97.7292 18.6686C94.5724 18.6686 91.3876 18.6686 88.2308 18.6686C88.0073 18.6686 87.7838 18.5289 87.5882 18.3892Z" fill="#E36F1C"/>
<path d="M46.9406 16.5175C46.9406 17.2718 46.9406 18.0261 46.9406 18.7804C43.5882 18.7804 40.2358 18.7804 36.8834 18.7804C36.6879 18.6407 36.4923 18.501 36.2968 18.3614C36.185 17.4953 35.738 16.4896 37.3863 16.3499C38.392 16.2661 38.8669 15.7633 38.6435 14.8414C38.42 13.9753 38.3641 12.9137 37.0511 12.8299C35.5984 12.7182 34.0898 12.6902 32.6371 12.8579C31.1006 13.0255 31.2682 14.4502 30.9609 15.3721C30.905 15.5677 31.8828 16.2661 32.4695 16.322C33.5869 16.4617 33.8384 16.9645 33.7825 17.8306C33.7266 18.8922 32.8885 18.8922 32.0225 18.8922C30.5418 18.8642 29.0612 18.8083 27.6085 18.9201C25.9882 19.0598 24.6472 18.7245 23.5018 17.6909C23.6974 17.4395 23.8929 17.1601 24.0885 16.9087C26.1837 16.9087 27.1056 15.7633 27.7203 14.1429C29.0612 10.595 30.5139 7.04705 31.9107 3.52704C32.218 3.4153 32.5533 3.30355 32.8606 3.1918C32.665 2.96831 32.4974 2.71688 32.3019 2.49339C32.2739 2.32577 32.3298 2.15815 32.4695 2.0464C34.7323 0.398145 37.2187 0.984814 39.6771 1.57148C41.1857 5.67816 42.7222 9.7569 44.1749 13.8636C44.6219 15.1487 45.2085 16.2661 46.9406 16.5175ZM34.872 10.4832C36.9114 10.4832 37.079 10.3436 36.4644 8.69531C36.0174 7.52197 35.3749 6.40451 34.7882 5.25911C34.2574 6.37657 33.6707 7.49403 33.2517 8.63943C32.693 10.2318 32.9444 10.4832 34.872 10.4832Z" fill="#E36F1C"/>
<path d="M119.743 17.3556C119.855 17.4953 119.911 17.635 119.883 17.8026C119.576 17.8305 119.24 17.8585 118.933 17.8585C113.43 17.8585 107.926 17.8305 102.395 17.8585C101.277 17.8585 100.327 17.8305 100.467 16.4896C101.808 16.3499 102.311 15.7074 102.311 14.5061C102.255 11.1537 102.283 7.80131 102.311 4.44892C102.311 3.30352 101.808 2.57717 100.495 2.35368C100.467 1.65527 100.439 0.956852 100.411 0.258438C104.155 0.286375 107.926 0.286378 111.67 0.314315C111.67 1.09654 111.334 1.54352 110.384 1.48765C109.63 1.45971 108.876 1.48765 108.848 2.40956C108.652 2.60511 108.457 2.77273 108.233 2.96829C107.982 3.02416 107.507 3.10797 107.507 3.16384C107.423 4.64448 107.395 6.12512 107.423 7.60576C107.423 7.7175 108.038 7.80131 108.373 7.88512C108.541 7.88512 108.708 7.941 108.848 8.02481C108.932 8.22036 108.988 8.41592 109.071 8.61148C109.183 8.38798 109.295 8.19243 109.407 7.96893C109.574 7.941 109.77 7.88513 109.938 7.85719C110.859 8.83497 110.943 8.08068 111.083 7.4102C111.251 7.24258 111.39 7.04703 111.558 6.87941C112.424 7.21465 113.29 7.54988 114.156 7.88512C114.156 9.36576 114.156 10.8464 114.156 12.327C113.318 11.9918 112.452 11.6845 111.614 11.3493C111.251 11.014 110.887 10.6788 110.524 10.3435C110.133 10.0083 109.77 9.701 109.379 9.36576C109.016 9.701 108.652 10.0362 108.317 10.3715L108.345 10.3435C107.982 10.5391 107.284 10.7067 107.284 10.9023C107.228 12.3829 107.256 13.8635 107.339 15.3442C107.339 15.5118 107.926 15.6515 108.233 15.7912C110.105 15.9588 111.977 16.0985 113.877 16.2661C114.631 17.1321 114.854 16.6293 115.022 15.9309C115.581 15.4001 116.139 14.8693 116.67 14.3105C117.005 14.1988 117.313 14.087 117.648 13.9753C117.452 13.7518 117.257 13.5004 117.061 13.2769C117.033 13.1093 117.061 12.9696 117.201 12.8578C118.123 12.8578 119.045 12.8578 119.967 12.8578C119.911 14.2267 119.883 15.5956 119.827 16.9366C119.631 16.9924 119.464 17.0763 119.268 17.1321C119.436 17.2718 119.576 17.3277 119.743 17.3556Z" fill="#E36F1C"/>
<path d="M113.29 0.342249C115.162 0.314312 117.005 0.286375 118.877 0.258438C119.017 0.956852 119.212 1.62733 119.268 2.32575C119.38 3.89019 119.408 5.45464 119.464 7.04703C119.101 7.07496 118.71 7.1029 118.346 7.13084C118.011 6.73972 117.648 6.37655 117.313 5.98544C116.754 4.11369 115.581 2.80067 113.318 2.49336C113.29 1.76701 113.29 1.0686 113.29 0.342249Z" fill="#E36F1C"/>
<path d="M100.467 16.5175C100.327 17.8584 101.277 17.8863 102.395 17.8863C107.898 17.8584 113.402 17.8863 118.933 17.8863C118.542 18.1936 118.179 18.473 117.788 18.7803C111.67 18.7524 105.524 18.7244 99.4055 18.6686C99.4335 18.0819 99.4335 17.4952 99.4614 16.9365C99.629 16.7968 99.7687 16.6571 99.9363 16.5454C100.104 16.5454 100.272 16.5454 100.467 16.5175Z" fill="#E36F1C"/>
<path d="M83.1744 2.82856C84.208 1.04062 84.208 1.04062 82.2525 1.01268C80.6042 1.01268 78.9559 1.12443 77.3356 0.984744C75.6315 0.817124 75.6594 1.59935 75.8829 2.633C75.2683 2.54919 74.4582 2.66094 74.1229 2.35363C73.7597 2.01839 73.5921 1.20824 73.7877 0.789188C73.9553 0.426013 74.7655 0.146646 75.3242 0.146646C78.0899 0.0907733 80.8556 0.118708 83.6493 0.118708C84.4874 0.118708 85.3255 0.00696531 85.4093 1.15236C85.4652 2.24189 85.1579 2.91237 83.761 2.80062C83.5375 2.80062 83.342 2.82856 83.1744 2.82856Z" fill="#E36F1C"/>
<path d="M69.6809 17.3835C69.3457 16.9924 68.759 16.6013 68.731 16.1822C68.6472 12.2432 68.7031 8.27618 68.6752 4.33712C68.6752 3.58283 68.7869 3.0241 69.8206 3.0241C69.7647 7.80126 69.7088 12.5784 69.6809 17.3835Z" fill="#E36F1C"/>
<path d="M149.719 15.9029C149.468 15.2324 149.049 14.5619 149.021 13.8635C148.937 10.7626 148.937 7.63367 149.021 4.53271C149.021 4.02985 149.579 3.49906 149.859 2.9962C149.831 7.29843 149.775 11.6007 149.719 15.9029Z" fill="#E36F1C"/>
<path d="M134.382 1.54347C131.169 1.37585 127.957 1.18029 124.744 1.09648C124.688 1.09648 124.576 1.96252 124.52 2.43744C123.626 2.633 122.872 2.66093 122.816 1.54347C122.788 0.677438 123.012 0.118706 124.157 0.146643C127.091 0.174579 130.024 0.146643 132.957 0.146643C133.991 0.118706 134.354 0.677438 134.382 1.54347Z" fill="#E36F1C"/>
<path d="M151.228 2.40952C151.395 1.31999 150.809 0.956813 149.635 0.98475C146.87 1.04062 144.076 1.01269 141.282 1.04062C141.618 0.73332 141.953 0.146653 142.288 0.146653C145.361 0.0907795 148.406 0.0907795 151.479 0.146653C151.842 0.146653 152.541 0.677447 152.485 0.900939C152.373 1.54348 152.96 2.80063 151.228 2.40952Z" fill="#E36F1C"/>
<path d="M119.464 7.04703C119.408 5.48258 119.38 3.89019 119.268 2.32575C119.212 1.62733 119.017 0.928916 118.877 0.258438C119.324 0.453994 120.106 0.621614 120.134 0.81717C120.162 2.8286 120.051 4.86798 119.939 6.87941C119.939 6.93528 119.631 6.99115 119.464 7.04703Z" fill="#E36F1C"/>
<path d="M39.6492 1.54348C37.1907 0.956808 34.7323 0.370139 32.4415 2.0184C32.4415 0.621568 33.112 -0.0489078 34.7882 0.0907751C35.8777 0.174585 36.9673 0.118709 38.0568 0.118709C39.1463 0.0907725 39.7609 0.481886 39.6492 1.54348Z" fill="#E36F1C"/>
<path d="M114.156 7.96893C113.29 7.63369 112.424 7.29845 111.558 6.96321C111.586 6.5721 111.418 6.06924 111.642 5.78988C111.949 5.4267 112.536 5.03559 112.983 5.03559C113.43 5.06353 114.156 5.48257 114.268 5.84575C114.435 6.51623 114.212 7.27052 114.156 7.96893Z" fill="#E36F1C"/>
<path d="M77.1121 4.50476C77.4473 4.70032 78.0898 4.89587 78.0898 5.11936C78.0898 6.85143 77.9781 8.55556 77.8384 10.2876C77.8384 10.3714 77.3635 10.3994 77.1121 10.4552C77.1121 8.47175 77.1121 6.48826 77.1121 4.50476Z" fill="#E36F1C"/>
<path d="M108.205 15.9029C107.898 15.7632 107.339 15.6236 107.311 15.4559C107.228 13.9753 107.172 12.4947 107.256 11.014C107.256 10.8185 107.954 10.6509 108.317 10.4553C108.289 12.2712 108.261 14.0871 108.205 15.9029Z" fill="#E36F1C"/>
<path d="M113.29 0.342258C113.29 1.06861 113.29 1.76702 113.318 2.49337C111.837 2.49337 110.357 2.46544 108.848 2.46544C108.876 1.5156 109.602 1.48766 110.385 1.54353C111.334 1.59941 111.67 1.12448 111.67 0.370197C112.2 0.34226 112.759 0.342258 113.29 0.342258Z" fill="#E36F1C"/>
<path d="M108.373 7.94094C108.038 7.85713 107.451 7.74538 107.423 7.66157C107.395 6.18093 107.423 4.70029 107.507 3.21966C107.507 3.13585 107.982 3.07997 108.233 3.0241C108.289 4.64442 108.317 6.29268 108.373 7.94094Z" fill="#E36F1C"/>
<path d="M99.4613 16.9366C99.4334 17.5232 99.4334 18.1099 99.4054 18.6686C98.8467 18.7245 98.26 18.7525 97.7013 18.8083C97.3102 17.8585 96.947 16.9086 96.5559 15.9867C97.5058 16.2102 98.4277 16.4337 99.3775 16.6293C99.3775 16.741 99.4054 16.8248 99.4613 16.9366Z" fill="#E36F1C"/>
<path d="M119.967 12.9416C119.045 12.9416 118.123 12.9416 117.201 12.9416C117.48 12.327 117.536 11.4331 118.039 11.1537C119.185 10.5112 119.911 11.2375 119.967 12.9416Z" fill="#E36F1C"/>
<path d="M111.614 11.433C112.452 11.7683 113.318 12.0756 114.156 12.4108C114.463 13.4165 113.653 13.5283 112.955 13.3886C112.452 13.3048 111.921 12.9416 111.642 12.5784C111.446 12.327 111.614 11.8241 111.614 11.433Z" fill="#E36F1C"/>
<path d="M64.0377 18.6966C65.686 17.5232 66.9152 17.5512 68.0885 18.7804C66.7476 18.7524 65.4066 18.7245 64.0377 18.6966Z" fill="#E36F1C"/>
<path d="M65.3228 0.59365C63.9539 1.23619 65.4905 1.85079 65.3508 2.49333C64.2892 2.38159 62.6968 2.91239 63.1717 1.0127C63.3393 0.873016 63.507 0.733331 63.6746 0.565712C64.2054 0.593649 64.7641 0.59365 65.3228 0.59365Z" fill="#E36F1C"/>
<path d="M89.8232 15.7911C89.9628 17.3276 88.2308 16.7968 87.5603 17.4114C87.7279 17.0762 87.7838 16.6012 88.0911 16.4057C88.594 16.1263 89.2365 15.9866 89.8232 15.7911Z" fill="#E36F1C"/>
<path d="M1.23633 0.286343C1.15252 0.984757 1.06871 1.68317 0.984902 2.35365C-0.272243 2.26984 -0.0208144 1.43174 0.118868 0.789202C0.146805 0.565709 0.845219 0.453962 1.23633 0.286343Z" fill="#E36F1C"/>
<path d="M152.317 16.9086C151.563 16.6851 150.781 16.4616 150.026 16.2102C150.837 16.322 151.926 15.6794 152.317 16.9086Z" fill="#E36F1C"/>
<path d="M100.383 0.286343C100.411 0.984757 100.439 1.68317 100.467 2.38159C100.104 2.18603 99.4613 2.04634 99.3775 1.79492C99.2378 1.15237 99.1261 0.314279 100.383 0.286343Z" fill="#E36F1C"/>
<path d="M108.317 10.4832C108.68 10.1479 109.044 9.8127 109.379 9.47746C109.77 9.8127 110.133 10.12 110.524 10.4552C109.77 10.4552 109.044 10.4832 108.317 10.4832Z" fill="#E36F1C"/>
<path d="M117.313 5.98542C117.648 6.37653 118.011 6.73971 118.346 7.13082C117.145 7.35431 117.285 6.62796 117.313 5.98542Z" fill="#E36F1C"/>
<path d="M117.788 18.7803C118.179 18.473 118.542 18.1936 118.933 17.8863C119.24 17.8584 119.576 17.8305 119.883 17.8305C120.079 19.7302 118.57 18.6127 117.788 18.7803Z" fill="#E36F1C"/>
<path d="M16.2942 0.426059C15.7355 1.23622 15.3723 1.04066 15.1208 0.258438C15.512 0.314311 15.9031 0.370186 16.2942 0.426059Z" fill="#E36F1C"/>
<path d="M125.582 2.9962C125.889 3.10794 126.225 3.21969 126.532 3.33143C126.364 3.55493 126.169 3.80636 126.001 4.02985C125.861 3.69461 125.722 3.35937 125.582 2.9962Z" fill="#E36F1C"/>
<path d="M117.033 13.3607C117.229 13.5842 117.425 13.8356 117.62 14.0591C117.285 14.1709 116.978 14.2826 116.642 14.3944C116.782 14.0591 116.922 13.7239 117.033 13.3607Z" fill="#E36F1C"/>
<path d="M111.083 7.46608C110.971 8.13656 110.887 8.89084 109.938 7.91306C110.329 7.77338 110.692 7.6337 111.083 7.46608Z" fill="#E36F1C"/>
<path d="M126.001 14.8693C127.147 15.5677 126.476 15.7632 125.638 15.9309C125.75 15.5677 125.889 15.2324 126.001 14.8693Z" fill="#E36F1C"/>
<path d="M32.2738 2.46537C32.4694 2.68886 32.637 2.94029 32.8325 3.16378C32.5252 3.27553 32.19 3.38727 31.8827 3.49902C32.0224 3.16378 32.1621 2.82854 32.2738 2.46537Z" fill="#E36F1C"/>
<path d="M114.994 16.0146C114.854 16.741 114.631 17.2438 113.849 16.3499C114.24 16.2381 114.603 16.1264 114.994 16.0146Z" fill="#E36F1C"/>
<path d="M82.5038 3.97401C81.6936 3.27559 82.3641 3.13591 82.9787 2.96829C82.839 3.30353 82.6714 3.63877 82.5038 3.97401Z" fill="#E36F1C"/>
<path d="M84.3197 7.9968C84.0124 8.27617 83.7051 8.58346 83.3978 8.86283C83.7051 8.58346 84.0124 8.3041 84.3197 7.9968Z" fill="#E36F1C"/>
<path d="M109.407 8.02481C109.295 8.24831 109.183 8.44386 109.072 8.66735C108.988 8.4718 108.932 8.27624 108.848 8.08068C109.044 8.08068 109.211 8.05275 109.407 8.02481Z" fill="#E36F1C"/>
<path d="M99.4613 16.9366C99.4054 16.8248 99.3774 16.741 99.3774 16.6293C99.5451 16.6013 99.7406 16.5734 99.9082 16.5455C99.7686 16.6572 99.6009 16.7969 99.4613 16.9366Z" fill="#E36F1C"/>
<path d="M119.743 17.3555C119.576 17.2997 119.436 17.2438 119.268 17.1879C119.464 17.1321 119.631 17.0482 119.827 16.9924C119.771 17.1321 119.743 17.2438 119.743 17.3555Z" fill="#E36F1C"/>
<path d="M71.3292 2.21397C71.6365 1.93461 71.9438 1.68318 72.2232 1.40381C71.9438 1.65524 71.6365 1.93461 71.3292 2.21397Z" fill="#E36F1C"/>
<path d="M87.5883 18.3892C87.7838 18.5289 87.9794 18.6686 88.2029 18.8083C88.0073 18.6686 87.7838 18.5289 87.5883 18.3892Z" fill="#E36F1C"/>
</svg>
