<svg width="120" height="59" viewBox="0 0 120 59" fill="none" xmlns="http://www.w3.org/2000/svg">
<path d="M0 58.1C0 38.7 0 19.4 0 0C40 0 80 0 120 0C120 19.3 120 38.7 120 58.1C80 58.1 40 58.1 0 58.1ZM63.8 40.4C63.8 38.8 63.8 37.4 63.8 35.8C59.1 35.8 54.4 35.8 49.8 35.8C49.8 34.2 49.8 32.9 49.8 31.3C53.4 31.3 57 31.3 60.6 31.3C60.6 29.7 60.6 28.2 60.6 26.6C57 26.6 53.4 26.6 49.8 26.6C49.8 25 49.8 23.6 49.8 22C54.5 22 59.2 22 64 22C64 20.5 64 19.2 64 17.7C57.5 17.7 51 17.7 44.3 17.7C44.3 23.8 44.3 29.8 44.3 36C43.3 36 42.4 36 41.5 36C41.1 36 40.5 35.9 40.2 35.6C38.8 34.3 37.5 32.9 35.9 31.4C37.4 31.4 38.7 31.4 40.1 31.4C40.1 26.8 40.1 22.3 40.1 17.7C32.5 17.7 25 17.7 17.4 17.7C17.4 19.2 17.4 20.6 17.4 22.1C18.2 22.1 18.9 22.2 19.6 22.2C19.6 23.5 19.6 24.8 19.6 26.1C18.9 26.1 18.3 26.2 17.5 26.2C17.5 27.5 17.6 28.6 17.5 29.8C17.4 31 17.6 31.7 19 31.4C19.3 31.3 19.6 31.5 20.1 31.5C20.1 34.5 20.1 37.4 20.1 40.3C21.8 40.3 23.4 40.3 25.2 40.3C25.2 37.3 25.2 34.3 25.2 31.4C26.8 31.2 28.1 31.3 29.3 32.4C32.1 34.9 35.1 37.3 38 39.7C38.5 40.1 39.2 40.3 39.8 40.3C47.3 40.3 54.8 40.3 62.4 40.3C62.8 40.4 63.3 40.4 63.8 40.4ZM66.5 35.9C66.5 37.5 66.5 38.8 66.5 40.2C69.1 40.2 71.7 40.2 74.4 40.2C74.4 37 74.4 33.9 74.4 30.9C75.9 33.1 77.4 35.2 78.5 37.6C79.5 40 81.1 40.7 83.5 40.4C84.2 40.3 84.7 40.2 85 39.5C86.5 37 88.1 34.5 89.6 31.9C89.8 31.6 90 31.2 90.2 30.9C90.3 30.9 90.4 31 90.4 31C90.4 34 90.4 37 90.4 40.1C92.2 40.1 93.9 40.1 95.7 40.1C95.7 32.6 95.7 25.1 95.7 17.5C94.1 17.5 92.6 17.5 91.1 17.5C90.4 17.5 90 17.7 89.7 18.3C88.1 21.2 86.4 24.2 84.8 27.1C83.9 28.6 83 30.2 82.1 31.9C81.7 31.2 81.4 30.7 81.2 30.3C79.1 26.4 76.9 22.4 74.8 18.5C74.6 18.1 74.3 17.6 74 17.6C72.3 17.5 70.6 17.6 68.8 17.6C68.8 23.8 68.8 29.8 68.8 35.8C68 35.9 67.3 35.9 66.5 35.9ZM103.9 17.5C102.4 17.5 101 17.6 99.7 17.5C98.6 17.4 98.4 17.8 98.4 18.9C98.4 25.6 98.4 32.3 98.4 39C98.4 39.4 98.4 39.8 98.4 40.3C100.3 40.3 102.1 40.3 103.9 40.3C103.9 32.7 103.9 25.2 103.9 17.5Z" fill="#ED3237"/>
<path d="M63.8 40.4C63.3 40.4 62.8 40.4 62.4 40.4C54.9 40.4 47.4 40.4 39.8 40.4C39.2 40.4 38.5 40.1 38 39.8C35 37.4 32.1 35 29.3 32.5C28.1 31.4 26.8 31.3 25.2 31.5C25.2 34.4 25.2 37.3 25.2 40.4C23.5 40.4 21.9 40.4 20.1 40.4C20.1 37.5 20.1 34.5 20.1 31.6C19.6 31.5 19.3 31.4 19 31.5C17.6 31.7 17.4 31 17.5 29.9C17.6 28.8 17.5 27.6 17.5 26.3C18.3 26.3 18.9 26.2 19.6 26.2C19.6 24.9 19.6 23.7 19.6 22.3C18.9 22.3 18.2 22.2 17.4 22.2C17.4 20.7 17.4 19.3 17.4 17.8C25 17.8 32.5 17.8 40.1 17.8C40.1 22.3 40.1 26.8 40.1 31.5C38.7 31.5 37.4 31.5 35.9 31.5C37.5 33 38.8 34.4 40.2 35.7C40.5 36 41 36.1 41.5 36.1C42.4 36.2 43.3 36.1 44.3 36.1C44.3 30 44.3 23.9 44.3 17.8C50.9 17.8 57.4 17.8 64 17.8C64 19.2 64 20.6 64 22.1C59.2 22.1 54.5 22.1 49.8 22.1C49.8 23.7 49.8 25.2 49.8 26.7C53.4 26.7 57 26.7 60.6 26.7C60.6 28.3 60.6 29.8 60.6 31.4C57 31.4 53.5 31.4 49.8 31.4C49.8 32.9 49.8 34.3 49.8 35.9C54.5 35.9 59.1 35.9 63.8 35.9C63.8 37.4 63.8 38.8 63.8 40.4ZM35.2 22.2C31.8 22.2 28.4 22.2 25.1 22.2C25.1 23.5 25.1 24.8 25.1 26C28.5 26 31.8 26 35.2 26C35.2 24.7 35.2 23.5 35.2 22.2Z" fill="white"/>
<path d="M66.5 35.9C67.3 35.9 68 35.9 68.9 35.9C68.9 29.8 68.9 23.8 68.9 17.7C70.7 17.7 72.4 17.7 74.1 17.7C74.4 17.7 74.7 18.2 74.9 18.6C77.1 22.5 79.2 26.5 81.3 30.4C81.6 30.9 81.8 31.4 82.2 32C83.2 30.3 84.1 28.8 84.9 27.2C86.6 24.3 88.2 21.4 89.8 18.4C90.1 17.8 90.5 17.5 91.2 17.6C92.7 17.6 94.2 17.6 95.8 17.6C95.8 25.2 95.8 32.6 95.8 40.2C94 40.2 92.3 40.2 90.5 40.2C90.5 37.1 90.5 34.1 90.5 31.1C90.4 31.1 90.3 31 90.3 31C90.1 31.3 89.9 31.7 89.7 32C88.1 34.5 86.6 37 85.1 39.6C84.7 40.2 84.3 40.4 83.6 40.5C81.2 40.8 79.6 40.1 78.6 37.7C77.6 35.3 76 33.2 74.5 31C74.5 34.1 74.5 37.2 74.5 40.3C71.8 40.3 69.2 40.3 66.6 40.3C66.5 38.9 66.5 37.5 66.5 35.9Z" fill="white"/>
<path d="M103.9 17.5C103.9 25.2 103.9 32.7 103.9 40.3C102.1 40.3 100.3 40.3 98.4 40.3C98.4 39.9 98.4 39.4 98.4 39C98.4 32.3 98.4 25.6 98.4 18.9C98.4 17.9 98.6 17.5 99.7 17.5C101.1 17.6 102.4 17.5 103.9 17.5Z" fill="white"/>
<path d="M35.2 22.2C35.2 23.5 35.2 24.8 35.2 26C31.8 26 28.5 26 25.1 26C25.1 24.7 25.1 23.5 25.1 22.2C28.5 22.2 31.8 22.2 35.2 22.2Z" fill="#ED3237"/>
</svg>
