<svg width="313" height="68" viewBox="0 0 313 68" fill="none" xmlns="http://www.w3.org/2000/svg">
<path d="M1.00002 22C1.00002 15.7 1.00002 9.40002 1.00002 3.00002C1.00002 1.70002 1.10002 0.900024 2.80002 0.900024C15.6 1.00002 28.4 1.00002 41.2 0.900024C42.9 0.900024 43 1.60002 43 2.90002C43 15.5 42.9 28.2 43 40.8C43 42.9 42.2 42.9 40.7 42.9C28.2 42.9 15.7 42.9 3.20002 42.9C0.900024 42.9 0.900024 42.9 0.900024 40.4C1.00002 34.3 1.00002 28.2 1.00002 22Z" fill="#FD0303"/>
<path d="M63.1 24.8001C62.3 24.6001 60.2 25.9001 58.6 24.1001C54.7 24.0001 53.5 21.1001 53.1 18.1001C52.7 14.8001 54.4 12.7001 57.4 10.9001C59.8 9.50008 62.2 9.60007 64.5 8.80007C67.1 7.90007 69.2 8.50008 71.8 8.90008C75.6 9.50008 79.1 10.4001 82.5 12.1001C84.6 13.1001 85.5 14.3001 85 15.5001C84.1 17.5001 81.7 18.6001 79.9 17.5001C76.8 15.5001 73.2 14.9001 69.8 14.3001C67.1 13.8001 64.1 14.8001 61.3 15.4001C60.7 15.5001 60.2 16.6001 60 17.3001C59.9 17.7001 60.6 18.6001 61.1 18.8001C62.9 19.4001 64.7 20.1001 66.5 20.2001C69.8 20.4001 73.1 20.2001 76.5 20.3001C79.1 20.4001 81.4 21.1001 83.3 23.1001C87.1 27.1001 86.2 31.5001 81.4 34.5001C78.7 36.2001 75.8 36.8001 73 37.1001C70.3 37.4001 67.1 38.4001 64.5 36.3001C60 36.5001 56.6 33.7001 52.7 32.3001C52.4 32.2001 52 31.0001 52.2 30.8001C53.1 29.6001 54.1 28.5001 55.4 27.6001C56.3 26.9001 57.3 27.5001 58.5 28.1001C62.6 30.2001 66.9 31.8001 71.6 31.3001C73.3 31.1001 75 30.8001 76.6 30.2001C77.2 30.0001 78.1 28.9001 78 28.4001C77.8 27.6001 76.9 27.0001 76.3 26.3001C76.2 26.2001 76 26.3001 75.8 26.3001C71.9 25.6001 68 25.3001 63.1 24.8001Z" fill="#070707"/>
<path d="M173 23C173 25.7 173 28.3 173 31C173 35.1 173 35.1 168.7 35C166 35 166 35 166 32.4C166 29.2 166 26.1 166 22.9C166 22.6 165.8 22.3 165.6 22.1C165.4 22.3 165.1 22.4 164.9 22.6C163.2 25.1 161.6 27.5 160 30.1C158.9 31.8 158 33.6 157 35.3C156.3 36.4 155.7 36.4 155 35.1C152.3 30.7 149.4 26.4 146.6 22.1C146.3 21.7 145.9 21.4 145.6 21C145.4 21.6 145.1 22.1 145.1 22.7C145.1 26.2 145 29.7 145.1 33.2C145.2 34.9 144.4 35.2 143.1 35C142.6 34.9 142.1 35 141.6 35C139.2 35 139.1 35 139.1 32.7C139.1 25.7 139.1 18.7 139.1 11.7C139.1 10.5 139.2 9.79998 140.7 9.89998C141.9 9.99998 143 10.1 144.2 9.89998C145.6 9.69998 146.5 10.4 147.1 11.4C149.8 15.6 152.5 19.8 155.1 24C155.9 25.3 156.4 25.3 157.1 24.2C159.4 20.7 161.2 16.8 163.8 13.5C164.8 12.3 165.4 10.5 166.8 10.1C168.5 9.59998 170.4 9.89998 172.3 9.99998C172.6 9.99998 173 10.9 173 11.4C173 15.4 173 19.2 173 23Z" fill="#070707"/>
<path d="M265 35C260.8 35 256.7 35 252.5 35C250 35 250.3 34.9 249.9 32.8C249.3 29.5 251.3 27.7 253.4 26.3C257.3 23.6 261.2 20.8 264.8 17.8C265.8 17 266.9 16.4 267.9 15.7C266.5 15.5 265.2 15.2 263.8 15.2C260 15.1 256.1 15.1 252.3 15.2C251.2 15.2 250.9 14.7 251 13.7C251.1 13 251 12.4 251 11.7C250.9 10.8 251.1 10.1 252.3 10.1C260.5 10.1 268.6 10.1 276.8 10.1C277.2 10.1 278 10.4 278 10.6C278.1 12.1 278.2 13.6 278 15.1C277.9 15.8 277.2 16.5 276.6 17C272 20.4 267.4 23.7 262.8 27.1C262.2 27.6 261.5 28.1 261 28.7C260.7 29 260.4 29.4 260.2 29.7C260.6 29.8 261.1 30.1 261.5 30.1C267 30.1 272.5 30.2 278 30.1C280 30 280.2 30.7 280.1 32.4C280 35.2 280.1 35.2 277.1 35.2C273 35 269 35 265 35Z" fill="#070707"/>
<path d="M312 20C312 22.7 312 25.3 312 28C312 31.7 310.1 34.4 306.8 35.8C305.3 36.4 303.4 35.3 302.3 37.1C297.8 37 293.2 37.7 288.8 36.1C284.6 34.6 282 30.8 282 26.3C282 21.7 282.1 17 282 12.4C282 10.9 282.4 9.49998 283.7 9.29998C285.2 9.09998 287.1 8.39998 288.3 9.99998C288.7 10.6 289 11.4 289 12.2C289.1 16.3 289 20.5 289 24.6C289 28 289.9 29.9 293.2 30.6C296 31.2 299 30.9 301.9 30.6C302.9 30.5 304.1 29.7 304.6 28.9C305.4 27.4 305.9 25.7 306 24C306.2 19.9 306.1 15.7 306.1 11.6C306.1 9.09997 306.1 9.09997 308.8 9.09997C309.5 9.09997 310.1 9.09997 310.8 9.09997C312 8.99997 312.1 9.69997 312.1 10.6C311.9 13.7 312 16.8 312 20Z" fill="#070707"/>
<path d="M90 22.7C90 18.9 90 15 90 11.2C90 10.8 90.6 10.1 91 9.99998C92 9.79998 93 9.99998 94 9.89998C95.5 9.69998 96 10.2 96 11.8C95.9 14.8 95.9 17.8 96 20.8C96 21.2 96.7 21.9 97.1 21.9C99.9 22 102.8 22 105.6 21.9C108.9 21.9 112.2 21.8 115.6 21.8C115.7 18.5 116.1 15.2 115.9 12C115.8 10.1 116.5 9.69998 118.2 9.89998C119 9.99998 119.9 9.99998 120.7 9.89998C121.9 9.79998 122 10.4 122 11.4C122 18.7 122 26 122 33.4C122 34.4 121.9 35 120.7 34.9C119.7 34.8 118.7 34.8 117.7 34.9C116.5 35 115.7 34.8 116 33.3C116 33.1 116 33 116 32.8C115.9 30.9 115.7 28.9 115.6 27C113.8 27 112 26.9 110.1 26.9C106.4 26.9 102.8 26.9 99.1 26.9C96.7 26.9 96 27.6 95.9 30.1C95.9 30.3 95.9 30.4 95.9 30.6C95.8 35.1 95.8 35 91.4 34.9C89.9 34.9 89.9 34.1 89.9 33.1C90 29.7 90 26.2 90 22.7Z" fill="#070707"/>
<path d="M134 22.5C134 26.3 133.8 30.1 134.1 33.9C134.2 35.9 133.4 36.1 131.8 36C131 35.9 130.1 36.1 129.3 36C127.9 35.8 126.9 35.1 127 33.5C127 33.2 127 32.8 127 32.5C127 25.9 127 19.2 127 12.6C127 9.69997 127.6 9.09997 130.3 9.09997C131 9.09997 131.6 9.09997 132.3 9.09997C133.5 8.99997 134.1 9.29997 134 10.7C133.9 14.6 134 18.5 134 22.5Z" fill="#070707"/>
<path d="M220.1 67.0001C220 67.0001 218.9 66.8001 217.9 66.4001C217.4 66.2001 217.3 65.4001 217 64.8001C217.5 64.5001 218 64.1001 218.5 64.0001C219.6 63.9001 220.8 64.0001 222 63.9001C222.7 63.9001 224.1 64.3001 223.9 63.2001C223.8 62.1001 225.3 60.3001 222.5 59.8001C220.8 59.5001 219.5 57.6001 217.9 56.5001C216.7 55.7001 216.8 54.5001 216.9 53.4001C217.2 50.3001 222.1 47.8001 224.8 49.4001C225.4 49.7001 225.6 50.7001 225.9 51.4001C225.3 51.6001 224.8 51.8001 224.2 51.9001C223.7 52.0001 223.2 52.0001 222.7 51.9001C221.3 51.6001 220.3 52.5001 220 53.5001C219.6 54.8001 220.8 55.4001 221.9 55.9001C222.6 56.2001 223.3 56.5001 224 56.9001C226.7 58.4001 228.2 61.7001 226.9 64.3001C226.3 65.5001 224.5 66.2001 223.1 66.9001C222.6 67.2001 221.8 67.0001 220.1 67.0001Z" fill="#070707"/>
<path d="M196 60.3001C196 60.1001 196 60.0001 196 59.8001C196 53.4001 196 53.3001 202.4 54.0001C204.8 54.3001 206.1 56.2001 207 58.4001C208.1 60.9001 207.9 63.4001 208 66.0001C208 67.3001 207 67.1001 206.3 67.0001C205.8 66.9001 205.1 66.4001 205.1 66.0001C205 64.5001 205.1 63.0001 205 61.5001C204.8 58.5001 203.2 57.1001 200.6 57.0001C199.2 57.0001 199 57.5001 199 58.7001C199.1 61.0001 199 63.3001 199 65.7001C199 66.8001 198.6 67.1001 197.5 67.1001C196.6 67.1001 195.9 67.1001 195.9 65.9001C196 63.9001 196 62.1001 196 60.3001Z" fill="#070707"/>
<path d="M69 58.2C69 57.9 69 57.5 69 57.2C69.1 54.9 69.1 52.6 69.2 50.3C71.8 50.2 74.4 50 77 50C77.3 50 77.7 50.5 78 50.7C77.6 51.1 77.3 51.8 76.9 51.9C75.6 52 74.2 51.8 72.9 52C71.7 52.2 71 53 70.9 54.4C70.8 55.8 71.7 56.7 72.7 56.9C74.1 57.2 75.7 56.9 77.2 57C77.5 57 77.9 57.7 77.9 58C77.9 58.3 77.4 58.9 77.1 58.9C76.1 59 75.1 58.9 74.1 59C71.5 59.1 70.8 60 70.9 62.7C70.9 63.8 71.4 64.1 72.4 64C73.9 63.9 75.4 64 76.9 64C78.2 64 78 65 77.9 65.7C77.8 66.2 77.3 66.9 76.9 66.9C74.6 67 72.3 67 69.9 66.9C69.5 66.9 69 66.1 68.9 65.7C69 63.2 69 60.7 69 58.2Z" fill="#070707"/>
<path d="M261 59.8001C261 53.3001 261 53.3001 267.4 54.0001C269.7 54.3001 271.1 56.1001 271.9 58.0001C272.7 60.0001 273.5 62.2001 273 64.5001C272.9 65.1001 272.6 65.7001 272.2 66.2001C271.8 66.6001 271.1 66.7001 270.5 67.0001C270.3 66.6001 270 66.2001 270 65.7001C269.9 64.0001 269.9 62.4001 270 60.7001C270.1 58.7001 268.6 57.8001 267.2 57.0001C265.4 56.0001 264 57.2001 264 59.4001C264 61.2001 264 63.1001 264 64.9001C264 65.6001 264.5 66.9001 263.2 66.8001C262.4 66.8001 261.4 65.9001 261.1 65.2001C260.7 64.4001 261 63.2001 261 62.2001C261 61.5001 261 60.6001 261 59.8001Z" fill="#070707"/>
<path d="M144 60.4C144 59.9 144 59.4 144 58.9C144.1 57.3 144.2 55.7 144.4 54.1C146.8 54.2 149.1 53.3 151.5 54.8C153.8 56.3 154.5 58.5 155 60.8C155.3 62.4 155 64.1 155.1 65.8C155.1 67 154.4 67 153.5 67C152.4 67 152 66.7 152.1 65.6C152.2 64.3 152.1 62.9 152.1 61.6C152 57.6 151.1 56.7 147.4 56.9C146.3 57 146.1 57.5 146.1 58.4C146.2 60.9 146.1 63.4 146.1 65.9C146.1 66.2 145.6 66.6 145.4 66.9C145 66.5 144.3 66.2 144.2 65.8C143.9 64.1 144 62.3 144 60.4Z" fill="#070707"/>
<path d="M86.5 62C86.2 62.3 86.1 62.4 86 62.5C85.7 62.9 85.2 63.2 85 63.6C84.5 65.5 83.4 66.7 81.5 66.9C80.7 67 81.2 65 83 62.5C84.6 60.3 84.5 59.1 82.6 57.1C82.4 56.9 82 56.7 81.9 56.4C81.6 55.7 81.1 55 81.2 54.4C81.3 53.7 83.4 54 84.2 54.7C86.4 57 86.4 57 88.8 54.8C89.1 54.5 89.6 54.1 90 54.1C90.3 54.1 91 54.6 91 54.8C90.9 55.4 90.5 55.9 90.2 56.4C89.5 57.8 88.1 59.2 88.2 60.5C88.3 61.8 89.8 63.1 90.8 64.3C91.2 64.8 91.8 65.2 92 65.8C92.1 66.1 91.5 66.9 91.1 67C90.1 67.3 89.1 66.9 88.6 66C88.1 65.1 87.6 64.1 87.1 63.1C86.9 62.7 86.7 62.4 86.5 62Z" fill="#070707"/>
<path d="M235.6 54C236.3 54 236.7 54 237 54C237.7 54.1 238.8 53.5 238.9 54.8C239 56.5 237.6 56 236.8 55.9C235 55.7 233.7 56.4 232.5 57.7C231.4 58.9 232.2 60.2 231.9 61.4C231.6 62.7 232.8 63.7 233.3 63.7C234.7 63.5 235.5 66.3 237.1 64.3C237.3 64 238.5 64 238.7 64.3C239.4 65.5 238.4 66.3 237.6 66.6C235.4 67.6 233.1 66.9 231.3 65.7C230.1 64.9 229.3 63.2 229 61.8C228.7 60.3 229.1 58.8 229.8 57.2C231.1 54.2 233.2 53.7 235.6 54Z" fill="#070707"/>
<path d="M99.8 54C100.6 54 101.5 53.9 102.3 54C102.6 54.1 103 54.6 103 54.9C103 55.2 102.6 55.8 102.3 55.9C100.4 56 98.5 55.6 97 57.5C95.6 59.2 95.8 61.1 96.4 62.5C96.9 63.7 98.9 64.2 100.2 64.9C100.4 65 100.8 64.7 101 64.5C101.7 63.8 102.5 63.5 103 64.4C103.6 65.5 102.5 66.5 101.8 66.7C100 67.1 97.9 67.7 96.5 65.7C95.4 64.2 93.2 63.5 93.2 61.1C93.2 58.7 93.9 56.9 95.5 55.1C96.6 53.6 98.2 54.1 99.8 54Z" fill="#070707"/>
<path d="M121 57.4C121 60.2 121 63 121 65.9C121 67.2 120 67.1 119.3 66.9C118.8 66.8 118.1 66.3 118.1 65.9C118 60.3 118.1 54.6 118 49C118 47.7 119 47.8 119.7 48C120.2 48.1 120.9 48.6 120.9 49C121.1 51.8 121 54.6 121 57.4Z" fill="#070707"/>
<path d="M162.4 54C163.7 54 164.1 54 164.4 54C165.2 54 166.2 53.9 166 55.1C165.9 55.5 165.1 55.9 164.6 55.9C163.2 55.9 162.2 56.2 161.1 57.2C159.5 58.8 159.7 60.7 160.2 62.2C160.6 63.5 161.9 65 163.8 64.9C164.4 64.9 165.1 65 165.7 65.1C165.9 65.1 166 65.7 166 65.9C166 66.2 165.8 66.6 165.6 66.7C162.6 67.6 159.2 66 157.8 63.1C156.2 59.8 157.1 56.1 160.1 54.3C161 53.9 162.2 54 162.4 54Z" fill="#070707"/>
<path d="M274.8 60.5001C274 57.4001 276.3 55.8001 278.2 54.4001C279.2 53.7001 281 54.0001 282.5 54.0001C283 54.0001 283.8 54.4001 283.9 54.8001C284.1 56.0001 283.2 56.0001 282.3 56.0001C281.6 56.0001 281 55.9001 280.3 56.0001C278.9 56.2001 277.9 56.9001 277.9 58.5001C277.9 60.8001 277.3 63.3001 280 64.6001C281 65.0001 282.2 64.8001 283.3 65.1001C283.6 65.2001 283.8 65.8001 283.8 66.3001C283.8 66.5001 283.5 67.0001 283.3 67.1001C280.8 67.8001 276.3 66.1001 275.2 63.9001C274.9 62.8001 275 61.6001 274.8 60.5001Z" fill="#070707"/>
<path d="M242 60.4C242 58.8 241.9 57.1 242 55.5C242 55 242.5 54.5 242.7 54C243.2 54.3 243.9 54.5 244.3 54.9C244.7 55.3 244.9 56 244.9 56.6C245 59.2 245 61.9 244.9 64.5C244.9 65.2 244.3 65.9 243.9 66.5C243.7 66.8 243 67 242.7 66.9C242.4 66.8 242.1 66.2 242.1 65.8C241.9 64 242 62.2 242 60.4Z" fill="#070707"/>
<path d="M127 58C127 60.3 127 62.6 127 65C127 65.3 126.5 65.7 126.3 66C125.9 65.6 125.1 65.3 125.1 64.9C125 59.9 125 55 125.1 50C125.1 49.7 125.6 49.3 125.8 49C126.2 49.4 127 49.7 127 50.1C127.1 52.7 127 55.4 127 58Z" fill="#070707"/>
<path d="M192 60.7C192 62.5 192 64.3 192 66.2C192 66.5 191.4 66.9 191 66.9C190.7 66.9 190.1 66.4 190 66.2C189.9 62.4 189.9 58.6 190 54.8C190 54.5 190.6 54.1 191 54.1C191.3 54.1 191.9 54.6 192 54.8C192 56.8 192 58.7 192 60.7Z" fill="#070707"/>
<path d="M243.3 52.1C242.7 51.8 242.2 51.7 242.2 51.6C242.1 50.8 242 49.5 242.2 49.4C243 49.1 243.9 49.3 244.8 49.3C244.7 49.9 244.7 50.5 244.4 51C244.2 51.5 243.6 51.8 243.3 52.1Z" fill="#070707"/>
<path d="M193.8 49.6C192.5 50.7 191.7 51.4 190.9 52C190.6 51.6 190.1 51.2 190 50.7C189.8 49.6 190 48.7 191.5 49C192 49.1 192.5 49.3 193.8 49.6Z" fill="#070707"/>
<path fill-rule="evenodd" clip-rule="evenodd" d="M221.85 34.9501C224.075 35.0251 226.3 35.1001 228.5 35.2001V35.1001H238C238.132 35.1001 238.261 35.1002 238.387 35.1002C242.902 35.1028 242.984 35.1028 246 31.6001C246.5 31.0001 247 30.2001 247 29.5001C247.3 24.5001 247.2 19.6001 244.1 15.2001C242 12.2001 239.7 10.0001 235.6 10.1001C231.6 10.1667 227.6 10.1445 223.6 10.1223C221.6 10.1112 219.6 10.1001 217.6 10.1001C216.382 10.1001 215.758 10.1001 215.437 10.4123C215.1 10.7409 215.1 11.4155 215.1 12.8001V21.802C215.1 26.1014 215.1 30.4007 215.2 34.7001C217.4 34.8001 219.625 34.8751 221.85 34.9501ZM221.3 29.8001H229.2C229.2 29.9001 229.2 29.9001 229.1 30.0001C229.705 30.0001 230.303 30.0064 230.897 30.0127C232.659 30.0314 234.38 30.0497 236.1 29.9001C237.074 29.8305 237.952 29.4219 238.833 29.0113C239.219 28.8319 239.605 28.6521 240 28.5001C239.803 27.5133 239.87 26.4954 239.938 25.4709C240.042 23.8998 240.147 22.3133 239.3 20.8001C237.3 17.2001 235 14.3001 230.3 15.0001C229.763 15.0672 229.181 15.0442 228.615 15.0218C228.337 15.0109 228.063 15.0001 227.8 15.0001C226.75 15.0001 225.675 15.0251 224.6 15.0501C223.525 15.0751 222.45 15.1001 221.4 15.1001L221.376 15.376C221.184 17.5765 221 19.6922 221 21.9001C221 23.7152 221.09 25.4851 221.18 27.2402C221.224 28.0958 221.267 28.9479 221.3 29.8001Z" fill="#070707"/>
<path fill-rule="evenodd" clip-rule="evenodd" d="M207.186 35.0218C207.463 35.0108 207.737 35 208 35C208.8 35 209.6 35 210.7 35.1C212.4 35 212.6 34.7 211.7 33.1C211.279 32.3735 210.815 31.6763 210.351 30.9804C209.603 29.8562 208.856 28.7353 208.3 27.5C206.814 24.2428 204.937 21.2469 203.059 18.251C201.651 16.0041 200.243 13.7571 199 11.4C198.6 10.7 197.4 10.1 196.6 10.1C194.5 10.1 192.4 10.3 190.3 10.5C190.3 10.5 190.3 10.8 190.2 10.9C189.2 12.4 188.2 14 187.2 15.6C186.335 16.9411 185.582 18.3571 184.828 19.775C183.839 21.6347 182.848 23.4978 181.6 25.2C180.397 26.8467 179.474 28.6939 178.553 30.5385C178.02 31.6064 177.487 32.6733 176.9 33.7C176.886 33.7193 176.87 33.7401 176.853 33.762C176.527 34.1936 175.853 35.0855 176.9 34.8C177.784 34.6106 178.787 34.7998 179.797 34.9903C181.986 35.4032 184.205 35.8216 185.3 32.4C185.3 32.1 186.4 32 187 32H200.4C202.1 32 203.7 32 204.1 34.2C204.1 34.6 205 34.9 205.5 35C206.037 35.0671 206.619 35.0441 207.186 35.0218ZM192.886 26.0218C193.163 26.0108 193.437 26 193.7 26H196C197.584 26 198.384 26 198.618 25.6361C198.857 25.2648 198.507 24.5149 197.8 23C197.602 22.6031 197.403 22.2 197.203 21.7938C196.597 20.5627 195.977 19.3031 195.3 18.1C194.4 16.6 193.7 16.7 192.8 18.3C191.9 20 190.9 21.8 189.9 23.5C189.803 23.6931 189.697 23.8965 189.586 24.107C189.353 24.5505 189.103 25.0253 188.9 25.5C189.035 25.5338 189.168 25.5676 189.298 25.601C189.94 25.7648 190.535 25.9169 191.2 26C191.737 26.0671 192.319 26.0442 192.886 26.0218Z" fill="#070707"/>
<path fill-rule="evenodd" clip-rule="evenodd" d="M130.6 63.7C131.5 65.7 133.4 68.0001 136.1 67.0001C139.3 67.0001 140.1 66.8 140.9 65.6001C141.1 65.3 141 64.7001 140.9 64.3001C140.9 64.1001 140.4 64.0001 140.1 64.0001C139.6 63.9001 139.1 63.9001 138.6 64.0001C135.6 64.9001 135 64.8001 133.5 62.8001C133.2 62.5001 133 61.8001 133.2 61.5001C133.3 61.2001 134 61.0001 134.4 61.0001H140.8C142.3 60.9001 142.5 60.2 141.7 59.1001C141.651 59.0515 141.597 59.003 141.541 58.953C141.366 58.7971 141.176 58.6273 141.1 58.4001C139.703 54.1105 139.501 54.1001 135.628 53.9015L135.6 53.9001C132.8 53.7001 131.3 55.6 130.6 57.2C129.8 59.1 129.7 61.9001 130.6 63.7ZM135 59H136C136.094 59 136.2 59.0056 136.311 59.0115C136.672 59.0305 137.094 59.0528 137.4 58.9C137.827 58.8289 138.202 58.6568 138.564 58.4914C138.711 58.4241 138.855 58.3579 139 58.3C138.877 58.0853 138.773 57.8424 138.671 57.603C138.44 57.0619 138.216 56.5387 137.8 56.4C136.8 56 135.6 55.8 134.6 56.1C133.9 56.3 133.1 57.4 133.1 58.2C133.1 59.089 133.759 59.045 134.385 59.0031C134.604 58.9885 134.819 58.9741 135 59Z" fill="#070707"/>
<path fill-rule="evenodd" clip-rule="evenodd" d="M286.6 63.8C287.6 65.8 289.5 68 292.1 67C292.527 66.9775 292.939 66.9853 293.333 66.9928C294.689 67.0187 295.825 67.0403 296.6 65.8C296.8 65.4 297 64.8 296.9 64.5C296.8 64.2 296.2 63.9 295.8 64C295.22 64.1054 294.668 64.2941 294.13 64.4783C293.646 64.6436 293.173 64.8054 292.7 64.9C291.3 65.1 288.7 62.9 289 61.7C289.273 60.5396 290.059 60.6838 290.848 60.8286C291.215 60.896 291.583 60.9635 291.9 60.9C292.297 60.8339 292.737 60.8552 293.192 60.8772C293.426 60.8885 293.663 60.9 293.9 60.9C297.2 60.9 297.2 60.9 296.9 57.7C296.7 55.2 294.9 54.2 291.8 53.9C289 53.6 287.2 55.5 286.4 57.3C285.6 59.1 285.7 62 286.6 63.8ZM291 59H294C294.7 59 295.3 58.9 294.6 58C294.379 57.735 294.236 57.3724 294.103 57.0329C293.934 56.6038 293.779 56.2117 293.5 56.1C292.6 55.8 291.4 55.7 290.6 56.1C289.9 56.5 289.1 57.5 289.1 58.3C289.1 59.1015 289.737 59.0536 290.354 59.0072C290.583 58.9899 290.81 58.9729 291 59Z" fill="#070707"/>
<path fill-rule="evenodd" clip-rule="evenodd" d="M179.3 57.8C178.3 55.3 177 53.6 174 54C172.5 53.9 171.3 54.1 170 55.3C168.2 56.9 167.7 58.6 167.9 60.9C168.2 65.4 173.7 68.6 177.7 66.7C178.1 66.5 178.5 66.1 178.7 65.7C178.9 65.3 178.8 64.8 178.7 64.4C178.7 64.3 178.2 64.1 177.9 64.1C177.4 64 176.7 63.9 176.5 64.1C175.7 65.2 174.5 65.4 173.5 64.9C172.654 64.5616 172.023 63.7222 171.425 62.9267C171.316 62.7819 171.208 62.6386 171.1 62.5C170.9 62.3 171.5 61.1 171.8 61.1C173.224 60.9501 174.703 60.9687 176.197 60.9874C176.697 60.9937 177.198 61 177.7 61C180.4 61 180.5 60.5 179.3 57.8ZM171.7 59H173.7C174.2 59 174.7 59 175.1 59.1C175.274 59.0751 175.479 59.0874 175.687 59.0998C176.316 59.1374 176.975 59.1767 176.9 58.2C176.8 57.5 176.2 56.7 175.6 56.3C174.3 55.5 172.3 56 171.3 57.2C171.1 57.5 171 58.1 171 58.5C171 58.7 171.4 59 171.7 59Z" fill="#070707"/>
<path fill-rule="evenodd" clip-rule="evenodd" d="M248 64.1C249.1 66.6 251.5 67.1 254 67C254.301 66.9769 254.606 66.9858 254.91 66.9947C255.921 67.0243 256.908 67.0532 257.6 65.9C257.768 65.5649 257.865 65.1597 257.951 64.8018C257.968 64.7325 257.984 64.6649 258 64.6C257.803 64.5344 257.585 64.4365 257.373 64.3417C256.94 64.1473 256.534 63.9656 256.4 64.1C254.257 65.8605 252.875 64.75 251.493 63.6389C251.069 63.2985 250.646 62.958 250.2 62.7C250 62.6 249.9 62.1 250 61.9C250.2 61.6 250.6 61.1 250.9 61.1C252.05 61.05 253.2 61.05 254.35 61.05C255.5 61.05 256.65 61.05 257.8 61C258.2 61 258.8 60.4 258.9 59.9C259.518 57.782 258.188 56.5985 256.905 55.4562C256.735 55.3041 256.564 55.1527 256.4 55C254.8 53.4 250.9 53.6 249.3 55.1C247.2 57.2 246.5 60.8 248 64.1ZM250.7 59H252.7C253.2 59 253.7 59 254.1 59.1C254.274 59.0751 254.479 59.0874 254.687 59.0998C255.316 59.1374 255.975 59.1767 255.9 58.2C255.8 57.5 255.2 56.7 254.6 56.3C253.3 55.5 251.3 56 250.3 57.2C250.1 57.5 250 58.1 250 58.5C250 58.7 250.4 59 250.7 59Z" fill="#070707"/>
<path fill-rule="evenodd" clip-rule="evenodd" d="M115.4 57.8C114.3 55.3 113 53.6 109.9 54C107.5 53.4 106.2 55 105.1 56.9C104.048 58.7409 104.379 60.428 104.747 62.2983C104.798 62.5616 104.851 62.8285 104.9 63.1C105.288 65.6226 107.088 66.2625 108.474 66.755C108.516 66.7701 108.558 66.7851 108.6 66.8C110.2 67.4 112.5 67.8 114.2 66.4C114.589 66.0886 114.736 65.4741 114.876 64.8869C114.916 64.7199 114.956 64.555 115 64.4C114.796 64.4 114.592 64.3769 114.392 64.3543C114.004 64.3102 113.63 64.2679 113.3 64.4C110.2 65.4 108.6 65 107.2 62.5C107 62.2 107.6 61.1 107.9 61.1C109.324 60.9501 110.803 60.9687 112.297 60.9874C112.797 60.9937 113.298 61 113.8 61C116.5 61 116.6 60.5 115.4 57.8ZM109.686 59.0211C109.797 59.0103 109.903 59 110 59C110.4 59 110.7 59 110.9 59.1C111.095 59.0721 111.329 59.0986 111.565 59.1254C112.176 59.1946 112.8 59.2654 112.8 58.4C112.8 57.6 112 56.6 111.3 56.2C110.771 55.8471 109.93 55.9612 109.19 56.0616C109.091 56.075 108.994 56.0882 108.9 56.1C107.9 56.2 106.5 57.7 107 58.3C107.296 58.5959 107.865 58.7276 108.425 58.8571C108.622 58.9026 108.818 58.9479 109 59C109.203 59.0678 109.453 59.0436 109.686 59.0211Z" fill="#070707"/>
<path fill-rule="evenodd" clip-rule="evenodd" d="M4.10001 22.3C3.90001 32.1 12.9 40.7 21.4 40C26.7 40.4 31 38 34.7 34.7C37.5065 32.2833 38.3682 28.8335 39.2276 25.3929C39.4706 24.42 39.7135 23.4478 40 22.5C39.7068 21.5576 39.4531 20.6021 39.2003 19.6499C38.2459 16.0553 37.3042 12.5089 34.3 9.90001C30.9 7.00001 27.2 5.20001 22.4 4.90001C12.7 4.30001 4.30001 12.9 4.10001 22.3ZM27.6733 20.0937C26.3814 20.1218 25.0508 20.1508 24.4 19.5C23.8527 18.8842 23.9139 17.6598 23.9751 16.4355C24.0034 15.8704 24.0316 15.3052 24 14.8V13.3C24.05 12.75 24.125 12.2 24.2 11.65C24.275 11.1 24.35 10.55 24.4 10C24.8069 10.0939 25.2529 10.1486 25.7043 10.204C26.6955 10.3255 27.713 10.4504 28.4 11C30.5 12.7 32.6 14.6 33.7 17.2C34.5 19 33.9 19.9 32 19.9H29L29.1 20.1C28.6571 20.0723 28.168 20.083 27.6733 20.0937ZM23.8822 28.5531C23.8261 27.2996 23.7694 26.0307 24.4 25.4001C25.067 24.7331 26.4478 24.835 27.7693 24.9325C28.2311 24.9665 28.6857 25.0001 29.1 25.0001H31.1C34.5411 24.7354 34.2454 25.5606 33.51 27.613L33.5096 27.6139C33.4116 27.8874 33.3058 28.1827 33.2 28.5001C32.4466 30.6767 30.8521 31.9422 29.2967 33.1768C28.9942 33.4169 28.6931 33.6558 28.4 33.9001C27.6 34.6001 25.9 36.0001 24.6 34.9001C24.1642 34.5369 24.1505 33.5931 24.1373 32.6823C24.1323 32.3393 24.1274 32.001 24.1 31.7001C24.0334 31.3667 24.0556 31.0334 24.0778 30.7001C24.0889 30.5334 24.1 30.3667 24.1 30.2001C24 30.1001 24 30.1001 23.9 30.1001C23.93 29.6212 23.9061 29.0885 23.8822 28.5531ZM19.1254 16.8637C19.097 16.3231 19.0683 15.7763 19.1 15.3C19.05 14.55 19.05 13.8 19.05 13.05C19.05 12.3 19.05 11.55 19 10.8C19 10.5 17.9 10 17.6 10.1C17.4815 10.1553 17.3624 10.2106 17.2429 10.2661L17.2417 10.2667C15.8483 10.9135 14.397 11.5872 13.2 12.6C12.1924 13.4244 11.5204 14.5845 10.8766 15.6958C10.8176 15.7977 10.7588 15.8992 10.7 16C10.2436 16.7172 9.95727 17.5619 9.67466 18.3956C9.52381 18.8406 9.37402 19.2824 9.20001 19.7L12.5 20H14C14.4701 19.9707 14.9748 19.9844 15.481 19.9983C16.6976 20.0315 17.9232 20.065 18.7 19.5C19.246 19.1588 19.1865 18.0257 19.1254 16.8637ZM19.2 29.6C18.962 30.3934 19.0702 31.3284 19.1688 32.1803C19.3187 33.4759 19.4463 34.5794 18.3 34.7C16.6 35 14.3 33.2001 12.7 31.9C11.7877 31.2158 11.2222 30.127 10.652 29.0291C10.4721 28.6829 10.2918 28.3357 10.1 28C8.40002 25.1 8.60003 25 11.8 24.9H14.3C14.7142 24.9 15.1816 24.8619 15.652 24.8236C16.8852 24.7231 18.1381 24.6209 18.5 25.2C19.1149 26.0198 19.123 27.213 19.1302 28.2694C19.1335 28.7593 19.1367 29.2198 19.2 29.6Z" fill="#FCFCFC"/>
</svg>
