<svg width="131" height="145" viewBox="0 0 131 145" fill="none" xmlns="http://www.w3.org/2000/svg">
<path d="M130.7 6.30296C129.3 3.70296 127.3 1.70296 124.7 0.302959C126.7 0.302959 129.5 -0.497041 130.5 0.502959C131.5 1.50296 130.7 4.30296 130.7 6.30296Z" fill="#F32B2E"/>
<path d="M3.00002 144.703C1.60002 145.103 0.300023 145.303 0.200023 143.203C0.100023 141.903 0.200023 140.503 0.200023 139.203C0.200023 100.003 0.200023 60.803 0.200023 21.603C0.200023 16.503 0.200022 16.503 5.30002 16.503C40 16.503 74.7 16.503 109.4 16.503C115.4 16.503 114.7 16.203 114.7 21.903C114.7 60.903 114.7 100.003 114.7 139.003C114.7 140.603 114.9 142.303 114.4 143.903C113.3 143.603 112.9 142.803 112.7 141.803C112.1 134.703 112.5 127.503 112.5 120.403C112.5 89.003 112.5 57.703 112.5 26.303C112.5 18.903 112.3 18.703 105.1 18.703C71.9 18.603 38.7 18.903 5.60002 18.603C5.10002 18.603 4.60002 18.703 4.20002 18.903C3.60002 19.803 3.40002 20.903 3.10002 21.903C2.70002 23.003 2.70002 24.203 2.70002 25.403C2.70002 63.803 2.60002 102.103 2.80002 140.503C2.90002 141.103 3.00002 141.603 3.20002 142.203C3.20002 143.003 3.30002 143.803 3.00002 144.703Z" fill="#F32B2E"/>
<path d="M3.00004 144.703C2.70004 144.103 2.40004 143.503 2.10004 142.903C3.70004 141.403 5.60004 141.703 7.60004 142.003C9.20004 142.503 10.8 142.603 12.5 142.603C43.7 142.603 74.8 142.603 106 142.603C107.2 142.603 108.3 142.603 109.5 142.303C110.4 142.103 111.3 142.003 112.2 142.103C112.8 142.303 113.3 142.503 113.8 142.903C114 143.203 114.2 143.503 114.4 143.803C114.1 145.203 112.9 144.903 112 144.903C76.3 144.903 40.7 144.903 5.00004 144.903C4.30004 144.903 3.60004 144.803 3.00004 144.703Z" fill="#F32B2E"/>
<path fill-rule="evenodd" clip-rule="evenodd" d="M121.9 16.1029C126.3 16.7029 128.8 13.8029 130.7 10.3029V6.30295C130 2.90295 128 0.902948 124.7 0.302948H120.7C120.247 0.801265 119.671 1.11488 119.092 1.42974C118.394 1.8099 117.692 2.19187 117.2 2.90295C115.5 5.20295 114.3 7.50295 115.5 10.6029C116.7 13.8029 118.8 15.7029 121.9 16.1029ZM116.8 8.20295C116.8 11.803 119.4 14.303 123.1 14.303C126.5 14.203 128.9 11.803 129 8.40295C129.1 4.70295 126.5 2.10295 122.8 2.20295C119.4 2.30295 116.8 4.90295 116.8 8.20295Z" fill="#F32B2E"/>
<path d="M112.7 142.903C112.7 103.203 112.7 63.503 112.7 23.903C112.7 18.503 112.7 18.503 107.3 18.503C74.4 18.503 41.6 18.503 8.7 18.503C6.9 18.503 5.1 18.403 3.2 18.303C2.7 18.103 1.5 18.003 2 17.403C2.5 16.903 3.9 17.203 4.9 17.203C39.6 17.203 74.3 17.203 109 17.203C113.6 17.203 113.7 17.203 113.7 21.803C113.7 62.203 113.7 102.503 113.7 142.903C113.4 142.903 113 142.903 112.7 142.903Z" fill="#F32B2E"/>
<path d="M1.90003 20.3029C2.00003 23.0029 2.10003 25.6029 2.10003 28.3029C2.10003 66.5029 2.10003 104.803 2.10003 143.003C0.400029 141.803 1.10003 140.003 1.10003 138.403C1.10003 100.603 1.10003 62.8029 1.10003 25.0029C1.10003 23.4029 0.400028 21.6029 1.90003 20.3029Z" fill="#F32B2E"/>
<path d="M7.20001 143.603C8.30001 143.503 9.50001 143.303 10.6 143.303C42.8 143.303 74.9 143.303 107.1 143.303C108.2 143.303 109.4 143.503 110.5 143.603C109.6 144.203 108.6 144.003 107.6 144.003C75.1 144.003 42.6 144.003 10.1 144.003C9.20001 144.003 8.20001 144.103 7.20001 143.603Z" fill="#F32B2E"/>
<path d="M12 58.203C14.9 67.803 22.5 71.303 31.4 73.103C41.3 75.103 51.5 75.303 61.6 76.103C63.8 76.303 65.9 76.603 68 77.003C70 77.403 71.6 78.203 71.7 80.303C71.8 82.403 70.2 83.503 68.3 84.103C61.9 86.203 55.8 85.403 50.3 81.403C48.1 79.803 46.1 79.2029 43.5 79.2029C33.9 79.3029 24.2 79.103 14.6 79.303C11.8 79.303 10.9 78.5029 11 75.7029C11.2 69.9029 11.1 64.103 11.2 58.303C11.4 57.703 11.7 57.703 12 58.203Z" fill="#F32B2E"/>
<path d="M102.9 70.803C99.1 62.003 91.7 58.503 82.9 57.203C75.2 56.003 67.5 55.003 59.7 55.103C55.7 55.203 51.8 54.503 47.9 53.503C46.1 53.103 44.2 52.303 44.1 50.103C44 47.603 46 46.603 48 46.303C54.5 45.303 61 44.903 66.3 49.803C67.9 51.203 69.5 51.203 71.3 51.203C80.9 51.203 90.5 51.303 100.2 51.103C102.9 51.103 104 51.803 103.9 54.703C103.7 60.003 103.8 65.203 103.8 70.503C103.6 70.703 103.3 70.703 102.9 70.803Z" fill="#F32B2E"/>
<path d="M11.1 49.1029C11.1 43.0029 11.1 36.8029 11 30.7029C10.9 28.1029 11.9 27.3029 14.4 27.3029C23.5 27.4029 32.6 27.3029 41.8 27.3029C40.6 28.6029 38.9 28.7029 37.4 29.1029C31.9 30.3029 26.7 32.303 21.9 35.403C16.8 38.703 13.3 43.0029 12 49.0029C11.7 49.6029 11.4 49.6029 11.1 49.1029Z" fill="#F32B2E"/>
<path d="M72.1 117.603C72.1 123.103 72.1 127.803 72.1 132.403C72.1 133.203 72 134.203 70.9 134.203C69.7 134.203 69.7 133.203 69.7 132.403C69.7 122.603 69.7 112.803 69.7 103.103C69.7 102.303 69.6 101.303 70.6 101.103C71.9 100.803 72.4 101.703 72.6 102.803C73.1 106.103 73.5 109.303 74.2 112.603C74.4 113.803 74.5 115.203 75.8 116.703C75.8 111.803 75.8 107.403 75.8 103.103C75.8 102.103 75.8 101.003 77.3 101.203C78.4 101.303 78.5 102.103 78.5 103.003C78.5 112.803 78.5 122.503 78.5 132.303C78.5 133.303 78.4 134.403 77.1 134.503C75.8 134.603 75.7 133.403 75.5 132.503C74.2 127.703 74.3 122.803 72.1 117.603Z" fill="#F32B2E"/>
<path d="M84.9 117.003C84.9 113.503 85 110.003 84.9 106.603C84.8 104.303 85.3 102.203 87.6 101.303C89.4 100.603 91.2 100.803 92.5 102.503C94.1 104.603 93.7 106.903 93.4 109.203C93.4 109.503 92.7 109.903 92.3 110.003C91.6 110.103 91 109.703 90.9 109.003C90.8 107.703 90.8 106.403 90.7 105.003C90.6 104.103 90 103.503 89 103.603C88.3 103.703 87.8 104.203 87.7 104.903C87.6 105.903 87.6 106.903 87.6 107.903C87.6 114.403 87.6 120.803 87.6 127.303C87.6 128.303 87.6 129.303 87.7 130.303C87.8 131.003 88.4 131.503 89 131.603C89.9 131.703 90.5 131.003 90.6 130.103C90.7 128.303 90.7 126.503 90.7 124.603C90.7 123.703 91.1 122.903 92.1 123.003C93.1 123.003 93.5 123.803 93.5 124.703C93.5 126.503 93.7 128.403 93.4 130.203C93.1 132.503 92 134.303 89.3 134.303C86.5 134.303 84.9 132.703 84.8 130.003C84.8 125.603 85 121.303 84.9 117.003Z" fill="#F32B2E"/>
<path d="M35.8 126.903C35.9 122.603 34.1 118.803 32.1 115.203C30.5 112.203 29.7 109.103 29.9 105.703C30.1 103.003 31.2 101.203 34 101.103C36.9 101.003 38.2 102.703 38.2 105.503C38.2 106.303 38.3 107.203 38.2 108.003C38.2 108.803 38.1 109.803 37.1 109.903C36 110.003 36 109.003 35.8 108.203C35.5 106.603 36.4 103.503 34 103.903C31.3 104.403 32.5 107.603 32.9 109.403C33.4 111.603 34.5 113.703 35.6 115.703C38 120.103 38.4 124.803 38.1 129.703C38 132.403 37 134.303 34 134.303C31.1 134.303 29.9 132.503 29.8 129.803C29.7 128.103 29.7 126.503 29.8 124.803C29.8 124.003 29.9 123.003 31 123.003C32 123.003 32.4 123.703 32.5 124.603C32.5 126.103 32.5 127.603 32.6 129.103C32.6 130.303 32.6 131.703 34.2 131.603C35.6 131.503 35.8 130.103 35.7 128.903C35.8 128.203 35.8 127.503 35.8 126.903Z" fill="#F32B2E"/>
<path d="M19.3 127.303C19.3 128.003 19.4 129.303 19.3 130.603C19.1 133.003 17.6 134.203 15.3 134.203C13 134.203 11.4 133.103 11.2 130.703C11 128.603 11.1 126.403 11.1 124.203C11.1 123.503 11.5 122.903 12.3 123.003C13 123.003 13.6 123.503 13.6 124.203C13.7 126.003 13.7 127.803 13.8 129.703C13.8 130.503 13.9 131.503 15 131.503C16.2 131.603 16.7 130.703 16.8 129.603C17.4 124.603 16.1 120.103 13.6 115.803C11.7 112.503 10.8 109.203 11 105.403C11.1 103.103 12 101.603 14.3 101.103C16.1 100.703 17.8 101.103 18.6 102.803C19.7 104.903 19.9 107.303 18.8 109.503C18.3 110.503 17.3 110.003 17 109.103C16.7 108.203 16.8 107.103 16.8 106.103C16.7 104.903 16.5 103.503 15 103.703C13.5 103.803 13.8 105.403 13.7 106.503C13.4 110.003 15.3 112.903 16.7 115.803C18.5 119.103 19.7 122.703 19.3 127.303Z" fill="#F32B2E"/>
<path d="M95.5 127.503C95.5 126.703 95.5 125.803 95.5 125.003C95.5 124.203 95.5 123.203 96.5 123.103C98 122.903 97.9 124.203 97.9 125.103C97.9 125.903 97.8 126.803 97.9 127.603C98 129.103 97.3 131.603 99.7 131.503C102 131.403 101 128.903 101.1 127.403C101.5 122.903 99.7 119.003 97.6 115.203C96 112.403 95.2 109.403 95.4 106.203C95.6 102.703 96.8 101.103 99.5 101.103C102.3 101.103 103.8 103.003 103.8 106.603C103.8 107.103 103.8 107.603 103.8 108.103C103.7 108.903 103.9 109.903 102.7 110.003C101.3 110.103 101.2 109.003 101.1 108.003C101 107.003 101 106.003 100.9 105.003C100.8 104.303 100.2 103.803 99.5 103.803C98.8 103.803 98.3 104.303 98.1 104.903C97.6 106.403 97.6 107.903 98.2 109.303C99.1 111.603 100 113.903 101.2 116.103C103.6 120.303 104.1 124.903 103.7 129.603C103.5 133.103 102 134.603 99.3 134.403C96.3 134.203 95.4 132.403 95.4 129.703C95.5 128.803 95.5 128.203 95.5 127.503Z" fill="#F32B2E"/>
<path d="M24.5 109.203C26.1 106.803 25.7 104.603 26.2 102.603C26.4 101.803 26.7 100.903 27.7 101.003C29.2 101.103 28.9 102.303 28.7 103.203C28.5 104.303 28.3 105.503 28 106.603C26.3 114.603 25.6 122.603 26 130.703C26 131.503 26 132.403 25.9 133.203C25.8 133.903 25.4 134.503 24.7 134.403C24 134.303 23.4 133.903 23.3 133.203C23.2 132.403 23.2 131.503 23.2 130.703C23.5 121.903 22.9 113.203 21.1 104.603C21 104.103 21 103.603 20.9 103.103C20.8 102.303 20.6 101.303 21.6 101.103C22.7 100.803 22.9 101.803 23 102.603C23.5 104.603 24 106.603 24.5 109.203Z" fill="#F32B2E"/>
<path d="M42.3 118.603C42.3 114.803 42.4 111.003 42.3 107.203C42.3 105.603 43.1 103.603 40.3 102.903C39.2 102.603 39.4 101.203 40.8 101.003C42.8 100.803 44.8 101.003 46.7 101.003C47.1 101.003 47.6 101.303 47.7 101.903C47.8 102.503 47.3 103.003 47 103.003C44.3 103.103 45 105.103 45 106.703C45 114.303 45 122.003 45 129.603C45 130.603 45 131.603 45 132.603C45 133.403 45.2 134.403 44.1 134.603C42.8 134.703 42.4 133.803 42.4 132.703C42.3 127.903 42.3 123.203 42.3 118.603Z" fill="#F32B2E"/>
<path d="M82.8 117.603C82.8 122.403 82.8 127.203 82.8 132.003C82.8 132.903 83 134.203 81.6 134.203C80.3 134.203 80.2 133.003 80.2 132.003C80.2 122.403 80.2 112.803 80.2 103.203C80.2 102.203 80.2 101.003 81.5 101.003C82.9 101.003 82.8 102.203 82.8 103.203C82.8 108.003 82.8 112.803 82.8 117.603Z" fill="#F32B2E"/>
<path d="M11.1 49.103C11.4 49.103 11.7 49.103 11.9 49.103C11.9 52.103 11.9 55.103 11.9 58.103H11.5H11.1C11.1 55.203 11.1 52.203 11.1 49.103Z" fill="#F32B2E"/>
<path fill-rule="evenodd" clip-rule="evenodd" d="M124.487 10.7946C124.836 11.3132 125.172 11.8115 125.5 12.003C126.584 11.0992 126.362 10.1955 126.145 9.31371C126.002 8.73184 125.861 8.1595 126.1 7.60295C127.1 5.10295 125.5 4.40295 123.4 4.30295C123.165 4.30295 122.912 4.28018 122.655 4.25699C121.705 4.17152 120.693 4.08041 120.3 5.10295C119.5 7.10295 119.7 9.30295 120.2 11.403C120.3 11.803 121.1 12.103 121.3 11.603C122.535 7.89809 123.559 9.41766 124.487 10.7946ZM121.9 6.50295C121.8 7.20295 122.3 7.60295 123.1 7.80295C123.209 7.75956 123.331 7.72557 123.457 7.69079C123.91 7.56529 124.4 7.42936 124.4 6.80295C124.4 6.10295 123.8 5.70295 123.2 5.60295C122.6 5.50295 122 5.70295 121.9 6.50295Z" fill="#F32B2E"/>
<path fill-rule="evenodd" clip-rule="evenodd" d="M67.8 129.003V106.203C67.7 102.703 66 100.803 63.3 101.003C60.2 101.203 59.2 103.203 59.2 106.103C59.2 108.636 59.1889 111.17 59.1778 113.703C59.1556 118.77 59.1334 123.836 59.2 128.903C59.2 132.503 60.9 134.403 63.7 134.203C66.8 133.903 67.8 131.803 67.8 129.003ZM65 128.803V106.003C65 105.949 65.0003 105.893 65.0005 105.837C65.0053 104.759 65.0112 103.413 63.3 103.603C62.1 103.703 61.8 104.703 61.8 105.803V129.103C61.8 130.403 62.1 131.603 63.6 131.503C65.0825 131.416 65.0441 130.264 65.01 129.241C65.005 129.091 65 128.944 65 128.803Z" fill="#F32B2E"/>
<path fill-rule="evenodd" clip-rule="evenodd" d="M49.0001 104.303V117.203C49.0001 118.807 48.9889 120.41 48.9778 122.01C48.9556 125.199 48.9335 128.373 49.0001 131.503C49.0001 131.696 48.9847 131.903 48.9691 132.115C48.8955 133.114 48.8152 134.203 50.3001 134.203C51.8411 134.203 51.8208 132.97 51.8036 131.92C51.8018 131.812 51.8001 131.706 51.8001 131.603V120.203C51.8001 120.147 51.7996 120.089 51.7991 120.03C51.7924 119.254 51.7843 118.31 52.9001 118.403C53.7001 118.503 54.3001 119.203 54.4001 120.103C54.5001 121.403 54.5001 122.803 54.5001 124.103C54.5501 125.503 54.5501 126.903 54.5501 128.303C54.5501 129.703 54.5501 131.103 54.6001 132.503C54.6001 133.403 54.9001 134.203 56.0001 134.103C56.8001 134.003 56.9001 133.303 56.9001 132.603V106.603C56.9001 106.354 56.9062 106.1 56.9124 105.844C56.9312 105.069 56.9504 104.279 56.8001 103.603C56.1025 100.987 54.1124 100.956 52.0894 100.925C51.7923 100.92 51.4945 100.916 51.2001 100.903C48.8653 100.816 48.9233 102.226 48.9818 103.643C48.9909 103.865 49.0001 104.087 49.0001 104.303ZM51.6778 108.603C51.6889 108.77 51.7 108.936 51.7 109.103C51.7 109.83 51.6731 110.53 51.6472 111.203C51.6231 111.826 51.6 112.426 51.6 113.003C51.6193 113.195 51.62 113.41 51.6207 113.631C51.6239 114.556 51.6273 115.584 53 115.503C54.4 115.403 54.6 114.003 54.6 112.803C54.6 112.273 54.611 111.733 54.622 111.188C54.6443 110.088 54.6669 108.973 54.6 107.903C54.576 107.494 54.6098 107.021 54.6444 106.537C54.7537 105.012 54.8706 103.379 53.2 103.303C51.4036 103.236 51.555 104.498 51.7102 105.792C51.7883 106.442 51.8674 107.101 51.7 107.603C51.6334 107.936 51.6556 108.27 51.6778 108.603Z" fill="#F32B2E"/>
</svg>
