<svg width="360" height="78" viewBox="0 0 360 78" fill="none" xmlns="http://www.w3.org/2000/svg">
<path d="M148.208 16.583C151.735 12.2912 156.427 10.728 161.149 12.206C165.017 13.4281 167.406 16.4978 167.463 20.5338C167.548 24.6551 167.434 28.7764 167.52 32.8976C167.548 35.5978 167.747 38.2695 167.861 41.0834C164.476 41.0834 161.063 41.0834 157.451 41.0834C157.451 40.5433 157.451 40.0602 157.451 39.5485C157.451 34.4325 157.48 29.3164 157.423 24.2003C157.423 22.9781 157.252 21.7275 156.939 20.5622C156.484 18.9421 155.29 18.0894 153.697 18.0894C152.047 18.0894 150.512 18.5726 149.886 20.2496C149.516 21.2444 149.317 22.3528 149.317 23.4329C149.26 28.7764 149.289 34.1482 149.289 39.4917C149.289 40.0033 149.289 40.5149 149.289 41.1118C145.933 41.1118 142.69 41.1118 139.249 41.1118C139.22 40.6286 139.164 40.1454 139.164 39.6338C139.164 34.5177 139.192 29.4017 139.135 24.2856C139.135 23.0634 139.021 21.8128 138.708 20.6475C138.31 19.0274 137.116 18.1463 135.495 18.1179C133.845 18.0894 132.309 18.5158 131.627 20.1927C131.228 21.2159 131.029 22.3813 131.029 23.4897C130.972 29.3164 131.001 35.143 131.001 41.0834C127.616 41.0834 124.289 41.0834 120.876 41.0834C120.876 31.5902 120.876 22.1539 120.876 12.6323C124.118 12.6323 127.303 12.6323 130.688 12.6323C130.688 13.8829 130.688 15.0766 130.688 16.2704C130.773 16.3272 130.887 16.4125 130.972 16.4694C132.992 13.2292 135.978 11.9786 139.59 11.9217C143.316 11.8365 146.302 13.0871 148.208 16.583Z" fill="#EE4237"/>
<path d="M65.6995 41.1118C62.1728 41.1118 58.8167 41.1118 55.29 41.1118C55.2615 40.6002 55.2047 40.0886 55.2047 39.6054C55.2047 34.4325 55.2047 29.288 55.1762 24.115C55.1762 23.035 55.0909 21.9265 54.8349 20.8749C54.3799 18.999 53.2138 18.0894 51.422 18.0326C49.488 17.9758 47.9806 18.8853 47.4686 20.6191C47.1842 21.557 47.0989 22.5802 47.0989 23.5466C47.0704 28.8616 47.0704 34.1482 47.0704 39.4633C47.0704 39.9749 47.0704 40.4865 47.0704 41.0549C43.629 41.0549 40.3298 41.0549 36.9738 41.0549C36.9738 27.3837 36.9738 13.7692 36.9738 0.0694809C40.273 0.0694809 43.5722 0.0694809 47.042 0.0694809C47.042 5.01502 47.042 9.98899 47.042 15.4177C49.6586 12.5186 52.6449 11.5522 56.0579 11.6659C61.5471 11.8365 65.3013 15.6167 65.3298 21.0738C65.3582 25.6214 65.3013 30.1691 65.3582 34.7167C65.4151 36.82 65.5858 38.8664 65.6995 41.1118Z" fill="#EE4237"/>
<path d="M278.213 0.0694809C281.598 0.0694809 284.869 0.0694809 288.31 0.0694809C288.31 5.10029 288.31 10.0174 288.31 15.2756C290.301 13.3997 292.292 12.206 294.738 11.7796C300.369 10.8132 305.289 13.7976 306.399 18.9421C306.456 19.2263 306.541 19.5106 306.541 19.7948C306.541 26.8436 306.541 33.8924 306.541 41.0549C303.469 41.0549 300.085 41.0549 296.501 41.0549C296.473 40.6002 296.416 40.0886 296.416 39.6054C296.416 34.4325 296.444 29.288 296.387 24.115C296.387 22.9497 296.274 21.756 295.989 20.6191C295.591 18.999 294.425 18.1179 292.804 18.0894C291.154 18.0326 289.59 18.4589 288.936 20.1359C288.538 21.1591 288.338 22.3244 288.31 23.4329C288.253 28.7764 288.282 34.1198 288.282 39.4917C288.282 40.0033 288.282 40.5149 288.282 41.1118C284.84 41.1118 281.569 41.1118 278.185 41.1118C278.213 27.4405 278.213 13.826 278.213 0.0694809Z" fill="#EE4237"/>
<path d="M208.788 0.0694809C217.861 0.0694809 226.848 0.0694809 235.978 0.0694809C235.238 2.40014 234.556 4.67395 233.759 6.86249C233.646 7.20357 232.906 7.51622 232.48 7.51622C228.697 7.57306 224.914 7.54464 221.103 7.54464C220.591 7.54464 220.079 7.54464 219.51 7.54464C219.51 10.8701 219.51 14.025 219.51 17.322C223.094 17.322 226.678 17.322 230.46 17.322C229.664 19.8516 228.981 22.1823 228.185 24.4845C228.1 24.7403 227.417 24.9393 227.019 24.9677C224.573 25.0246 222.099 24.9961 219.453 24.9961C219.453 30.368 219.453 35.6831 219.453 41.0834C215.785 41.0834 212.315 41.0834 208.76 41.0834C208.788 27.4121 208.788 13.826 208.788 0.0694809Z" fill="#EE4237"/>
<path d="M11.8316 7.68675C9.64162 7.68675 7.70761 7.68675 5.74515 7.68675C3.86802 7.68675 1.96245 7.68675 0 7.68675C0 5.10029 0 2.62752 0 0.0694809C11.4903 0.0694809 22.9237 0.0694809 34.4425 0.0694809C34.4425 2.5991 34.4425 5.10029 34.4425 7.68675C30.4322 7.68675 26.5073 7.68675 22.4687 7.68675C22.4687 18.8569 22.4687 29.9417 22.4687 41.0549C18.8851 41.0549 15.4437 41.0549 11.8316 41.0549C11.8316 29.9985 11.8316 18.9421 11.8316 7.68675Z" fill="#EE4237"/>
<path d="M274.971 21.1022C271.786 21.1022 268.742 21.1022 265.557 21.1022C265.472 20.5906 265.529 19.9653 265.244 19.6243C264.704 18.9137 264.078 18.061 263.31 17.7768C262.229 17.3789 260.949 17.322 260.011 18.3453C258.902 19.539 259.158 21.2159 260.693 21.8697C262.172 22.495 263.737 22.8645 265.273 23.3476C267.064 23.9161 268.913 24.3993 270.676 25.0814C273.464 26.1615 275.199 28.1511 275.54 31.1639C275.91 34.603 275.142 37.7011 272.013 39.5485C270.307 40.5433 268.316 41.2823 266.353 41.6234C262.684 42.2487 258.987 42.1919 255.403 40.9981C251.336 39.6622 249.288 36.3936 249.687 31.9597C252.787 31.9597 255.915 31.9597 259.072 31.9597C259.158 32.4145 259.215 32.8692 259.3 33.324C259.869 35.9104 263.168 36.9621 265.159 35.1999C266.211 34.2619 266.325 32.4713 265.159 31.5902C264.22 30.8512 263.054 30.3396 261.916 29.9133C259.67 29.089 257.309 28.4921 255.062 27.611C251.877 26.3604 249.715 24.1719 249.744 20.5054C249.772 16.8104 251.734 14.3661 255.091 13.0586C259.755 11.2396 264.533 11.1543 269.283 12.7744C273.065 14.025 275.056 17.0662 274.971 21.1022Z" fill="#EE4237"/>
<path d="M99.3172 12.547C102.56 12.547 105.802 12.547 109.186 12.547C109.3 14.1103 109.385 15.6451 109.499 17.5778C111.263 13.3144 114.448 12.1207 118.458 12.2344C118.458 15.1051 118.458 17.8905 118.458 20.8464C117.605 20.8464 116.752 20.7896 115.927 20.8464C111.547 21.1591 109.585 23.1202 109.471 27.5258C109.385 31.5049 109.442 35.4841 109.414 39.4633C109.414 39.9749 109.414 40.4865 109.414 41.0834C106.029 41.0834 102.73 41.0834 99.2888 41.0834C99.3172 31.5902 99.3172 22.1539 99.3172 12.547Z" fill="#EE4237"/>
<path d="M340.614 12.547C343.827 12.547 347.07 12.547 350.511 12.547C350.568 13.9397 350.653 15.3324 350.739 17.1799C352.474 12.9449 355.602 11.6091 359.669 11.6943C359.669 14.565 359.669 17.4073 359.669 20.278C358.702 20.3348 357.764 20.3348 356.825 20.4201C353.042 20.818 351.08 22.7508 350.909 26.5878C350.71 30.8796 350.767 35.1999 350.71 39.5201C350.71 40.0317 350.71 40.5433 350.71 41.1118C347.297 41.1118 344.055 41.1118 340.585 41.1118C340.614 31.5902 340.614 22.1539 340.614 12.547Z" fill="#EE4237"/>
<path d="M236.888 12.547C240.216 12.547 243.458 12.547 246.814 12.547C246.814 22.0402 246.814 31.4765 246.814 41.0265C243.543 41.0265 240.273 41.0265 236.888 41.0265C236.888 31.5902 236.888 22.1539 236.888 12.547Z" fill="#EE4237"/>
<path d="M162.286 57.6538C162.286 63.9352 162.286 70.1881 162.286 76.498C161.234 76.498 160.096 76.498 158.873 76.498C158.873 68.7954 158.873 61.0929 158.873 53.2198C160.182 53.2198 161.547 53.1346 162.884 53.2767C163.282 53.3051 163.68 53.8735 163.964 54.2715C168.231 60.0981 172.497 65.9248 176.621 71.5809C176.479 65.6974 176.308 59.5581 176.166 53.3335C177.474 53.3335 178.64 53.3335 179.863 53.3335C179.863 60.9792 179.863 68.6817 179.863 76.5832C178.754 76.5832 177.559 76.6685 176.422 76.5264C175.967 76.4696 175.512 75.9579 175.199 75.5316C170.961 69.7334 166.78 63.8783 162.571 58.0801C162.457 57.8811 162.343 57.739 162.286 57.6538Z" fill="#060606"/>
<path d="M10.438 74.8495C10.9499 73.9968 11.4334 73.1725 11.9454 72.2914C14.7611 73.6273 17.6337 74.4231 20.6484 74.1673C21.9283 74.0536 23.2366 73.6557 24.4311 73.1441C25.6257 72.6325 26.3651 71.6093 26.3651 70.245C26.3651 68.8523 25.6257 67.8575 24.4027 67.4027C22.6109 66.7206 20.7053 66.2658 18.8566 65.6974C17.6336 65.3279 16.3822 65.0721 15.2161 64.5605C13.0546 63.6225 11.4619 62.0877 11.3197 59.5865C11.2059 56.9432 12.628 55.1242 14.8748 53.9304C18.1172 52.225 21.5586 52.3103 24.9715 53.0493C26.5642 53.3904 28.1001 54.0441 29.835 54.6125C29.1524 55.6358 28.6405 56.4032 28.0716 57.2559C25.455 55.8916 22.7247 55.1526 19.8521 55.5221C18.7997 55.6358 17.6905 55.9484 16.7804 56.4884C14.818 57.6538 14.818 60.155 16.8657 61.1498C18.5438 61.974 20.4209 62.3151 22.2127 62.912C23.8623 63.452 25.5972 63.8215 27.1615 64.5889C30.9442 66.4648 31.6268 70.8987 28.7542 73.9684C26.9909 75.8727 24.6871 76.5833 22.1558 76.8959C18.2878 77.3507 13.595 76.5833 10.438 74.8495Z" fill="#060606"/>
<path d="M138.054 53.2767C137.884 54.2146 137.741 55.0673 137.571 56.0337C133.276 56.0337 128.982 56.0337 124.63 56.0337C124.63 58.3643 124.63 60.5813 124.63 62.912C128.299 62.912 131.911 62.912 135.58 62.912C135.58 63.9068 135.58 64.731 135.58 65.7258C131.939 65.7258 128.327 65.7258 124.658 65.7258C124.658 68.426 124.658 70.9556 124.658 73.6557C129.266 73.6557 133.845 73.6557 138.452 73.6557C138.452 74.6789 138.452 75.5316 138.452 76.4696C132.594 76.4696 126.792 76.4696 120.904 76.4696C120.904 68.7386 120.904 61.0645 120.904 53.2767C126.592 53.2767 132.252 53.2767 138.054 53.2767Z" fill="#060606"/>
<path d="M350.227 72.6325C350.824 73.3431 351.364 73.9684 351.99 74.7358C349.715 76.2138 347.24 76.7822 344.681 76.8959C340.699 77.0665 336.945 76.3275 333.845 73.5989C328.867 69.2218 329.01 60.894 334.044 56.3179C338.566 52.2535 346.33 51.5429 351.308 54.8115C350.909 55.2947 350.483 55.721 350.142 56.2327C349.686 56.9148 349.26 57.0001 348.52 56.6306C346.046 55.38 343.458 55.2094 340.784 55.9484C337.172 56.9716 335.068 59.416 334.499 63.0257C334.101 65.6121 334.186 68.227 335.807 70.5292C338.111 73.7694 342.747 75.1337 347.184 73.7694C348.179 73.4568 349.146 73.0589 350.227 72.6325Z" fill="#060606"/>
<path d="M70.7336 72.6325C71.274 73.2862 71.8429 73.9684 72.4686 74.7358C70.1364 76.2138 67.6335 76.7822 65.0169 76.8959C61.1774 77.038 57.5369 76.3275 54.5221 73.7694C48.8622 68.966 49.488 59.5865 55.8019 55.3515C60.4663 52.225 65.5004 51.884 70.6768 54.1294C71.0465 54.2999 71.3878 54.5557 71.786 54.7831C71.6153 55.0389 71.4447 55.2094 71.3309 55.4084C70.5914 56.7727 69.6813 56.9432 68.1739 56.3179C62.6563 54.0725 56.8827 56.5737 55.29 61.7182C54.0101 65.8679 55.0625 70.1882 58.1057 72.4051C61.0351 74.5368 64.3628 74.6505 67.7473 73.741C68.7428 73.4852 69.6813 73.0304 70.7336 72.6325Z" fill="#060606"/>
<path d="M267.861 53.2198C273.492 53.2198 279.038 53.2198 284.755 53.2198C284.613 54.1294 284.47 54.982 284.328 55.9484C280.09 55.9484 275.881 55.9484 271.615 55.9484C271.615 58.2791 271.615 60.4676 271.615 62.7983C275.142 62.7983 278.668 62.7983 282.28 62.7983C282.28 63.7646 282.28 64.6457 282.28 65.5837C278.725 65.5837 275.227 65.5837 271.586 65.5837C271.586 69.2218 271.586 72.803 271.586 76.4411C270.278 76.4411 269.112 76.4411 267.861 76.4411C267.861 68.7386 267.861 61.0361 267.861 53.2198Z" fill="#060606"/>
<path d="M211.774 76.4696C210.438 76.4696 209.328 76.4696 208.105 76.4696C208.105 69.6766 208.105 62.912 208.105 56.0621C205.233 56.0621 202.446 56.0621 199.545 56.0621C199.545 55.0957 199.545 54.2431 199.545 53.2767C206.57 53.2767 213.595 53.2767 220.762 53.2767C220.648 54.1578 220.534 55.0105 220.392 55.9768C217.491 55.9768 214.675 55.9768 211.746 55.9768C211.774 62.8551 211.774 69.5913 211.774 76.4696Z" fill="#060606"/>
<path d="M96.7006 76.498C95.5061 76.498 94.3684 76.498 93.1454 76.498C93.1454 68.767 93.1454 61.0929 93.1454 53.3051C94.2831 53.3051 95.4492 53.3051 96.7006 53.3051C96.7006 60.9508 96.7006 68.6533 96.7006 76.498Z" fill="#060606"/>
<path d="M240.045 53.2483C241.24 53.2483 242.349 53.2483 243.572 53.2483C243.572 60.9508 243.572 68.6818 243.572 76.4696C242.434 76.4696 241.268 76.4696 240.045 76.4696C240.045 68.767 240.045 61.0645 240.045 53.2483Z" fill="#060606"/>
<path d="M304.635 76.4127C304.635 68.6533 304.635 61.0076 304.635 53.2767C305.83 53.2767 306.996 53.2767 308.247 53.2767C308.247 60.9508 308.247 68.6249 308.247 76.4127C307.11 76.4127 305.915 76.4127 304.635 76.4127Z" fill="#060606"/>
<path d="M249.317 0.0126323C248.521 2.51383 247.838 4.75922 247.07 6.97618C246.985 7.20356 246.615 7.48779 246.359 7.48779C243.287 7.51621 240.216 7.51621 236.917 7.51621C237.713 5.01502 238.424 2.68436 239.192 0.382127C239.249 0.183168 239.704 0.0126323 239.988 0.0126323C243.003 -0.0157904 246.046 0.0126323 249.317 0.0126323Z" fill="#EE4237"/>
<path fill-rule="evenodd" clip-rule="evenodd" d="M183.349 41.8097C184.019 41.9108 184.689 42.0118 185.352 42.135C192.548 41.936 197.554 39.0654 199.715 33.6082C201.109 30.0838 201.251 26.4173 200.512 22.7223C199.402 17.2936 196.132 13.826 190.813 12.3765C186.973 11.3248 183.105 11.3817 179.323 12.6039C175.085 13.9397 172.184 16.7536 170.847 21.0454C169.681 24.7972 169.681 28.5774 170.79 32.3576C172.099 36.7915 174.971 39.7191 179.38 41.0265C180.669 41.4055 182.009 41.6076 183.349 41.8097ZM180.455 28.6071C180.367 27.9883 180.28 27.3707 180.176 26.7583C180.176 26.758 180.176 26.7576 180.176 26.7572C180.269 26.1679 180.349 25.5811 180.429 24.999C180.617 23.6178 180.802 22.2631 181.142 20.9645C181.142 20.9631 181.143 20.9616 181.143 20.9601C181.18 20.8233 181.221 20.6908 181.266 20.5624C181.937 18.6374 183.425 17.6631 185.239 17.6631C187.457 17.6631 189.078 18.686 189.732 20.9021C189.732 20.9025 189.732 20.9029 189.732 20.9033C189.763 21.0063 189.793 21.1093 189.823 21.2123C190.926 25.0913 190.894 29.0215 189.647 32.8976C188.964 35.0577 187.514 35.9388 185.352 35.9104C185.352 35.9104 185.353 35.9104 185.352 35.9104C183.334 35.882 181.826 34.9445 181.257 32.842C181.257 32.8416 181.257 32.8412 181.257 32.8408C180.861 31.4549 180.657 30.0277 180.455 28.6071Z" fill="#EE4237"/>
<path fill-rule="evenodd" clip-rule="evenodd" d="M337.826 31.7323H328.327C328.273 31.9106 328.231 32.0665 328.193 32.207C328.17 32.2906 328.149 32.3687 328.128 32.4429C327.445 34.8304 325.881 36.0526 323.492 36.0526C321.245 36.0526 319.681 34.802 319.14 32.3576C318.975 31.6411 318.905 30.8891 318.829 30.086C318.788 29.6466 318.746 29.1919 318.685 28.7195H338.054C338.082 25.5078 337.826 22.5234 336.831 19.6243C335.466 15.6451 332.735 13.0586 328.583 12.2628C326.45 11.8649 324.26 11.6659 322.098 11.7512C315.5 12.0354 310.665 16.1283 309.47 22.3528C308.816 25.8772 309.044 29.4017 309.897 32.8976C311.063 37.6726 314.135 40.6002 318.913 41.396C321.501 41.8224 324.203 41.936 326.82 41.7087C330.517 41.4244 333.731 39.8043 336.006 36.7063C337.058 35.2567 337.713 33.6082 337.826 31.7323ZM326.462 18.0108C327.917 19.3072 328.259 21.1911 328.384 23.2055H319.027C319.027 23.2039 319.027 23.2023 319.027 23.2006C319.138 21.1555 319.33 19.1647 321.043 17.8553C321.09 17.8191 321.138 17.7835 321.188 17.7484C321.226 17.7221 321.263 17.6965 321.301 17.6714C322.059 17.169 322.885 16.8984 323.713 16.8974C324.409 16.8966 325.106 17.0868 325.764 17.4904C325.765 17.4911 325.766 17.4918 325.767 17.4926C326.023 17.6524 326.254 17.8256 326.462 18.0108Z" fill="#EE4237"/>
<path fill-rule="evenodd" clip-rule="evenodd" d="M77.7871 28.7195H97.1272C96.972 27.7497 96.8432 26.7899 96.7161 25.8423C96.4706 24.0124 96.2312 22.2281 95.8189 20.5054C94.7097 15.9577 91.7518 13.0871 87.1159 12.2059C85.0965 11.8365 82.9634 11.6659 80.9157 11.7512C74.4595 11.9786 69.6244 15.844 68.3446 21.8697C67.4345 26.0478 67.7189 30.2543 69.0841 34.3188C69.9942 37.0474 71.7007 39.2075 74.3742 40.316C79.6358 42.4477 85.0112 42.675 90.2444 40.3444C93.8565 38.7243 96.1318 35.882 96.5869 31.7039H87.1728C85.8929 35.3704 83.902 36.6779 80.9441 35.882C78.5266 35.2283 77.133 32.1587 77.7871 28.7195ZM84.4993 17.4926C86.5471 18.7432 87.059 20.8464 87.0874 23.2055C86.9232 23.2055 86.7594 23.2055 86.596 23.2055H77.7871C77.7876 23.196 77.7881 23.1866 77.7887 23.1771L77.7871 23.1771C77.9009 21.0738 78.1 19.0558 79.9487 17.7484C81.3423 16.7536 83.0203 16.6115 84.4993 17.4926Z" fill="#EE4237"/>
</svg>
