<svg width="277" height="46" viewBox="0 0 277 46" fill="none" xmlns="http://www.w3.org/2000/svg">
<path d="M28.0171 8.45468C25.7038 16.6799 23.3904 24.648 21.3341 32.6162C20.563 35.4436 19.2778 38.271 18.7637 41.3555C18.2497 43.9259 16.7074 44.4399 14.3941 44.697C11.8237 44.954 11.0526 43.4118 10.5385 41.8696C9.25336 37.757 8.2252 33.3873 7.19705 29.0177C4.88372 19.7643 2.31334 10.511 0 1.25762C6.42594 0.229472 6.1689 0.229472 7.45409 5.11319C9.76743 14.6236 12.0808 24.134 14.1371 33.6444C15.6793 33.6444 15.9363 32.8733 16.1934 31.8451C18.7637 22.3347 21.0771 12.8243 23.6475 3.31393C24.1615 1.00059 25.7038 0.486511 27.7601 0.486511C29.8164 0.486511 31.6156 0.743553 32.1297 2.79985C33.929 12.5673 37.5275 21.8206 39.5838 31.331C39.8408 32.6162 39.3268 33.9014 40.3549 34.6725C41.3831 34.6725 41.8971 34.1584 41.8971 33.3873C42.6682 26.1903 45.2386 19.2503 46.5238 12.3102C47.0379 10.2539 48.066 8.19765 48.3231 5.88431C48.8371 0.486517 49.0942 0.486517 55.2631 0.743555C55.5201 5.88431 52.6927 10.2539 51.9216 15.1377C51.1505 20.2784 49.0942 25.1621 48.066 30.3029C47.0379 35.1866 45.2386 39.8133 43.9534 44.697C41.6401 44.954 39.5838 45.2111 37.5275 44.697C34.443 32.1021 31.3586 20.5355 28.0171 8.45468Z" fill="#448FBD"/>
<path d="M172.986 44.1829C167.332 44.1829 167.074 43.9259 167.074 39.8133C167.074 34.1584 167.074 28.7606 167.074 23.1058C167.074 20.7925 167.589 17.9651 164.247 17.1939C160.649 16.1658 157.05 17.708 155.251 20.5354C153.966 22.5917 153.194 24.9051 153.194 27.4755C153.451 32.8732 153.194 38.271 153.194 43.4118C151.652 44.697 150.11 44.1829 148.311 43.9259C148.311 33.3873 148.311 23.3629 148.311 13.0813C152.423 12.0532 152.423 12.0532 153.451 15.6517C160.906 10.768 166.56 10.768 172.215 15.9088C176.071 11.2821 181.469 11.7962 186.609 12.3102C189.694 12.5673 192.521 15.9088 192.521 18.9932C192.521 27.2184 192.521 35.4436 192.521 43.4118C190.722 44.4399 189.18 44.4399 187.637 43.4118C186.352 42.3836 186.609 40.8414 186.609 39.5562C186.609 33.6444 186.609 27.7325 186.609 21.5636C186.609 17.708 185.581 16.9369 181.983 16.6799C176.328 16.4228 173.243 18.9932 172.986 24.9051C172.986 31.331 172.986 37.4999 172.986 44.1829Z" fill="#448FBD"/>
<path d="M200.746 22.0776C199.718 19.5072 200.232 17.708 201.775 16.1657C206.658 10.5109 215.912 9.48276 222.081 13.5954C224.651 15.3946 225.936 17.4509 225.936 20.5354C225.936 25.9332 226.193 31.0739 225.936 36.4717C225.679 39.2991 227.735 39.2991 229.278 39.5562C229.021 40.8413 228.764 42.1265 228.249 43.6688C226.707 44.6969 225.165 43.9258 223.623 44.1828C221.309 44.6969 221.566 41.8695 220.024 41.6125C217.454 42.6406 214.626 43.6688 212.313 44.4399C208.972 45.9821 206.144 44.1828 203.574 43.4117C201.003 42.6406 198.947 40.3273 198.947 36.9858C198.947 33.3873 198.69 29.7887 202.546 27.9895C205.116 26.9613 207.429 25.4191 210.514 25.4191C212.827 25.4191 215.398 24.905 217.711 24.1339C220.281 23.3628 220.795 20.7924 219.253 18.7361C216.94 15.6517 207.943 15.3946 206.915 18.9931C205.116 23.6198 202.803 21.5635 200.746 22.0776Z" fill="#448FBD"/>
<path d="M87.3928 43.9258C85.5935 44.1829 83.7942 44.4399 81.7379 43.6688C81.7379 36.9858 81.7379 30.0458 81.7379 23.1058C81.7379 20.7924 81.2239 18.9932 79.4246 17.708C76.8542 15.9087 70.6853 16.9369 68.8861 19.5072C67.3438 21.5635 66.8298 23.8769 66.8298 26.4473C67.0868 32.1021 66.8298 38.0139 66.8298 43.6688C64.7735 44.6969 62.9742 44.4399 61.1749 43.9258C61.1749 29.5317 61.1749 15.1376 61.1749 0.743498C62.7172 -0.54169 64.5164 0.229421 66.8298 0.229421C66.8298 4.8561 66.8298 9.48278 66.8298 14.8806C68.8861 13.8524 70.1712 13.3383 71.4564 12.5672C79.4246 8.19759 88.935 15.1376 88.1639 22.8487C87.6498 29.2747 88.1639 35.9577 88.1639 42.6406C87.9068 42.8977 87.6498 43.1547 87.3928 43.9258Z" fill="#448FBD"/>
<path d="M114.639 40.8414C110.012 44.1828 105.385 46.2392 99.7305 44.4399C95.875 43.1547 93.0476 39.5562 92.7905 35.9576C92.7905 32.6162 95.6179 28.5036 99.2165 27.2184C101.016 26.7043 102.815 25.4191 105.128 25.9332C107.699 26.4473 109.755 24.905 112.325 24.648C115.153 24.1339 115.924 21.3065 113.611 18.9932C112.839 18.222 112.068 17.1939 111.297 17.1939C107.185 17.1939 102.558 15.6517 99.9876 20.7924C98.7024 23.3628 96.132 22.0776 94.0757 21.5635C97.4172 12.8243 102.044 10.2539 110.783 12.0531C112.068 12.3102 113.868 11.7961 114.896 12.5672C117.466 14.1094 119.779 15.9087 119.779 19.7643C119.522 25.4191 119.779 30.8169 119.779 36.4717C119.779 37.7569 119.265 39.5562 121.579 39.5562C124.406 39.8132 123.378 41.8695 123.378 43.1547C123.378 44.1829 120.037 45.468 118.751 44.954C116.952 44.1828 115.41 43.1547 114.639 40.8414Z" fill="#448FBD"/>
<path d="M239.559 43.9259C237.246 43.9259 235.703 43.9259 233.904 43.9259C233.904 33.3873 233.904 23.1058 233.904 12.5673C238.788 12.0532 238.788 12.0532 240.073 15.6517C242.129 13.5954 244.186 12.0532 247.27 11.2821C253.439 9.99692 260.379 14.1095 260.636 20.2784C261.15 27.9895 260.636 35.7007 260.636 43.6688C258.58 43.9259 256.781 44.1829 254.724 43.4118C254.724 36.9859 254.724 30.817 254.724 24.391C254.724 22.8488 254.981 21.3066 254.467 20.0214C253.696 18.2221 252.925 16.1658 250.098 16.6799C249.841 16.6799 249.584 16.6799 249.584 16.6799C243.672 16.4229 240.587 17.9651 239.816 25.4192C239.302 29.2747 239.816 33.1303 239.816 36.9859C239.559 39.5562 239.559 41.6125 239.559 43.9259Z" fill="#448FBD"/>
<path d="M129.547 17.9651C128.519 16.1658 124.663 18.9932 124.663 14.8806C124.663 10.768 128.005 13.0813 129.547 11.5391C129.547 8.96874 129.547 6.14133 129.547 3.57095C131.346 1.77169 133.403 3.05688 135.459 2.28577C135.716 5.62726 135.716 8.7117 135.973 11.5391C137.772 13.0813 139.828 11.5391 141.371 12.5673C142.142 16.9369 142.142 16.9369 135.716 17.451C135.716 23.6199 135.716 30.0458 135.716 36.2147C135.716 38.271 136.744 39.0421 138.8 39.2992C141.885 39.8133 141.628 40.0703 141.628 43.6688C141.114 43.9259 140.6 44.1829 140.086 44.1829C132.631 44.697 129.033 43.4118 129.547 33.6444C129.804 28.5036 129.547 23.3629 129.547 18.2221C129.804 18.2221 129.804 17.9651 129.547 17.9651Z" fill="#448FBD"/>
<path d="M269.118 14.6235C270.918 14.6235 273.231 13.8524 272.974 17.4509C272.974 19.5072 271.946 18.9931 270.661 18.9931C270.147 18.9931 270.404 21.0494 269.118 20.7924C268.861 20.5353 268.604 20.2783 268.604 20.2783C267.833 18.7361 267.833 16.9368 268.604 15.3946C268.861 15.1375 269.118 14.8805 269.118 14.6235Z" fill="#448FBD"/>
<path d="M272.974 22.0776C269.89 23.8768 268.861 23.6198 267.062 21.5635C265.52 19.7642 264.749 17.965 266.805 16.1657C267.062 16.4227 267.319 16.4227 267.319 16.6798C268.09 17.965 267.833 20.0213 269.118 21.0494C269.89 23.1057 271.689 21.8205 272.974 22.0776Z" fill="#448FBD"/>
<path d="M269.375 13.5955C269.889 11.2821 271.432 13.0814 272.46 12.5673C271.689 13.5955 270.404 13.3384 269.375 13.5955Z" fill="#448FBD"/>
<path d="M269.118 13.3384C269.118 13.8525 269.118 14.1095 269.118 14.6236C268.347 15.3947 268.09 16.6799 266.548 15.9088C266.548 14.1095 267.319 13.3384 269.118 13.3384Z" fill="#448FBD"/>
<path d="M275.544 19.7643C275.544 18.7362 275.03 17.451 276.316 15.9088C276.573 17.451 277.601 18.7362 275.544 19.7643Z" fill="#448FBD"/>
<path d="M272.974 22.0776C273.231 20.7924 274.259 20.0213 275.544 19.5072C275.801 21.5635 274.773 22.3346 272.974 22.0776Z" fill="#448FBD"/>
<path d="M219.767 28.5035C220.024 32.102 220.538 35.4435 217.197 38.0139C215.14 39.2991 208.972 40.3272 206.658 39.042C204.602 38.0139 204.859 35.9576 204.859 34.1583C204.859 32.359 205.887 31.0738 207.686 30.8168C211.799 30.0457 215.654 29.2746 219.767 28.5035Z" fill="#FDFEFE"/>
<path d="M114.125 28.2465C115.41 29.5317 114.896 30.8169 114.896 32.1021C114.639 36.7288 111.811 39.2991 107.185 39.5562C105.642 39.5562 104.357 39.5562 102.815 39.5562C101.016 39.5562 99.4735 38.7851 99.2165 36.9858C98.7024 35.4436 98.9595 33.9014 100.245 32.3591C102.044 30.5599 104.1 29.5317 106.671 29.5317C109.498 29.5317 112.068 29.5317 114.125 28.2465Z" fill="#FDFEFE"/>
<path d="M266.805 15.9087C267.576 15.3946 268.604 15.1376 269.375 14.6235C269.375 16.6798 269.375 18.7361 269.375 20.7924C266.548 20.2784 266.805 17.965 266.805 15.9087Z" fill="#FDFEFE"/>
</svg>
