<svg width="152" height="24" viewBox="0 0 152 24" fill="none" xmlns="http://www.w3.org/2000/svg">
<path d="M12 17.77L18.18 21.5L16.54 14.47L22 9.74L14.81 9.13L12 2.5L9.19 9.13L2 9.74L7.46 14.47L5.82 21.5L12 17.77Z" fill="#0F67FE"/>
<path d="M44 17.77L50.18 21.5L48.54 14.47L54 9.74L46.81 9.13L44 2.5L41.19 9.13L34 9.74L39.46 14.47L37.82 21.5L44 17.77Z" fill="#0F67FE"/>
<path d="M76 17.77L82.18 21.5L80.54 14.47L86 9.74L78.81 9.13L76 2.5L73.19 9.13L66 9.74L71.46 14.47L69.82 21.5L76 17.77Z" fill="#0F67FE"/>
<path d="M150 9.74L142.81 9.12L140 2.5L137.19 9.13L130 9.74L135.46 14.47L133.82 21.5L140 17.77L146.18 21.5L144.55 14.47L150 9.74ZM140 15.9L136.24 18.17L137.24 13.89L133.92 11.01L138.3 10.63L140 6.6L141.71 10.64L146.09 11.02L142.77 13.9L143.77 18.18L140 15.9Z" fill="#0F67FE"/>
<path d="M118 9.74L110.81 9.12L108 2.5L105.19 9.13L98 9.74L103.46 14.47L101.82 21.5L108 17.77L114.18 21.5L112.55 14.47L118 9.74ZM108 15.9V6.6L109.71 10.64L114.09 11.02L110.77 13.9L111.77 18.18L108 15.9Z" fill="#0F67FE"/>
</svg>
